G75*
%MOIN*%
%OFA0B0*%
%FSLAX25Y25*%
%IPPOS*%
%LPD*%
%AMOC8*
5,1,8,0,0,1.08239X$1,22.5*
%
%ADD10C,0.07400*%
%ADD11OC8,0.07400*%
%ADD12R,0.06000X0.06000*%
%ADD13C,0.06500*%
%ADD14R,0.06500X0.06500*%
%ADD15C,0.03378*%
%ADD16C,0.02400*%
%ADD17C,0.01000*%
D10*
X0016500Y0102524D03*
X0016500Y0112524D03*
X0016500Y0122524D03*
X0016500Y0132524D03*
X0016500Y0142524D03*
X0016500Y0152524D03*
X0016500Y0162524D03*
X0016500Y0172524D03*
X0016500Y0182524D03*
X0016500Y0192524D03*
X0016500Y0207524D03*
X0016500Y0217524D03*
X0016500Y0227524D03*
X0016500Y0237524D03*
X0016500Y0247524D03*
X0016500Y0257524D03*
X0016500Y0267524D03*
X0016500Y0277524D03*
X0206500Y0277524D03*
X0206500Y0267524D03*
X0206500Y0257524D03*
X0206500Y0247524D03*
X0206500Y0237524D03*
X0206500Y0227524D03*
X0206500Y0207524D03*
X0206500Y0197524D03*
X0206500Y0187524D03*
X0206500Y0177524D03*
X0206500Y0167524D03*
X0206500Y0157524D03*
X0206500Y0147524D03*
X0206500Y0137524D03*
D11*
X0131500Y0142524D03*
X0131500Y0152524D03*
X0121500Y0152524D03*
X0121500Y0142524D03*
X0111500Y0142524D03*
X0111500Y0152524D03*
X0101500Y0152524D03*
X0101500Y0142524D03*
X0091500Y0142524D03*
X0091500Y0152524D03*
X0091500Y0192524D03*
X0091500Y0202524D03*
X0101500Y0202524D03*
X0101500Y0192524D03*
X0111500Y0192524D03*
X0111500Y0202524D03*
X0121500Y0202524D03*
X0121500Y0192524D03*
X0131500Y0192524D03*
X0131500Y0202524D03*
X0131500Y0242524D03*
X0131500Y0252524D03*
X0121500Y0252524D03*
X0121500Y0242524D03*
X0111500Y0242524D03*
X0111500Y0252524D03*
X0101500Y0252524D03*
X0101500Y0242524D03*
X0091500Y0242524D03*
X0091500Y0252524D03*
X0091500Y0292524D03*
X0091500Y0302524D03*
X0101500Y0302524D03*
X0101500Y0292524D03*
X0111500Y0292524D03*
X0111500Y0302524D03*
X0121500Y0302524D03*
X0121500Y0292524D03*
X0131500Y0292524D03*
X0131500Y0302524D03*
X0131500Y0102524D03*
X0131500Y0092524D03*
X0121500Y0092524D03*
X0121500Y0102524D03*
X0111500Y0102524D03*
X0111500Y0092524D03*
X0101500Y0092524D03*
X0101500Y0102524D03*
X0091500Y0102524D03*
X0091500Y0092524D03*
D12*
X0201500Y0337524D03*
X0201500Y0347524D03*
D13*
X0171500Y0337602D03*
D14*
X0171500Y0347445D03*
D15*
X0151500Y0307524D03*
X0161500Y0297524D03*
X0161500Y0287524D03*
X0151500Y0287524D03*
X0151500Y0257524D03*
X0161500Y0247524D03*
X0161500Y0237524D03*
X0151500Y0237524D03*
X0151500Y0207524D03*
X0161500Y0197524D03*
X0161500Y0187524D03*
X0161500Y0172524D03*
X0161500Y0162524D03*
X0171500Y0162524D03*
X0171500Y0172524D03*
X0161500Y0147524D03*
X0161500Y0137524D03*
X0151500Y0137524D03*
X0151500Y0162524D03*
X0151500Y0187524D03*
X0121500Y0227524D03*
X0116500Y0182524D03*
X0116500Y0127524D03*
X0081500Y0122524D03*
X0071500Y0117524D03*
X0071500Y0112524D03*
X0071500Y0102524D03*
X0081500Y0087524D03*
X0061500Y0102524D03*
X0051500Y0112524D03*
X0041500Y0117524D03*
X0036500Y0137524D03*
X0031500Y0137524D03*
X0026500Y0137524D03*
X0031500Y0167524D03*
X0036500Y0167524D03*
X0041500Y0172524D03*
X0046500Y0177524D03*
X0051500Y0172524D03*
X0046500Y0187524D03*
X0056500Y0187524D03*
X0066500Y0187524D03*
X0071500Y0182524D03*
X0081500Y0187524D03*
X0081500Y0177524D03*
X0071500Y0202524D03*
X0071500Y0212524D03*
X0071500Y0217524D03*
X0081500Y0222524D03*
X0081500Y0237524D03*
X0071500Y0252524D03*
X0071500Y0262524D03*
X0071500Y0267524D03*
X0081500Y0272524D03*
X0061500Y0252524D03*
X0051500Y0262524D03*
X0041500Y0267524D03*
X0031500Y0282524D03*
X0031500Y0227524D03*
X0031500Y0217524D03*
X0041500Y0217524D03*
X0041500Y0207524D03*
X0051500Y0212524D03*
X0061500Y0202524D03*
X0056500Y0157524D03*
X0056500Y0147524D03*
X0056500Y0137524D03*
X0066500Y0147524D03*
X0081500Y0137524D03*
X0046500Y0137524D03*
X0046500Y0157524D03*
X0026500Y0187524D03*
X0121500Y0282524D03*
D16*
X0151500Y0287524D02*
X0151500Y0307524D01*
X0161500Y0297524D02*
X0161500Y0287524D01*
X0151500Y0257524D02*
X0151500Y0237524D01*
X0161500Y0237524D02*
X0161500Y0247524D01*
X0151500Y0207524D02*
X0151500Y0187524D01*
X0161500Y0187524D02*
X0161500Y0197524D01*
X0161500Y0172524D02*
X0161500Y0162524D01*
X0171500Y0162524D02*
X0171500Y0172524D01*
X0161500Y0147524D02*
X0161500Y0137524D01*
X0151500Y0137524D02*
X0151500Y0162524D01*
D17*
X0011500Y0062524D02*
X0006500Y0067524D01*
X0006500Y0357524D01*
X0011500Y0362524D01*
X0211500Y0362524D01*
X0216500Y0357524D01*
X0216500Y0067524D01*
X0211500Y0062524D01*
X0011500Y0062524D01*
X0010509Y0063515D02*
X0212491Y0063515D01*
X0213490Y0064513D02*
X0009510Y0064513D01*
X0008512Y0065512D02*
X0214488Y0065512D01*
X0215487Y0066510D02*
X0007513Y0066510D01*
X0006515Y0067509D02*
X0216485Y0067509D01*
X0216500Y0068507D02*
X0006500Y0068507D01*
X0006500Y0069506D02*
X0216500Y0069506D01*
X0216500Y0070504D02*
X0006500Y0070504D01*
X0006500Y0071503D02*
X0216500Y0071503D01*
X0216500Y0072501D02*
X0006500Y0072501D01*
X0006500Y0073500D02*
X0216500Y0073500D01*
X0216500Y0074498D02*
X0006500Y0074498D01*
X0006500Y0075497D02*
X0216500Y0075497D01*
X0216500Y0076495D02*
X0006500Y0076495D01*
X0006500Y0077494D02*
X0216500Y0077494D01*
X0216500Y0078492D02*
X0006500Y0078492D01*
X0006500Y0079491D02*
X0216500Y0079491D01*
X0216500Y0080489D02*
X0006500Y0080489D01*
X0006500Y0081488D02*
X0216500Y0081488D01*
X0216500Y0082486D02*
X0006500Y0082486D01*
X0006500Y0083485D02*
X0216500Y0083485D01*
X0216500Y0084483D02*
X0083818Y0084483D01*
X0083646Y0084311D02*
X0084712Y0085377D01*
X0085289Y0086770D01*
X0085289Y0088277D01*
X0084712Y0089670D01*
X0084100Y0090282D01*
X0084100Y0119765D01*
X0084712Y0120377D01*
X0085289Y0121770D01*
X0085289Y0123277D01*
X0084712Y0124670D01*
X0084458Y0124924D01*
X0113742Y0124924D01*
X0114354Y0124311D01*
X0115746Y0123735D01*
X0117254Y0123735D01*
X0118646Y0124311D01*
X0119712Y0125377D01*
X0120289Y0126770D01*
X0120289Y0128277D01*
X0119712Y0129670D01*
X0118646Y0130736D01*
X0117254Y0131313D01*
X0115746Y0131313D01*
X0114354Y0130736D01*
X0113742Y0130124D01*
X0064100Y0130124D01*
X0064100Y0144565D01*
X0064354Y0144311D01*
X0065746Y0143735D01*
X0067254Y0143735D01*
X0068646Y0144311D01*
X0069712Y0145377D01*
X0070289Y0146770D01*
X0070289Y0148277D01*
X0069712Y0149670D01*
X0069100Y0150282D01*
X0069100Y0179565D01*
X0069354Y0179311D01*
X0070746Y0178735D01*
X0072254Y0178735D01*
X0073646Y0179311D01*
X0074258Y0179924D01*
X0078542Y0179924D01*
X0078288Y0179670D01*
X0077711Y0178277D01*
X0077711Y0176770D01*
X0078288Y0175377D01*
X0078900Y0174765D01*
X0078900Y0140282D01*
X0078288Y0139670D01*
X0077711Y0138277D01*
X0077711Y0136770D01*
X0078288Y0135377D01*
X0079354Y0134311D01*
X0080746Y0133735D01*
X0082254Y0133735D01*
X0083646Y0134311D01*
X0084712Y0135377D01*
X0085289Y0136770D01*
X0085289Y0138277D01*
X0084712Y0139670D01*
X0084100Y0140282D01*
X0084100Y0174765D01*
X0084712Y0175377D01*
X0085289Y0176770D01*
X0085289Y0178277D01*
X0084712Y0179670D01*
X0084458Y0179924D01*
X0113742Y0179924D01*
X0114354Y0179311D01*
X0115746Y0178735D01*
X0117254Y0178735D01*
X0118646Y0179311D01*
X0119712Y0180377D01*
X0120289Y0181770D01*
X0120289Y0183277D01*
X0119712Y0184670D01*
X0118646Y0185736D01*
X0117254Y0186313D01*
X0115746Y0186313D01*
X0114354Y0185736D01*
X0113742Y0185124D01*
X0084458Y0185124D01*
X0084712Y0185377D01*
X0085289Y0186770D01*
X0085289Y0188277D01*
X0084712Y0189670D01*
X0084100Y0190282D01*
X0084100Y0219765D01*
X0084712Y0220377D01*
X0085289Y0221770D01*
X0085289Y0223277D01*
X0084712Y0224670D01*
X0084458Y0224924D01*
X0118742Y0224924D01*
X0119354Y0224311D01*
X0120746Y0223735D01*
X0122254Y0223735D01*
X0123646Y0224311D01*
X0124712Y0225377D01*
X0125289Y0226770D01*
X0125289Y0228277D01*
X0124712Y0229670D01*
X0123646Y0230736D01*
X0122254Y0231313D01*
X0120746Y0231313D01*
X0119354Y0230736D01*
X0118742Y0230124D01*
X0034258Y0230124D01*
X0033646Y0230736D01*
X0032254Y0231313D01*
X0030746Y0231313D01*
X0029354Y0230736D01*
X0028288Y0229670D01*
X0027711Y0228277D01*
X0027711Y0226770D01*
X0028288Y0225377D01*
X0029354Y0224311D01*
X0030746Y0223735D01*
X0032254Y0223735D01*
X0033646Y0224311D01*
X0034258Y0224924D01*
X0078542Y0224924D01*
X0078288Y0224670D01*
X0077711Y0223277D01*
X0077711Y0221770D01*
X0078288Y0220377D01*
X0078900Y0219765D01*
X0078900Y0190282D01*
X0078288Y0189670D01*
X0077711Y0188277D01*
X0077711Y0186770D01*
X0078288Y0185377D01*
X0078542Y0185124D01*
X0074258Y0185124D01*
X0073646Y0185736D01*
X0072254Y0186313D01*
X0070746Y0186313D01*
X0069966Y0185989D01*
X0070289Y0186770D01*
X0070289Y0188277D01*
X0069712Y0189670D01*
X0068646Y0190736D01*
X0067254Y0191313D01*
X0065746Y0191313D01*
X0064354Y0190736D01*
X0064100Y0190482D01*
X0064100Y0198041D01*
X0063704Y0198996D01*
X0063464Y0199236D01*
X0063646Y0199311D01*
X0064258Y0199924D01*
X0068742Y0199924D01*
X0069354Y0199311D01*
X0070746Y0198735D01*
X0072254Y0198735D01*
X0073646Y0199311D01*
X0074712Y0200377D01*
X0075289Y0201770D01*
X0075289Y0203277D01*
X0074712Y0204670D01*
X0073646Y0205736D01*
X0072254Y0206313D01*
X0070746Y0206313D01*
X0069354Y0205736D01*
X0068742Y0205124D01*
X0064258Y0205124D01*
X0063646Y0205736D01*
X0062254Y0206313D01*
X0060746Y0206313D01*
X0059354Y0205736D01*
X0058288Y0204670D01*
X0057711Y0203277D01*
X0057711Y0201770D01*
X0058288Y0200377D01*
X0058542Y0200124D01*
X0032577Y0200124D01*
X0023704Y0208996D01*
X0022973Y0209728D01*
X0022017Y0210124D01*
X0021701Y0210124D01*
X0021417Y0210809D01*
X0019785Y0212441D01*
X0019585Y0212524D01*
X0019785Y0212607D01*
X0021417Y0214238D01*
X0022300Y0216370D01*
X0022300Y0218677D01*
X0021417Y0220809D01*
X0019785Y0222441D01*
X0019585Y0222524D01*
X0019785Y0222607D01*
X0021417Y0224238D01*
X0022300Y0226370D01*
X0022300Y0228677D01*
X0021417Y0230809D01*
X0019785Y0232441D01*
X0019585Y0232524D01*
X0019785Y0232607D01*
X0021417Y0234238D01*
X0022300Y0236370D01*
X0022300Y0238677D01*
X0021417Y0240809D01*
X0019785Y0242441D01*
X0019585Y0242524D01*
X0019785Y0242607D01*
X0021417Y0244238D01*
X0022300Y0246370D01*
X0022300Y0248677D01*
X0021417Y0250809D01*
X0019785Y0252441D01*
X0019585Y0252524D01*
X0019785Y0252607D01*
X0021417Y0254238D01*
X0022300Y0256370D01*
X0022300Y0258677D01*
X0021417Y0260809D01*
X0019785Y0262441D01*
X0019585Y0262524D01*
X0019785Y0262607D01*
X0021417Y0264238D01*
X0022300Y0266370D01*
X0022300Y0268677D01*
X0021417Y0270809D01*
X0019785Y0272441D01*
X0019585Y0272524D01*
X0019785Y0272607D01*
X0021417Y0274238D01*
X0022300Y0276370D01*
X0022300Y0278677D01*
X0021417Y0280809D01*
X0019785Y0282441D01*
X0017654Y0283324D01*
X0015346Y0283324D01*
X0013215Y0282441D01*
X0011583Y0280809D01*
X0010700Y0278677D01*
X0010700Y0276370D01*
X0011583Y0274238D01*
X0013215Y0272607D01*
X0013415Y0272524D01*
X0013215Y0272441D01*
X0011583Y0270809D01*
X0010700Y0268677D01*
X0010700Y0266370D01*
X0011583Y0264238D01*
X0013215Y0262607D01*
X0013415Y0262524D01*
X0013215Y0262441D01*
X0011583Y0260809D01*
X0010700Y0258677D01*
X0010700Y0256370D01*
X0011583Y0254238D01*
X0013215Y0252607D01*
X0013415Y0252524D01*
X0013215Y0252441D01*
X0011583Y0250809D01*
X0010700Y0248677D01*
X0010700Y0246370D01*
X0011583Y0244238D01*
X0013215Y0242607D01*
X0013415Y0242524D01*
X0013215Y0242441D01*
X0011583Y0240809D01*
X0010700Y0238677D01*
X0010700Y0236370D01*
X0011583Y0234238D01*
X0013215Y0232607D01*
X0013415Y0232524D01*
X0013215Y0232441D01*
X0011583Y0230809D01*
X0010700Y0228677D01*
X0010700Y0226370D01*
X0011583Y0224238D01*
X0013215Y0222607D01*
X0013415Y0222524D01*
X0013215Y0222441D01*
X0011583Y0220809D01*
X0010700Y0218677D01*
X0010700Y0216370D01*
X0011583Y0214238D01*
X0013215Y0212607D01*
X0013415Y0212524D01*
X0013215Y0212441D01*
X0011583Y0210809D01*
X0010700Y0208677D01*
X0010700Y0206370D01*
X0011583Y0204238D01*
X0013215Y0202607D01*
X0015346Y0201724D01*
X0017654Y0201724D01*
X0019785Y0202607D01*
X0021263Y0204084D01*
X0030027Y0195319D01*
X0030983Y0194924D01*
X0058900Y0194924D01*
X0058900Y0190482D01*
X0058646Y0190736D01*
X0057254Y0191313D01*
X0055746Y0191313D01*
X0054354Y0190736D01*
X0053288Y0189670D01*
X0052711Y0188277D01*
X0052711Y0186770D01*
X0053288Y0185377D01*
X0053900Y0184765D01*
X0053900Y0175482D01*
X0053646Y0175736D01*
X0052254Y0176313D01*
X0050746Y0176313D01*
X0049966Y0175989D01*
X0050289Y0176770D01*
X0050289Y0178277D01*
X0049712Y0179670D01*
X0049100Y0180282D01*
X0049100Y0184765D01*
X0049712Y0185377D01*
X0050289Y0186770D01*
X0050289Y0188277D01*
X0049712Y0189670D01*
X0048646Y0190736D01*
X0047254Y0191313D01*
X0045746Y0191313D01*
X0044354Y0190736D01*
X0043288Y0189670D01*
X0042711Y0188277D01*
X0042711Y0186770D01*
X0043288Y0185377D01*
X0043900Y0184765D01*
X0043900Y0180282D01*
X0043288Y0179670D01*
X0042711Y0178277D01*
X0042711Y0176770D01*
X0043034Y0175989D01*
X0042254Y0176313D01*
X0040746Y0176313D01*
X0039354Y0175736D01*
X0038288Y0174670D01*
X0037711Y0173277D01*
X0037711Y0171770D01*
X0038034Y0170989D01*
X0037254Y0171313D01*
X0035746Y0171313D01*
X0034354Y0170736D01*
X0034000Y0170382D01*
X0033646Y0170736D01*
X0032254Y0171313D01*
X0030746Y0171313D01*
X0029354Y0170736D01*
X0029100Y0170482D01*
X0029100Y0184765D01*
X0029712Y0185377D01*
X0030289Y0186770D01*
X0030289Y0188277D01*
X0029712Y0189670D01*
X0028646Y0190736D01*
X0027254Y0191313D01*
X0025746Y0191313D01*
X0024354Y0190736D01*
X0023288Y0189670D01*
X0022711Y0188277D01*
X0022711Y0186770D01*
X0023288Y0185377D01*
X0023900Y0184765D01*
X0023900Y0140282D01*
X0023288Y0139670D01*
X0022711Y0138277D01*
X0022711Y0136770D01*
X0023288Y0135377D01*
X0024354Y0134311D01*
X0025746Y0133735D01*
X0027254Y0133735D01*
X0028646Y0134311D01*
X0029000Y0134665D01*
X0029354Y0134311D01*
X0030746Y0133735D01*
X0032254Y0133735D01*
X0033646Y0134311D01*
X0034000Y0134665D01*
X0034354Y0134311D01*
X0035746Y0133735D01*
X0037254Y0133735D01*
X0038646Y0134311D01*
X0039712Y0135377D01*
X0040289Y0136770D01*
X0040289Y0138277D01*
X0039712Y0139670D01*
X0039100Y0140282D01*
X0039100Y0164765D01*
X0039712Y0165377D01*
X0040289Y0166770D01*
X0040289Y0168277D01*
X0039966Y0169058D01*
X0040746Y0168735D01*
X0042254Y0168735D01*
X0043646Y0169311D01*
X0044258Y0169924D01*
X0048742Y0169924D01*
X0049354Y0169311D01*
X0050746Y0168735D01*
X0052254Y0168735D01*
X0053646Y0169311D01*
X0053900Y0169565D01*
X0053900Y0160282D01*
X0053288Y0159670D01*
X0052711Y0158277D01*
X0052711Y0156770D01*
X0053288Y0155377D01*
X0054354Y0154311D01*
X0055746Y0153735D01*
X0057254Y0153735D01*
X0058646Y0154311D01*
X0058900Y0154565D01*
X0058900Y0150482D01*
X0058646Y0150736D01*
X0057254Y0151313D01*
X0055746Y0151313D01*
X0054354Y0150736D01*
X0053288Y0149670D01*
X0052711Y0148277D01*
X0052711Y0146770D01*
X0053288Y0145377D01*
X0053900Y0144765D01*
X0053900Y0140282D01*
X0053288Y0139670D01*
X0052711Y0138277D01*
X0052711Y0136770D01*
X0053288Y0135377D01*
X0054354Y0134311D01*
X0055746Y0133735D01*
X0057254Y0133735D01*
X0058646Y0134311D01*
X0058900Y0134565D01*
X0058900Y0127006D01*
X0059296Y0126051D01*
X0060027Y0125319D01*
X0060983Y0124924D01*
X0078542Y0124924D01*
X0078288Y0124670D01*
X0077711Y0123277D01*
X0077711Y0121770D01*
X0078288Y0120377D01*
X0078900Y0119765D01*
X0078900Y0090282D01*
X0078288Y0089670D01*
X0077711Y0088277D01*
X0077711Y0086770D01*
X0078288Y0085377D01*
X0079354Y0084311D01*
X0080746Y0083735D01*
X0082254Y0083735D01*
X0083646Y0084311D01*
X0084755Y0085482D02*
X0216500Y0085482D01*
X0216500Y0086480D02*
X0085169Y0086480D01*
X0085289Y0087479D02*
X0088342Y0087479D01*
X0089098Y0086724D02*
X0093902Y0086724D01*
X0096500Y0089321D01*
X0099098Y0086724D01*
X0103902Y0086724D01*
X0106500Y0089321D01*
X0109098Y0086724D01*
X0113902Y0086724D01*
X0116500Y0089321D01*
X0119098Y0086724D01*
X0123902Y0086724D01*
X0126924Y0089745D01*
X0129346Y0087324D01*
X0131000Y0087324D01*
X0131000Y0092024D01*
X0132000Y0092024D01*
X0132000Y0093024D01*
X0136700Y0093024D01*
X0136700Y0094678D01*
X0134278Y0097099D01*
X0137300Y0100121D01*
X0137300Y0104926D01*
X0133902Y0108324D01*
X0129098Y0108324D01*
X0126500Y0105726D01*
X0123902Y0108324D01*
X0119098Y0108324D01*
X0116500Y0105726D01*
X0113902Y0108324D01*
X0109098Y0108324D01*
X0106500Y0105726D01*
X0103902Y0108324D01*
X0099098Y0108324D01*
X0096500Y0105726D01*
X0093902Y0108324D01*
X0089098Y0108324D01*
X0085700Y0104926D01*
X0085700Y0100121D01*
X0088298Y0097524D01*
X0085700Y0094926D01*
X0085700Y0090121D01*
X0089098Y0086724D01*
X0087344Y0088477D02*
X0085206Y0088477D01*
X0084792Y0089476D02*
X0086345Y0089476D01*
X0085700Y0090474D02*
X0084100Y0090474D01*
X0084100Y0091473D02*
X0085700Y0091473D01*
X0085700Y0092472D02*
X0084100Y0092472D01*
X0084100Y0093470D02*
X0085700Y0093470D01*
X0085700Y0094469D02*
X0084100Y0094469D01*
X0084100Y0095467D02*
X0086241Y0095467D01*
X0087240Y0096466D02*
X0084100Y0096466D01*
X0084100Y0097464D02*
X0088238Y0097464D01*
X0087359Y0098463D02*
X0084100Y0098463D01*
X0084100Y0099461D02*
X0086360Y0099461D01*
X0085700Y0100460D02*
X0084100Y0100460D01*
X0084100Y0101458D02*
X0085700Y0101458D01*
X0085700Y0102457D02*
X0084100Y0102457D01*
X0084100Y0103455D02*
X0085700Y0103455D01*
X0085700Y0104454D02*
X0084100Y0104454D01*
X0084100Y0105452D02*
X0086226Y0105452D01*
X0087225Y0106451D02*
X0084100Y0106451D01*
X0084100Y0107449D02*
X0088223Y0107449D01*
X0084100Y0108448D02*
X0216500Y0108448D01*
X0216500Y0109446D02*
X0084100Y0109446D01*
X0084100Y0110445D02*
X0216500Y0110445D01*
X0216500Y0111443D02*
X0084100Y0111443D01*
X0084100Y0112442D02*
X0216500Y0112442D01*
X0216500Y0113440D02*
X0084100Y0113440D01*
X0084100Y0114439D02*
X0216500Y0114439D01*
X0216500Y0115437D02*
X0084100Y0115437D01*
X0084100Y0116436D02*
X0216500Y0116436D01*
X0216500Y0117434D02*
X0084100Y0117434D01*
X0084100Y0118433D02*
X0216500Y0118433D01*
X0216500Y0119431D02*
X0084100Y0119431D01*
X0084734Y0120430D02*
X0216500Y0120430D01*
X0216500Y0121428D02*
X0085147Y0121428D01*
X0085289Y0122427D02*
X0216500Y0122427D01*
X0216500Y0123425D02*
X0085228Y0123425D01*
X0084814Y0124424D02*
X0114241Y0124424D01*
X0116500Y0127524D02*
X0061500Y0127524D01*
X0061500Y0197524D01*
X0031500Y0197524D01*
X0021500Y0207524D01*
X0016500Y0207524D01*
X0013936Y0202308D02*
X0006500Y0202308D01*
X0006500Y0203306D02*
X0012515Y0203306D01*
X0011555Y0204305D02*
X0006500Y0204305D01*
X0006500Y0205303D02*
X0011142Y0205303D01*
X0010728Y0206302D02*
X0006500Y0206302D01*
X0006500Y0207300D02*
X0010700Y0207300D01*
X0010700Y0208299D02*
X0006500Y0208299D01*
X0006500Y0209297D02*
X0010957Y0209297D01*
X0011370Y0210296D02*
X0006500Y0210296D01*
X0006500Y0211294D02*
X0012068Y0211294D01*
X0013067Y0212293D02*
X0006500Y0212293D01*
X0006500Y0213291D02*
X0012530Y0213291D01*
X0011562Y0214290D02*
X0006500Y0214290D01*
X0006500Y0215288D02*
X0011148Y0215288D01*
X0010734Y0216287D02*
X0006500Y0216287D01*
X0006500Y0217285D02*
X0010700Y0217285D01*
X0010700Y0218284D02*
X0006500Y0218284D01*
X0006500Y0219282D02*
X0010951Y0219282D01*
X0011364Y0220281D02*
X0006500Y0220281D01*
X0006500Y0221279D02*
X0012053Y0221279D01*
X0013052Y0222278D02*
X0006500Y0222278D01*
X0006500Y0223277D02*
X0012545Y0223277D01*
X0011568Y0224275D02*
X0006500Y0224275D01*
X0006500Y0225274D02*
X0011154Y0225274D01*
X0010741Y0226272D02*
X0006500Y0226272D01*
X0006500Y0227271D02*
X0010700Y0227271D01*
X0010700Y0228269D02*
X0006500Y0228269D01*
X0006500Y0229268D02*
X0010945Y0229268D01*
X0011358Y0230266D02*
X0006500Y0230266D01*
X0006500Y0231265D02*
X0012039Y0231265D01*
X0013037Y0232263D02*
X0006500Y0232263D01*
X0006500Y0233262D02*
X0012560Y0233262D01*
X0011574Y0234260D02*
X0006500Y0234260D01*
X0006500Y0235259D02*
X0011160Y0235259D01*
X0010747Y0236257D02*
X0006500Y0236257D01*
X0006500Y0237256D02*
X0010700Y0237256D01*
X0010700Y0238254D02*
X0006500Y0238254D01*
X0006500Y0239253D02*
X0010938Y0239253D01*
X0011352Y0240251D02*
X0006500Y0240251D01*
X0006500Y0241250D02*
X0012024Y0241250D01*
X0013022Y0242248D02*
X0006500Y0242248D01*
X0006500Y0243247D02*
X0012574Y0243247D01*
X0011580Y0244245D02*
X0006500Y0244245D01*
X0006500Y0245244D02*
X0011166Y0245244D01*
X0010753Y0246242D02*
X0006500Y0246242D01*
X0006500Y0247241D02*
X0010700Y0247241D01*
X0010700Y0248239D02*
X0006500Y0248239D01*
X0006500Y0249238D02*
X0010932Y0249238D01*
X0011346Y0250236D02*
X0006500Y0250236D01*
X0006500Y0251235D02*
X0012009Y0251235D01*
X0013007Y0252233D02*
X0006500Y0252233D01*
X0006500Y0253232D02*
X0012589Y0253232D01*
X0011591Y0254230D02*
X0006500Y0254230D01*
X0006500Y0255229D02*
X0011173Y0255229D01*
X0010759Y0256227D02*
X0006500Y0256227D01*
X0006500Y0257226D02*
X0010700Y0257226D01*
X0010700Y0258224D02*
X0006500Y0258224D01*
X0006500Y0259223D02*
X0010926Y0259223D01*
X0011340Y0260221D02*
X0006500Y0260221D01*
X0006500Y0261220D02*
X0011994Y0261220D01*
X0012992Y0262218D02*
X0006500Y0262218D01*
X0006500Y0263217D02*
X0012604Y0263217D01*
X0011606Y0264215D02*
X0006500Y0264215D01*
X0006500Y0265214D02*
X0011179Y0265214D01*
X0010765Y0266212D02*
X0006500Y0266212D01*
X0006500Y0267211D02*
X0010700Y0267211D01*
X0010700Y0268210D02*
X0006500Y0268210D01*
X0006500Y0269208D02*
X0010920Y0269208D01*
X0011333Y0270207D02*
X0006500Y0270207D01*
X0006500Y0271205D02*
X0011979Y0271205D01*
X0012977Y0272204D02*
X0006500Y0272204D01*
X0006500Y0273202D02*
X0012619Y0273202D01*
X0011621Y0274201D02*
X0006500Y0274201D01*
X0006500Y0275199D02*
X0011185Y0275199D01*
X0010771Y0276198D02*
X0006500Y0276198D01*
X0006500Y0277196D02*
X0010700Y0277196D01*
X0010700Y0278195D02*
X0006500Y0278195D01*
X0006500Y0279193D02*
X0010914Y0279193D01*
X0011327Y0280192D02*
X0006500Y0280192D01*
X0006500Y0281190D02*
X0011964Y0281190D01*
X0012963Y0282189D02*
X0006500Y0282189D01*
X0006500Y0283187D02*
X0015017Y0283187D01*
X0017983Y0283187D02*
X0027711Y0283187D01*
X0027711Y0283277D02*
X0027711Y0281770D01*
X0028288Y0280377D01*
X0029354Y0279311D01*
X0030746Y0278735D01*
X0032254Y0278735D01*
X0033646Y0279311D01*
X0034258Y0279924D01*
X0118742Y0279924D01*
X0119354Y0279311D01*
X0120746Y0278735D01*
X0122254Y0278735D01*
X0123646Y0279311D01*
X0124712Y0280377D01*
X0125289Y0281770D01*
X0125289Y0283277D01*
X0124712Y0284670D01*
X0123646Y0285736D01*
X0122254Y0286313D01*
X0120746Y0286313D01*
X0119354Y0285736D01*
X0118742Y0285124D01*
X0034258Y0285124D01*
X0033646Y0285736D01*
X0032254Y0286313D01*
X0030746Y0286313D01*
X0029354Y0285736D01*
X0028288Y0284670D01*
X0027711Y0283277D01*
X0028087Y0284186D02*
X0006500Y0284186D01*
X0006500Y0285184D02*
X0028802Y0285184D01*
X0030433Y0286183D02*
X0006500Y0286183D01*
X0006500Y0287181D02*
X0088640Y0287181D01*
X0089098Y0286724D02*
X0093902Y0286724D01*
X0096500Y0289321D01*
X0099098Y0286724D01*
X0103902Y0286724D01*
X0106500Y0289321D01*
X0109098Y0286724D01*
X0113902Y0286724D01*
X0116500Y0289321D01*
X0119098Y0286724D01*
X0123902Y0286724D01*
X0126924Y0289745D01*
X0129346Y0287324D01*
X0131000Y0287324D01*
X0131000Y0292024D01*
X0132000Y0292024D01*
X0132000Y0293024D01*
X0136700Y0293024D01*
X0136700Y0294678D01*
X0134278Y0297099D01*
X0137300Y0300121D01*
X0137300Y0304926D01*
X0133902Y0308324D01*
X0129098Y0308324D01*
X0126500Y0305726D01*
X0123902Y0308324D01*
X0119098Y0308324D01*
X0116500Y0305726D01*
X0113902Y0308324D01*
X0109098Y0308324D01*
X0106500Y0305726D01*
X0103902Y0308324D01*
X0099098Y0308324D01*
X0096500Y0305726D01*
X0093902Y0308324D01*
X0089098Y0308324D01*
X0085700Y0304926D01*
X0085700Y0300121D01*
X0088298Y0297524D01*
X0085700Y0294926D01*
X0085700Y0290121D01*
X0089098Y0286724D01*
X0087641Y0288180D02*
X0006500Y0288180D01*
X0006500Y0289178D02*
X0086643Y0289178D01*
X0085700Y0290177D02*
X0006500Y0290177D01*
X0006500Y0291175D02*
X0085700Y0291175D01*
X0085700Y0292174D02*
X0006500Y0292174D01*
X0006500Y0293172D02*
X0085700Y0293172D01*
X0085700Y0294171D02*
X0006500Y0294171D01*
X0006500Y0295169D02*
X0085943Y0295169D01*
X0086942Y0296168D02*
X0006500Y0296168D01*
X0006500Y0297166D02*
X0087940Y0297166D01*
X0087656Y0298165D02*
X0006500Y0298165D01*
X0006500Y0299163D02*
X0086658Y0299163D01*
X0085700Y0300162D02*
X0006500Y0300162D01*
X0006500Y0301160D02*
X0085700Y0301160D01*
X0085700Y0302159D02*
X0006500Y0302159D01*
X0006500Y0303157D02*
X0085700Y0303157D01*
X0085700Y0304156D02*
X0006500Y0304156D01*
X0006500Y0305154D02*
X0085928Y0305154D01*
X0086927Y0306153D02*
X0006500Y0306153D01*
X0006500Y0307151D02*
X0087925Y0307151D01*
X0088924Y0308150D02*
X0006500Y0308150D01*
X0006500Y0309148D02*
X0148072Y0309148D01*
X0148288Y0309670D02*
X0147711Y0308277D01*
X0147711Y0306770D01*
X0148200Y0305589D01*
X0148200Y0289458D01*
X0147711Y0288277D01*
X0147711Y0286770D01*
X0148288Y0285377D01*
X0149354Y0284311D01*
X0150746Y0283735D01*
X0152254Y0283735D01*
X0153646Y0284311D01*
X0154712Y0285377D01*
X0155289Y0286770D01*
X0155289Y0288277D01*
X0154800Y0289458D01*
X0154800Y0305589D01*
X0155289Y0306770D01*
X0155289Y0308277D01*
X0154712Y0309670D01*
X0153646Y0310736D01*
X0152254Y0311313D01*
X0150746Y0311313D01*
X0149354Y0310736D01*
X0148288Y0309670D01*
X0148765Y0310147D02*
X0006500Y0310147D01*
X0006500Y0311145D02*
X0150343Y0311145D01*
X0152657Y0311145D02*
X0216500Y0311145D01*
X0216500Y0310147D02*
X0154235Y0310147D01*
X0154928Y0309148D02*
X0216500Y0309148D01*
X0216500Y0308150D02*
X0155289Y0308150D01*
X0155289Y0307151D02*
X0216500Y0307151D01*
X0216500Y0306153D02*
X0155033Y0306153D01*
X0154800Y0305154D02*
X0216500Y0305154D01*
X0216500Y0304156D02*
X0154800Y0304156D01*
X0154800Y0303157D02*
X0216500Y0303157D01*
X0216500Y0302159D02*
X0154800Y0302159D01*
X0154800Y0301160D02*
X0160379Y0301160D01*
X0160746Y0301313D02*
X0159354Y0300736D01*
X0158288Y0299670D01*
X0157711Y0298277D01*
X0157711Y0296770D01*
X0158200Y0295589D01*
X0158200Y0289458D01*
X0157711Y0288277D01*
X0157711Y0286770D01*
X0158288Y0285377D01*
X0159354Y0284311D01*
X0160746Y0283735D01*
X0162254Y0283735D01*
X0163646Y0284311D01*
X0164712Y0285377D01*
X0165289Y0286770D01*
X0165289Y0288277D01*
X0164800Y0289458D01*
X0164800Y0295589D01*
X0165289Y0296770D01*
X0165289Y0298277D01*
X0164712Y0299670D01*
X0163646Y0300736D01*
X0162254Y0301313D01*
X0160746Y0301313D01*
X0162621Y0301160D02*
X0216500Y0301160D01*
X0216500Y0300162D02*
X0164220Y0300162D01*
X0164922Y0299163D02*
X0216500Y0299163D01*
X0216500Y0298165D02*
X0165289Y0298165D01*
X0165289Y0297166D02*
X0216500Y0297166D01*
X0216500Y0296168D02*
X0165040Y0296168D01*
X0164800Y0295169D02*
X0216500Y0295169D01*
X0216500Y0294171D02*
X0164800Y0294171D01*
X0164800Y0293172D02*
X0216500Y0293172D01*
X0216500Y0292174D02*
X0164800Y0292174D01*
X0164800Y0291175D02*
X0216500Y0291175D01*
X0216500Y0290177D02*
X0164800Y0290177D01*
X0164916Y0289178D02*
X0216500Y0289178D01*
X0216500Y0288180D02*
X0165289Y0288180D01*
X0165289Y0287181D02*
X0216500Y0287181D01*
X0216500Y0286183D02*
X0165046Y0286183D01*
X0164519Y0285184D02*
X0216500Y0285184D01*
X0216500Y0284186D02*
X0163343Y0284186D01*
X0159657Y0284186D02*
X0153343Y0284186D01*
X0154519Y0285184D02*
X0158481Y0285184D01*
X0157954Y0286183D02*
X0155046Y0286183D01*
X0155289Y0287181D02*
X0157711Y0287181D01*
X0157711Y0288180D02*
X0155289Y0288180D01*
X0154916Y0289178D02*
X0158084Y0289178D01*
X0158200Y0290177D02*
X0154800Y0290177D01*
X0154800Y0291175D02*
X0158200Y0291175D01*
X0158200Y0292174D02*
X0154800Y0292174D01*
X0154800Y0293172D02*
X0158200Y0293172D01*
X0158200Y0294171D02*
X0154800Y0294171D01*
X0154800Y0295169D02*
X0158200Y0295169D01*
X0157960Y0296168D02*
X0154800Y0296168D01*
X0154800Y0297166D02*
X0157711Y0297166D01*
X0157711Y0298165D02*
X0154800Y0298165D01*
X0154800Y0299163D02*
X0158078Y0299163D01*
X0158780Y0300162D02*
X0154800Y0300162D01*
X0148200Y0300162D02*
X0137300Y0300162D01*
X0137300Y0301160D02*
X0148200Y0301160D01*
X0148200Y0302159D02*
X0137300Y0302159D01*
X0137300Y0303157D02*
X0148200Y0303157D01*
X0148200Y0304156D02*
X0137300Y0304156D01*
X0137072Y0305154D02*
X0148200Y0305154D01*
X0147967Y0306153D02*
X0136073Y0306153D01*
X0135075Y0307151D02*
X0147711Y0307151D01*
X0147711Y0308150D02*
X0134076Y0308150D01*
X0136342Y0299163D02*
X0148200Y0299163D01*
X0148200Y0298165D02*
X0135344Y0298165D01*
X0134345Y0297166D02*
X0148200Y0297166D01*
X0148200Y0296168D02*
X0135210Y0296168D01*
X0136208Y0295169D02*
X0148200Y0295169D01*
X0148200Y0294171D02*
X0136700Y0294171D01*
X0136700Y0293172D02*
X0148200Y0293172D01*
X0148200Y0292174D02*
X0132000Y0292174D01*
X0132000Y0292024D02*
X0136700Y0292024D01*
X0136700Y0290370D01*
X0133654Y0287324D01*
X0132000Y0287324D01*
X0132000Y0292024D01*
X0132000Y0291175D02*
X0131000Y0291175D01*
X0131000Y0290177D02*
X0132000Y0290177D01*
X0132000Y0289178D02*
X0131000Y0289178D01*
X0131000Y0288180D02*
X0132000Y0288180D01*
X0134510Y0288180D02*
X0147711Y0288180D01*
X0147711Y0287181D02*
X0124360Y0287181D01*
X0125359Y0288180D02*
X0128490Y0288180D01*
X0127491Y0289178D02*
X0126357Y0289178D01*
X0124198Y0285184D02*
X0148481Y0285184D01*
X0147954Y0286183D02*
X0122567Y0286183D01*
X0120433Y0286183D02*
X0032567Y0286183D01*
X0034198Y0285184D02*
X0118802Y0285184D01*
X0118640Y0287181D02*
X0114360Y0287181D01*
X0115359Y0288180D02*
X0117641Y0288180D01*
X0116643Y0289178D02*
X0116357Y0289178D01*
X0121500Y0282524D02*
X0031500Y0282524D01*
X0033361Y0279193D02*
X0119639Y0279193D01*
X0123361Y0279193D02*
X0200914Y0279193D01*
X0200700Y0278677D02*
X0200700Y0276370D01*
X0201583Y0274238D01*
X0203215Y0272607D01*
X0203415Y0272524D01*
X0203215Y0272441D01*
X0201583Y0270809D01*
X0200700Y0268677D01*
X0200700Y0266370D01*
X0201583Y0264238D01*
X0203215Y0262607D01*
X0203415Y0262524D01*
X0203215Y0262441D01*
X0201583Y0260809D01*
X0200700Y0258677D01*
X0200700Y0256370D01*
X0201583Y0254238D01*
X0203215Y0252607D01*
X0203415Y0252524D01*
X0203215Y0252441D01*
X0201583Y0250809D01*
X0200700Y0248677D01*
X0200700Y0246370D01*
X0201583Y0244238D01*
X0203215Y0242607D01*
X0203415Y0242524D01*
X0203215Y0242441D01*
X0201583Y0240809D01*
X0200700Y0238677D01*
X0200700Y0236370D01*
X0201583Y0234238D01*
X0203215Y0232607D01*
X0203415Y0232524D01*
X0203215Y0232441D01*
X0201583Y0230809D01*
X0200700Y0228677D01*
X0200700Y0226370D01*
X0201583Y0224238D01*
X0203215Y0222607D01*
X0205346Y0221724D01*
X0207654Y0221724D01*
X0209785Y0222607D01*
X0211417Y0224238D01*
X0212300Y0226370D01*
X0212300Y0228677D01*
X0211417Y0230809D01*
X0209785Y0232441D01*
X0209585Y0232524D01*
X0209785Y0232607D01*
X0211417Y0234238D01*
X0212300Y0236370D01*
X0212300Y0238677D01*
X0211417Y0240809D01*
X0209785Y0242441D01*
X0209585Y0242524D01*
X0209785Y0242607D01*
X0211417Y0244238D01*
X0212300Y0246370D01*
X0212300Y0248677D01*
X0211417Y0250809D01*
X0209785Y0252441D01*
X0209585Y0252524D01*
X0209785Y0252607D01*
X0211417Y0254238D01*
X0212300Y0256370D01*
X0212300Y0258677D01*
X0211417Y0260809D01*
X0209785Y0262441D01*
X0209585Y0262524D01*
X0209785Y0262607D01*
X0211417Y0264238D01*
X0212300Y0266370D01*
X0212300Y0268677D01*
X0211417Y0270809D01*
X0209785Y0272441D01*
X0209585Y0272524D01*
X0209785Y0272607D01*
X0211417Y0274238D01*
X0212300Y0276370D01*
X0212300Y0278677D01*
X0211417Y0280809D01*
X0209785Y0282441D01*
X0207654Y0283324D01*
X0205346Y0283324D01*
X0203215Y0282441D01*
X0201583Y0280809D01*
X0200700Y0278677D01*
X0200700Y0278195D02*
X0022300Y0278195D01*
X0022300Y0277196D02*
X0200700Y0277196D01*
X0200771Y0276198D02*
X0082531Y0276198D01*
X0082254Y0276313D02*
X0083646Y0275736D01*
X0084712Y0274670D01*
X0085289Y0273277D01*
X0085289Y0271770D01*
X0084712Y0270377D01*
X0084100Y0269765D01*
X0084100Y0240282D01*
X0084712Y0239670D01*
X0085289Y0238277D01*
X0085289Y0236770D01*
X0084712Y0235377D01*
X0083646Y0234311D01*
X0082254Y0233735D01*
X0080746Y0233735D01*
X0079354Y0234311D01*
X0078288Y0235377D01*
X0077711Y0236770D01*
X0077711Y0238277D01*
X0078288Y0239670D01*
X0078900Y0240282D01*
X0078900Y0269765D01*
X0078288Y0270377D01*
X0077711Y0271770D01*
X0077711Y0273277D01*
X0078288Y0274670D01*
X0079354Y0275736D01*
X0080746Y0276313D01*
X0082254Y0276313D01*
X0080469Y0276198D02*
X0022229Y0276198D01*
X0021815Y0275199D02*
X0078817Y0275199D01*
X0078093Y0274201D02*
X0021379Y0274201D01*
X0020381Y0273202D02*
X0077711Y0273202D01*
X0077711Y0272204D02*
X0020022Y0272204D01*
X0021021Y0271205D02*
X0040487Y0271205D01*
X0040746Y0271313D02*
X0039354Y0270736D01*
X0038288Y0269670D01*
X0037711Y0268277D01*
X0037711Y0266770D01*
X0038288Y0265377D01*
X0039354Y0264311D01*
X0040746Y0263735D01*
X0042254Y0263735D01*
X0043646Y0264311D01*
X0044258Y0264924D01*
X0048542Y0264924D01*
X0048288Y0264670D01*
X0047711Y0263277D01*
X0047711Y0261770D01*
X0048288Y0260377D01*
X0049354Y0259311D01*
X0050746Y0258735D01*
X0052254Y0258735D01*
X0053646Y0259311D01*
X0054258Y0259924D01*
X0068742Y0259924D01*
X0069354Y0259311D01*
X0070746Y0258735D01*
X0072254Y0258735D01*
X0073646Y0259311D01*
X0074712Y0260377D01*
X0075289Y0261770D01*
X0075289Y0263277D01*
X0074712Y0264670D01*
X0074358Y0265024D01*
X0074712Y0265377D01*
X0075289Y0266770D01*
X0075289Y0268277D01*
X0074712Y0269670D01*
X0073646Y0270736D01*
X0072254Y0271313D01*
X0070746Y0271313D01*
X0069354Y0270736D01*
X0068742Y0270124D01*
X0044258Y0270124D01*
X0043646Y0270736D01*
X0042254Y0271313D01*
X0040746Y0271313D01*
X0042513Y0271205D02*
X0070487Y0271205D01*
X0068824Y0270207D02*
X0044175Y0270207D01*
X0041500Y0267524D02*
X0071500Y0267524D01*
X0074175Y0270207D02*
X0078459Y0270207D01*
X0078900Y0269208D02*
X0074903Y0269208D01*
X0075289Y0268210D02*
X0078900Y0268210D01*
X0078900Y0267211D02*
X0075289Y0267211D01*
X0075058Y0266212D02*
X0078900Y0266212D01*
X0078900Y0265214D02*
X0074549Y0265214D01*
X0074900Y0264215D02*
X0078900Y0264215D01*
X0078900Y0263217D02*
X0075289Y0263217D01*
X0075289Y0262218D02*
X0078900Y0262218D01*
X0078900Y0261220D02*
X0075061Y0261220D01*
X0074556Y0260221D02*
X0078900Y0260221D01*
X0078900Y0259223D02*
X0073432Y0259223D01*
X0072254Y0256313D02*
X0070746Y0256313D01*
X0069354Y0255736D01*
X0068742Y0255124D01*
X0064258Y0255124D01*
X0063646Y0255736D01*
X0062254Y0256313D01*
X0060746Y0256313D01*
X0059354Y0255736D01*
X0058288Y0254670D01*
X0057711Y0253277D01*
X0057711Y0251770D01*
X0058288Y0250377D01*
X0059354Y0249311D01*
X0060746Y0248735D01*
X0062254Y0248735D01*
X0063646Y0249311D01*
X0064258Y0249924D01*
X0068742Y0249924D01*
X0069354Y0249311D01*
X0070746Y0248735D01*
X0072254Y0248735D01*
X0073646Y0249311D01*
X0074712Y0250377D01*
X0075289Y0251770D01*
X0075289Y0253277D01*
X0074712Y0254670D01*
X0073646Y0255736D01*
X0072254Y0256313D01*
X0072459Y0256227D02*
X0078900Y0256227D01*
X0078900Y0255229D02*
X0074153Y0255229D01*
X0074894Y0254230D02*
X0078900Y0254230D01*
X0078900Y0253232D02*
X0075289Y0253232D01*
X0075289Y0252233D02*
X0078900Y0252233D01*
X0078900Y0251235D02*
X0075067Y0251235D01*
X0074571Y0250236D02*
X0078900Y0250236D01*
X0078900Y0249238D02*
X0073468Y0249238D01*
X0071500Y0252524D02*
X0061500Y0252524D01*
X0064153Y0255229D02*
X0068847Y0255229D01*
X0070541Y0256227D02*
X0062459Y0256227D01*
X0060541Y0256227D02*
X0022241Y0256227D01*
X0022300Y0257226D02*
X0078900Y0257226D01*
X0078900Y0258224D02*
X0022300Y0258224D01*
X0022074Y0259223D02*
X0049568Y0259223D01*
X0048444Y0260221D02*
X0021660Y0260221D01*
X0021006Y0261220D02*
X0047939Y0261220D01*
X0047711Y0262218D02*
X0020008Y0262218D01*
X0020396Y0263217D02*
X0047711Y0263217D01*
X0048100Y0264215D02*
X0043414Y0264215D01*
X0039586Y0264215D02*
X0021394Y0264215D01*
X0021821Y0265214D02*
X0038451Y0265214D01*
X0037942Y0266212D02*
X0022235Y0266212D01*
X0022300Y0267211D02*
X0037711Y0267211D01*
X0037711Y0268210D02*
X0022300Y0268210D01*
X0022080Y0269208D02*
X0038097Y0269208D01*
X0038824Y0270207D02*
X0021667Y0270207D01*
X0022086Y0279193D02*
X0029639Y0279193D01*
X0028474Y0280192D02*
X0021673Y0280192D01*
X0021036Y0281190D02*
X0027951Y0281190D01*
X0027711Y0282189D02*
X0020037Y0282189D01*
X0021827Y0255229D02*
X0058847Y0255229D01*
X0058106Y0254230D02*
X0021409Y0254230D01*
X0020411Y0253232D02*
X0057711Y0253232D01*
X0057711Y0252233D02*
X0019993Y0252233D01*
X0020991Y0251235D02*
X0057933Y0251235D01*
X0058429Y0250236D02*
X0021654Y0250236D01*
X0022068Y0249238D02*
X0059532Y0249238D01*
X0063468Y0249238D02*
X0069532Y0249238D01*
X0069568Y0259223D02*
X0053432Y0259223D01*
X0051500Y0262524D02*
X0071500Y0262524D01*
X0072513Y0271205D02*
X0077945Y0271205D01*
X0081500Y0272524D02*
X0081500Y0237524D01*
X0084131Y0240251D02*
X0085700Y0240251D01*
X0085700Y0240121D02*
X0089098Y0236724D01*
X0093902Y0236724D01*
X0096500Y0239321D01*
X0099098Y0236724D01*
X0103902Y0236724D01*
X0106500Y0239321D01*
X0109098Y0236724D01*
X0113902Y0236724D01*
X0116500Y0239321D01*
X0119098Y0236724D01*
X0123902Y0236724D01*
X0126924Y0239745D01*
X0129346Y0237324D01*
X0131000Y0237324D01*
X0131000Y0242024D01*
X0132000Y0242024D01*
X0132000Y0243024D01*
X0136700Y0243024D01*
X0136700Y0244678D01*
X0134278Y0247099D01*
X0137300Y0250121D01*
X0137300Y0254926D01*
X0133902Y0258324D01*
X0129098Y0258324D01*
X0126500Y0255726D01*
X0123902Y0258324D01*
X0119098Y0258324D01*
X0116500Y0255726D01*
X0113902Y0258324D01*
X0109098Y0258324D01*
X0106500Y0255726D01*
X0103902Y0258324D01*
X0099098Y0258324D01*
X0096500Y0255726D01*
X0093902Y0258324D01*
X0089098Y0258324D01*
X0085700Y0254926D01*
X0085700Y0250121D01*
X0088298Y0247524D01*
X0085700Y0244926D01*
X0085700Y0240121D01*
X0085700Y0241250D02*
X0084100Y0241250D01*
X0084100Y0242248D02*
X0085700Y0242248D01*
X0085700Y0243247D02*
X0084100Y0243247D01*
X0084100Y0244245D02*
X0085700Y0244245D01*
X0086018Y0245244D02*
X0084100Y0245244D01*
X0084100Y0246242D02*
X0087016Y0246242D01*
X0088015Y0247241D02*
X0084100Y0247241D01*
X0084100Y0248239D02*
X0087582Y0248239D01*
X0086583Y0249238D02*
X0084100Y0249238D01*
X0084100Y0250236D02*
X0085700Y0250236D01*
X0085700Y0251235D02*
X0084100Y0251235D01*
X0084100Y0252233D02*
X0085700Y0252233D01*
X0085700Y0253232D02*
X0084100Y0253232D01*
X0084100Y0254230D02*
X0085700Y0254230D01*
X0086003Y0255229D02*
X0084100Y0255229D01*
X0084100Y0256227D02*
X0087001Y0256227D01*
X0088000Y0257226D02*
X0084100Y0257226D01*
X0084100Y0258224D02*
X0088998Y0258224D01*
X0084100Y0259223D02*
X0148103Y0259223D01*
X0148288Y0259670D02*
X0147711Y0258277D01*
X0147711Y0256770D01*
X0148200Y0255589D01*
X0148200Y0239458D01*
X0147711Y0238277D01*
X0147711Y0236770D01*
X0148288Y0235377D01*
X0149354Y0234311D01*
X0150746Y0233735D01*
X0152254Y0233735D01*
X0153646Y0234311D01*
X0154712Y0235377D01*
X0155289Y0236770D01*
X0155289Y0238277D01*
X0154800Y0239458D01*
X0154800Y0255589D01*
X0155289Y0256770D01*
X0155289Y0258277D01*
X0154712Y0259670D01*
X0153646Y0260736D01*
X0152254Y0261313D01*
X0150746Y0261313D01*
X0149354Y0260736D01*
X0148288Y0259670D01*
X0148839Y0260221D02*
X0084100Y0260221D01*
X0084100Y0261220D02*
X0150523Y0261220D01*
X0152477Y0261220D02*
X0201994Y0261220D01*
X0201340Y0260221D02*
X0154161Y0260221D01*
X0154897Y0259223D02*
X0200926Y0259223D01*
X0200700Y0258224D02*
X0155289Y0258224D01*
X0155289Y0257226D02*
X0200700Y0257226D01*
X0200759Y0256227D02*
X0155064Y0256227D01*
X0154800Y0255229D02*
X0201173Y0255229D01*
X0201591Y0254230D02*
X0154800Y0254230D01*
X0154800Y0253232D02*
X0202589Y0253232D01*
X0203007Y0252233D02*
X0154800Y0252233D01*
X0154800Y0251235D02*
X0160559Y0251235D01*
X0160746Y0251313D02*
X0159354Y0250736D01*
X0158288Y0249670D01*
X0157711Y0248277D01*
X0157711Y0246770D01*
X0158200Y0245589D01*
X0158200Y0239458D01*
X0157711Y0238277D01*
X0157711Y0236770D01*
X0158288Y0235377D01*
X0159354Y0234311D01*
X0160746Y0233735D01*
X0162254Y0233735D01*
X0163646Y0234311D01*
X0164712Y0235377D01*
X0165289Y0236770D01*
X0165289Y0238277D01*
X0164800Y0239458D01*
X0164800Y0245589D01*
X0165289Y0246770D01*
X0165289Y0248277D01*
X0164712Y0249670D01*
X0163646Y0250736D01*
X0162254Y0251313D01*
X0160746Y0251313D01*
X0162441Y0251235D02*
X0202009Y0251235D01*
X0201346Y0250236D02*
X0164146Y0250236D01*
X0164891Y0249238D02*
X0200932Y0249238D01*
X0200700Y0248239D02*
X0165289Y0248239D01*
X0165289Y0247241D02*
X0200700Y0247241D01*
X0200753Y0246242D02*
X0165070Y0246242D01*
X0164800Y0245244D02*
X0201166Y0245244D01*
X0201580Y0244245D02*
X0164800Y0244245D01*
X0164800Y0243247D02*
X0202574Y0243247D01*
X0203022Y0242248D02*
X0164800Y0242248D01*
X0164800Y0241250D02*
X0202024Y0241250D01*
X0201352Y0240251D02*
X0164800Y0240251D01*
X0164885Y0239253D02*
X0200938Y0239253D01*
X0200700Y0238254D02*
X0165289Y0238254D01*
X0165289Y0237256D02*
X0200700Y0237256D01*
X0200747Y0236257D02*
X0165077Y0236257D01*
X0164593Y0235259D02*
X0201160Y0235259D01*
X0201574Y0234260D02*
X0163522Y0234260D01*
X0159478Y0234260D02*
X0153522Y0234260D01*
X0154593Y0235259D02*
X0158407Y0235259D01*
X0157923Y0236257D02*
X0155077Y0236257D01*
X0155289Y0237256D02*
X0157711Y0237256D01*
X0157711Y0238254D02*
X0155289Y0238254D01*
X0154885Y0239253D02*
X0158115Y0239253D01*
X0158200Y0240251D02*
X0154800Y0240251D01*
X0154800Y0241250D02*
X0158200Y0241250D01*
X0158200Y0242248D02*
X0154800Y0242248D01*
X0154800Y0243247D02*
X0158200Y0243247D01*
X0158200Y0244245D02*
X0154800Y0244245D01*
X0154800Y0245244D02*
X0158200Y0245244D01*
X0157930Y0246242D02*
X0154800Y0246242D01*
X0154800Y0247241D02*
X0157711Y0247241D01*
X0157711Y0248239D02*
X0154800Y0248239D01*
X0154800Y0249238D02*
X0158109Y0249238D01*
X0158854Y0250236D02*
X0154800Y0250236D01*
X0148200Y0250236D02*
X0137300Y0250236D01*
X0137300Y0251235D02*
X0148200Y0251235D01*
X0148200Y0252233D02*
X0137300Y0252233D01*
X0137300Y0253232D02*
X0148200Y0253232D01*
X0148200Y0254230D02*
X0137300Y0254230D01*
X0136997Y0255229D02*
X0148200Y0255229D01*
X0147936Y0256227D02*
X0135999Y0256227D01*
X0135000Y0257226D02*
X0147711Y0257226D01*
X0147711Y0258224D02*
X0134002Y0258224D01*
X0128998Y0258224D02*
X0124002Y0258224D01*
X0125000Y0257226D02*
X0128000Y0257226D01*
X0127001Y0256227D02*
X0125999Y0256227D01*
X0118998Y0258224D02*
X0114002Y0258224D01*
X0115000Y0257226D02*
X0118000Y0257226D01*
X0117001Y0256227D02*
X0115999Y0256227D01*
X0108998Y0258224D02*
X0104002Y0258224D01*
X0105000Y0257226D02*
X0108000Y0257226D01*
X0107001Y0256227D02*
X0105999Y0256227D01*
X0098998Y0258224D02*
X0094002Y0258224D01*
X0095000Y0257226D02*
X0098000Y0257226D01*
X0097001Y0256227D02*
X0095999Y0256227D01*
X0096431Y0239253D02*
X0096569Y0239253D01*
X0097567Y0238254D02*
X0095433Y0238254D01*
X0094434Y0237256D02*
X0098566Y0237256D01*
X0104434Y0237256D02*
X0108566Y0237256D01*
X0107567Y0238254D02*
X0105433Y0238254D01*
X0106431Y0239253D02*
X0106569Y0239253D01*
X0114434Y0237256D02*
X0118566Y0237256D01*
X0117567Y0238254D02*
X0115433Y0238254D01*
X0116431Y0239253D02*
X0116569Y0239253D01*
X0120630Y0231265D02*
X0032370Y0231265D01*
X0030630Y0231265D02*
X0020961Y0231265D01*
X0021642Y0230266D02*
X0028884Y0230266D01*
X0028121Y0229268D02*
X0022055Y0229268D01*
X0022300Y0228269D02*
X0027711Y0228269D01*
X0027711Y0227271D02*
X0022300Y0227271D01*
X0022259Y0226272D02*
X0027917Y0226272D01*
X0028392Y0225274D02*
X0021846Y0225274D01*
X0021432Y0224275D02*
X0029442Y0224275D01*
X0030666Y0221279D02*
X0020947Y0221279D01*
X0021636Y0220281D02*
X0028899Y0220281D01*
X0029354Y0220736D02*
X0028288Y0219670D01*
X0027711Y0218277D01*
X0027711Y0216770D01*
X0028288Y0215377D01*
X0029354Y0214311D01*
X0030746Y0213735D01*
X0031612Y0213735D01*
X0037711Y0207636D01*
X0037711Y0206770D01*
X0038288Y0205377D01*
X0039354Y0204311D01*
X0040746Y0203735D01*
X0042254Y0203735D01*
X0043646Y0204311D01*
X0044712Y0205377D01*
X0045289Y0206770D01*
X0045289Y0208277D01*
X0044712Y0209670D01*
X0043646Y0210736D01*
X0042254Y0211313D01*
X0041388Y0211313D01*
X0035289Y0217412D01*
X0035289Y0218277D01*
X0034712Y0219670D01*
X0033646Y0220736D01*
X0032254Y0221313D01*
X0030746Y0221313D01*
X0029354Y0220736D01*
X0028127Y0219282D02*
X0022049Y0219282D01*
X0022300Y0218284D02*
X0027714Y0218284D01*
X0027711Y0217285D02*
X0022300Y0217285D01*
X0022266Y0216287D02*
X0027911Y0216287D01*
X0028377Y0215288D02*
X0021852Y0215288D01*
X0021438Y0214290D02*
X0029406Y0214290D01*
X0032055Y0213291D02*
X0020470Y0213291D01*
X0019933Y0212293D02*
X0033054Y0212293D01*
X0034052Y0211294D02*
X0020932Y0211294D01*
X0021630Y0210296D02*
X0035051Y0210296D01*
X0036049Y0209297D02*
X0023403Y0209297D01*
X0024402Y0208299D02*
X0037048Y0208299D01*
X0037711Y0207300D02*
X0025400Y0207300D01*
X0026399Y0206302D02*
X0037905Y0206302D01*
X0038362Y0205303D02*
X0027397Y0205303D01*
X0028396Y0204305D02*
X0039370Y0204305D01*
X0041500Y0207524D02*
X0031500Y0217524D01*
X0034101Y0220281D02*
X0038899Y0220281D01*
X0039354Y0220736D02*
X0038288Y0219670D01*
X0037711Y0218277D01*
X0037711Y0216770D01*
X0038288Y0215377D01*
X0039354Y0214311D01*
X0040746Y0213735D01*
X0042254Y0213735D01*
X0043646Y0214311D01*
X0044258Y0214924D01*
X0048542Y0214924D01*
X0048288Y0214670D01*
X0047711Y0213277D01*
X0047711Y0211770D01*
X0048288Y0210377D01*
X0049354Y0209311D01*
X0050746Y0208735D01*
X0052254Y0208735D01*
X0053646Y0209311D01*
X0054258Y0209924D01*
X0068742Y0209924D01*
X0069354Y0209311D01*
X0070746Y0208735D01*
X0072254Y0208735D01*
X0073646Y0209311D01*
X0074712Y0210377D01*
X0075289Y0211770D01*
X0075289Y0213277D01*
X0074712Y0214670D01*
X0074358Y0215024D01*
X0074712Y0215377D01*
X0075289Y0216770D01*
X0075289Y0218277D01*
X0074712Y0219670D01*
X0073646Y0220736D01*
X0072254Y0221313D01*
X0070746Y0221313D01*
X0069354Y0220736D01*
X0068742Y0220124D01*
X0044258Y0220124D01*
X0043646Y0220736D01*
X0042254Y0221313D01*
X0040746Y0221313D01*
X0039354Y0220736D01*
X0040666Y0221279D02*
X0032334Y0221279D01*
X0034873Y0219282D02*
X0038127Y0219282D01*
X0037714Y0218284D02*
X0035286Y0218284D01*
X0035415Y0217285D02*
X0037711Y0217285D01*
X0037911Y0216287D02*
X0036414Y0216287D01*
X0037412Y0215288D02*
X0038377Y0215288D01*
X0038411Y0214290D02*
X0039406Y0214290D01*
X0039409Y0213291D02*
X0047717Y0213291D01*
X0047711Y0212293D02*
X0040408Y0212293D01*
X0042298Y0211294D02*
X0047908Y0211294D01*
X0048369Y0210296D02*
X0044086Y0210296D01*
X0044866Y0209297D02*
X0049388Y0209297D01*
X0051500Y0212524D02*
X0071500Y0212524D01*
X0075289Y0212293D02*
X0078900Y0212293D01*
X0078900Y0213291D02*
X0075283Y0213291D01*
X0074870Y0214290D02*
X0078900Y0214290D01*
X0078900Y0215288D02*
X0074623Y0215288D01*
X0075089Y0216287D02*
X0078900Y0216287D01*
X0078900Y0217285D02*
X0075289Y0217285D01*
X0075286Y0218284D02*
X0078900Y0218284D01*
X0078900Y0219282D02*
X0074873Y0219282D01*
X0074101Y0220281D02*
X0078384Y0220281D01*
X0077914Y0221279D02*
X0072334Y0221279D01*
X0070666Y0221279D02*
X0042334Y0221279D01*
X0044101Y0220281D02*
X0068899Y0220281D01*
X0071500Y0217524D02*
X0041500Y0217524D01*
X0043594Y0214290D02*
X0048130Y0214290D01*
X0045280Y0208299D02*
X0078900Y0208299D01*
X0078900Y0209297D02*
X0073612Y0209297D01*
X0074631Y0210296D02*
X0078900Y0210296D01*
X0078900Y0211294D02*
X0075092Y0211294D01*
X0072280Y0206302D02*
X0078900Y0206302D01*
X0078900Y0207300D02*
X0045289Y0207300D01*
X0045095Y0206302D02*
X0060720Y0206302D01*
X0062280Y0206302D02*
X0070720Y0206302D01*
X0068921Y0205303D02*
X0064079Y0205303D01*
X0061500Y0202524D02*
X0071500Y0202524D01*
X0074079Y0205303D02*
X0078900Y0205303D01*
X0078900Y0204305D02*
X0074863Y0204305D01*
X0075277Y0203306D02*
X0078900Y0203306D01*
X0078900Y0202308D02*
X0075289Y0202308D01*
X0075098Y0201309D02*
X0078900Y0201309D01*
X0078900Y0200311D02*
X0074646Y0200311D01*
X0073647Y0199312D02*
X0078900Y0199312D01*
X0078900Y0198314D02*
X0063987Y0198314D01*
X0064100Y0197315D02*
X0078900Y0197315D01*
X0078900Y0196317D02*
X0064100Y0196317D01*
X0064100Y0195318D02*
X0078900Y0195318D01*
X0078900Y0194320D02*
X0064100Y0194320D01*
X0064100Y0193321D02*
X0078900Y0193321D01*
X0078900Y0192323D02*
X0064100Y0192323D01*
X0064100Y0191324D02*
X0078900Y0191324D01*
X0078900Y0190326D02*
X0069056Y0190326D01*
X0069854Y0189327D02*
X0078146Y0189327D01*
X0077732Y0188329D02*
X0070268Y0188329D01*
X0070289Y0187330D02*
X0077711Y0187330D01*
X0077893Y0186332D02*
X0070107Y0186332D01*
X0071500Y0182524D02*
X0116500Y0182524D01*
X0119049Y0185333D02*
X0148332Y0185333D01*
X0148288Y0185377D02*
X0149354Y0184311D01*
X0150746Y0183735D01*
X0152254Y0183735D01*
X0153646Y0184311D01*
X0154712Y0185377D01*
X0155289Y0186770D01*
X0155289Y0188277D01*
X0154800Y0189458D01*
X0154800Y0205589D01*
X0155289Y0206770D01*
X0155289Y0208277D01*
X0154712Y0209670D01*
X0153646Y0210736D01*
X0152254Y0211313D01*
X0150746Y0211313D01*
X0149354Y0210736D01*
X0148288Y0209670D01*
X0147711Y0208277D01*
X0147711Y0206770D01*
X0148200Y0205589D01*
X0148200Y0189458D01*
X0147711Y0188277D01*
X0147711Y0186770D01*
X0148288Y0185377D01*
X0147893Y0186332D02*
X0085107Y0186332D01*
X0085289Y0187330D02*
X0088491Y0187330D01*
X0089098Y0186724D02*
X0093902Y0186724D01*
X0096500Y0189321D01*
X0099098Y0186724D01*
X0103902Y0186724D01*
X0106500Y0189321D01*
X0109098Y0186724D01*
X0113902Y0186724D01*
X0116500Y0189321D01*
X0119098Y0186724D01*
X0123902Y0186724D01*
X0126924Y0189745D01*
X0129346Y0187324D01*
X0131000Y0187324D01*
X0131000Y0192024D01*
X0132000Y0192024D01*
X0132000Y0193024D01*
X0136700Y0193024D01*
X0136700Y0194678D01*
X0134278Y0197099D01*
X0137300Y0200121D01*
X0137300Y0204926D01*
X0133902Y0208324D01*
X0129098Y0208324D01*
X0126500Y0205726D01*
X0123902Y0208324D01*
X0119098Y0208324D01*
X0116500Y0205726D01*
X0113902Y0208324D01*
X0109098Y0208324D01*
X0106500Y0205726D01*
X0103902Y0208324D01*
X0099098Y0208324D01*
X0096500Y0205726D01*
X0093902Y0208324D01*
X0089098Y0208324D01*
X0085700Y0204926D01*
X0085700Y0200121D01*
X0088298Y0197524D01*
X0085700Y0194926D01*
X0085700Y0190121D01*
X0089098Y0186724D01*
X0087493Y0188329D02*
X0085268Y0188329D01*
X0084854Y0189327D02*
X0086494Y0189327D01*
X0085700Y0190326D02*
X0084100Y0190326D01*
X0084100Y0191324D02*
X0085700Y0191324D01*
X0085700Y0192323D02*
X0084100Y0192323D01*
X0084100Y0193321D02*
X0085700Y0193321D01*
X0085700Y0194320D02*
X0084100Y0194320D01*
X0084100Y0195318D02*
X0086092Y0195318D01*
X0087091Y0196317D02*
X0084100Y0196317D01*
X0084100Y0197315D02*
X0088089Y0197315D01*
X0087507Y0198314D02*
X0084100Y0198314D01*
X0084100Y0199312D02*
X0086509Y0199312D01*
X0085700Y0200311D02*
X0084100Y0200311D01*
X0084100Y0201309D02*
X0085700Y0201309D01*
X0085700Y0202308D02*
X0084100Y0202308D01*
X0084100Y0203306D02*
X0085700Y0203306D01*
X0085700Y0204305D02*
X0084100Y0204305D01*
X0084100Y0205303D02*
X0086077Y0205303D01*
X0087076Y0206302D02*
X0084100Y0206302D01*
X0084100Y0207300D02*
X0088074Y0207300D01*
X0089073Y0208299D02*
X0084100Y0208299D01*
X0084100Y0209297D02*
X0148134Y0209297D01*
X0147720Y0208299D02*
X0133927Y0208299D01*
X0134926Y0207300D02*
X0147711Y0207300D01*
X0147905Y0206302D02*
X0135924Y0206302D01*
X0136923Y0205303D02*
X0148200Y0205303D01*
X0148200Y0204305D02*
X0137300Y0204305D01*
X0137300Y0203306D02*
X0148200Y0203306D01*
X0148200Y0202308D02*
X0137300Y0202308D01*
X0137300Y0201309D02*
X0148200Y0201309D01*
X0148200Y0200311D02*
X0137300Y0200311D01*
X0136491Y0199312D02*
X0148200Y0199312D01*
X0148200Y0198314D02*
X0135493Y0198314D01*
X0134494Y0197315D02*
X0148200Y0197315D01*
X0148200Y0196317D02*
X0135061Y0196317D01*
X0136059Y0195318D02*
X0148200Y0195318D01*
X0148200Y0194320D02*
X0136700Y0194320D01*
X0136700Y0193321D02*
X0148200Y0193321D01*
X0148200Y0192323D02*
X0132000Y0192323D01*
X0132000Y0192024D02*
X0136700Y0192024D01*
X0136700Y0190370D01*
X0133654Y0187324D01*
X0132000Y0187324D01*
X0132000Y0192024D01*
X0132000Y0191324D02*
X0131000Y0191324D01*
X0131000Y0190326D02*
X0132000Y0190326D01*
X0132000Y0189327D02*
X0131000Y0189327D01*
X0131000Y0188329D02*
X0132000Y0188329D01*
X0132000Y0187330D02*
X0131000Y0187330D01*
X0129340Y0187330D02*
X0124509Y0187330D01*
X0125507Y0188329D02*
X0128341Y0188329D01*
X0127343Y0189327D02*
X0126506Y0189327D01*
X0133660Y0187330D02*
X0147711Y0187330D01*
X0147732Y0188329D02*
X0134659Y0188329D01*
X0135657Y0189327D02*
X0148146Y0189327D01*
X0148200Y0190326D02*
X0136656Y0190326D01*
X0136700Y0191324D02*
X0148200Y0191324D01*
X0149331Y0184335D02*
X0119851Y0184335D01*
X0120265Y0183336D02*
X0203417Y0183336D01*
X0203112Y0183557D02*
X0203775Y0183076D01*
X0204212Y0182854D01*
X0203215Y0182441D01*
X0201583Y0180809D01*
X0200700Y0178677D01*
X0200700Y0176370D01*
X0201583Y0174238D01*
X0203215Y0172607D01*
X0203415Y0172524D01*
X0203215Y0172441D01*
X0201583Y0170809D01*
X0200700Y0168677D01*
X0200700Y0166370D01*
X0201583Y0164238D01*
X0203215Y0162607D01*
X0203415Y0162524D01*
X0203215Y0162441D01*
X0201583Y0160809D01*
X0200700Y0158677D01*
X0200700Y0156370D01*
X0201583Y0154238D01*
X0203215Y0152607D01*
X0203415Y0152524D01*
X0203215Y0152441D01*
X0201583Y0150809D01*
X0200700Y0148677D01*
X0200700Y0146370D01*
X0201583Y0144238D01*
X0203215Y0142607D01*
X0203415Y0142524D01*
X0203215Y0142441D01*
X0201583Y0140809D01*
X0200700Y0138677D01*
X0200700Y0136370D01*
X0201583Y0134238D01*
X0203215Y0132607D01*
X0205346Y0131724D01*
X0207654Y0131724D01*
X0209785Y0132607D01*
X0211417Y0134238D01*
X0212300Y0136370D01*
X0212300Y0138677D01*
X0211417Y0140809D01*
X0209785Y0142441D01*
X0209585Y0142524D01*
X0209785Y0142607D01*
X0211417Y0144238D01*
X0212300Y0146370D01*
X0212300Y0148677D01*
X0211417Y0150809D01*
X0209785Y0152441D01*
X0209585Y0152524D01*
X0209785Y0152607D01*
X0211417Y0154238D01*
X0212300Y0156370D01*
X0212300Y0158677D01*
X0211417Y0160809D01*
X0209785Y0162441D01*
X0209585Y0162524D01*
X0209785Y0162607D01*
X0211417Y0164238D01*
X0212300Y0166370D01*
X0212300Y0168677D01*
X0211417Y0170809D01*
X0209785Y0172441D01*
X0209585Y0172524D01*
X0209785Y0172607D01*
X0211417Y0174238D01*
X0212300Y0176370D01*
X0212300Y0178677D01*
X0211417Y0180809D01*
X0209785Y0182441D01*
X0208788Y0182854D01*
X0209225Y0183076D01*
X0209888Y0183557D01*
X0210466Y0184136D01*
X0210947Y0184798D01*
X0211319Y0185528D01*
X0211572Y0186306D01*
X0211686Y0187024D01*
X0207000Y0187024D01*
X0207000Y0188024D01*
X0206000Y0188024D01*
X0206000Y0197024D01*
X0201314Y0197024D01*
X0201428Y0196306D01*
X0201681Y0195528D01*
X0202053Y0194798D01*
X0202534Y0194136D01*
X0203112Y0193557D01*
X0203775Y0193076D01*
X0204504Y0192705D01*
X0205061Y0192524D01*
X0204504Y0192343D01*
X0203775Y0191971D01*
X0203112Y0191490D01*
X0202534Y0190911D01*
X0202053Y0190249D01*
X0201681Y0189520D01*
X0201428Y0188741D01*
X0201314Y0188024D01*
X0206000Y0188024D01*
X0206000Y0187024D01*
X0201314Y0187024D01*
X0201428Y0186306D01*
X0201681Y0185528D01*
X0202053Y0184798D01*
X0202534Y0184136D01*
X0203112Y0183557D01*
X0202389Y0184335D02*
X0163669Y0184335D01*
X0163646Y0184311D02*
X0164712Y0185377D01*
X0165289Y0186770D01*
X0165289Y0188277D01*
X0164800Y0189458D01*
X0164800Y0195589D01*
X0165289Y0196770D01*
X0165289Y0198277D01*
X0164712Y0199670D01*
X0163646Y0200736D01*
X0162254Y0201313D01*
X0160746Y0201313D01*
X0159354Y0200736D01*
X0158288Y0199670D01*
X0157711Y0198277D01*
X0157711Y0196770D01*
X0158200Y0195589D01*
X0158200Y0189458D01*
X0157711Y0188277D01*
X0157711Y0186770D01*
X0158288Y0185377D01*
X0159354Y0184311D01*
X0160746Y0183735D01*
X0162254Y0183735D01*
X0163646Y0184311D01*
X0164668Y0185333D02*
X0201780Y0185333D01*
X0201424Y0186332D02*
X0165107Y0186332D01*
X0165289Y0187330D02*
X0206000Y0187330D01*
X0206000Y0188329D02*
X0207000Y0188329D01*
X0207000Y0188024D02*
X0207000Y0192338D01*
X0207000Y0197024D01*
X0207000Y0198024D01*
X0211686Y0198024D01*
X0211572Y0198741D01*
X0211319Y0199520D01*
X0210947Y0200249D01*
X0210466Y0200911D01*
X0209888Y0201490D01*
X0209225Y0201971D01*
X0208788Y0202194D01*
X0209785Y0202607D01*
X0211417Y0204238D01*
X0212300Y0206370D01*
X0212300Y0208677D01*
X0211417Y0210809D01*
X0209785Y0212441D01*
X0207654Y0213324D01*
X0205346Y0213324D01*
X0203215Y0212441D01*
X0201583Y0210809D01*
X0200700Y0208677D01*
X0200700Y0206370D01*
X0201583Y0204238D01*
X0203215Y0202607D01*
X0204212Y0202194D01*
X0203775Y0201971D01*
X0203112Y0201490D01*
X0202534Y0200911D01*
X0202053Y0200249D01*
X0201681Y0199520D01*
X0201428Y0198741D01*
X0201314Y0198024D01*
X0206000Y0198024D01*
X0206000Y0197024D01*
X0207000Y0197024D01*
X0211686Y0197024D01*
X0211572Y0196306D01*
X0211319Y0195528D01*
X0210947Y0194798D01*
X0210466Y0194136D01*
X0209888Y0193557D01*
X0209225Y0193076D01*
X0208496Y0192705D01*
X0207939Y0192524D01*
X0208496Y0192343D01*
X0209225Y0191971D01*
X0209888Y0191490D01*
X0210466Y0190911D01*
X0210947Y0190249D01*
X0211319Y0189520D01*
X0211572Y0188741D01*
X0211686Y0188024D01*
X0207000Y0188024D01*
X0207000Y0187330D02*
X0216500Y0187330D01*
X0216500Y0186332D02*
X0211576Y0186332D01*
X0211220Y0185333D02*
X0216500Y0185333D01*
X0216500Y0184335D02*
X0210611Y0184335D01*
X0209583Y0183336D02*
X0216500Y0183336D01*
X0216500Y0182338D02*
X0209889Y0182338D01*
X0210887Y0181339D02*
X0216500Y0181339D01*
X0216500Y0180341D02*
X0211611Y0180341D01*
X0212025Y0179342D02*
X0216500Y0179342D01*
X0216500Y0178343D02*
X0212300Y0178343D01*
X0212300Y0177345D02*
X0216500Y0177345D01*
X0216500Y0176346D02*
X0212290Y0176346D01*
X0211877Y0175348D02*
X0216500Y0175348D01*
X0216500Y0174349D02*
X0211463Y0174349D01*
X0210530Y0173351D02*
X0216500Y0173351D01*
X0216500Y0172352D02*
X0209874Y0172352D01*
X0210872Y0171354D02*
X0216500Y0171354D01*
X0216500Y0170355D02*
X0211605Y0170355D01*
X0212019Y0169357D02*
X0216500Y0169357D01*
X0216500Y0168358D02*
X0212300Y0168358D01*
X0212300Y0167360D02*
X0216500Y0167360D01*
X0216500Y0166361D02*
X0212296Y0166361D01*
X0211883Y0165363D02*
X0216500Y0165363D01*
X0216500Y0164364D02*
X0211469Y0164364D01*
X0210545Y0163366D02*
X0216500Y0163366D01*
X0216500Y0162367D02*
X0209859Y0162367D01*
X0210857Y0161369D02*
X0216500Y0161369D01*
X0216500Y0160370D02*
X0211599Y0160370D01*
X0212012Y0159372D02*
X0216500Y0159372D01*
X0216500Y0158373D02*
X0212300Y0158373D01*
X0212300Y0157375D02*
X0216500Y0157375D01*
X0216500Y0156376D02*
X0212300Y0156376D01*
X0211889Y0155378D02*
X0216500Y0155378D01*
X0216500Y0154379D02*
X0211475Y0154379D01*
X0210560Y0153381D02*
X0216500Y0153381D01*
X0216500Y0152382D02*
X0209844Y0152382D01*
X0210842Y0151384D02*
X0216500Y0151384D01*
X0216500Y0150385D02*
X0211593Y0150385D01*
X0212006Y0149387D02*
X0216500Y0149387D01*
X0216500Y0148388D02*
X0212300Y0148388D01*
X0212300Y0147390D02*
X0216500Y0147390D01*
X0216500Y0146391D02*
X0212300Y0146391D01*
X0211895Y0145393D02*
X0216500Y0145393D01*
X0216500Y0144394D02*
X0211482Y0144394D01*
X0210574Y0143396D02*
X0216500Y0143396D01*
X0216500Y0142397D02*
X0209829Y0142397D01*
X0210827Y0141399D02*
X0216500Y0141399D01*
X0216500Y0140400D02*
X0211586Y0140400D01*
X0212000Y0139402D02*
X0216500Y0139402D01*
X0216500Y0138403D02*
X0212300Y0138403D01*
X0212300Y0137405D02*
X0216500Y0137405D01*
X0216500Y0136406D02*
X0212300Y0136406D01*
X0211901Y0135408D02*
X0216500Y0135408D01*
X0216500Y0134409D02*
X0211488Y0134409D01*
X0210589Y0133410D02*
X0216500Y0133410D01*
X0216500Y0132412D02*
X0209316Y0132412D01*
X0203684Y0132412D02*
X0064100Y0132412D01*
X0064100Y0133410D02*
X0202411Y0133410D01*
X0201512Y0134409D02*
X0163744Y0134409D01*
X0163646Y0134311D02*
X0164712Y0135377D01*
X0165289Y0136770D01*
X0165289Y0138277D01*
X0164800Y0139458D01*
X0164800Y0145589D01*
X0165289Y0146770D01*
X0165289Y0148277D01*
X0164712Y0149670D01*
X0163646Y0150736D01*
X0162254Y0151313D01*
X0160746Y0151313D01*
X0159354Y0150736D01*
X0158288Y0149670D01*
X0157711Y0148277D01*
X0157711Y0146770D01*
X0158200Y0145589D01*
X0158200Y0139458D01*
X0157711Y0138277D01*
X0157711Y0136770D01*
X0158288Y0135377D01*
X0159354Y0134311D01*
X0160746Y0133735D01*
X0162254Y0133735D01*
X0163646Y0134311D01*
X0164725Y0135408D02*
X0201099Y0135408D01*
X0200700Y0136406D02*
X0165138Y0136406D01*
X0165289Y0137405D02*
X0200700Y0137405D01*
X0200700Y0138403D02*
X0165237Y0138403D01*
X0164823Y0139402D02*
X0201000Y0139402D01*
X0201414Y0140400D02*
X0164800Y0140400D01*
X0164800Y0141399D02*
X0202173Y0141399D01*
X0203171Y0142397D02*
X0164800Y0142397D01*
X0164800Y0143396D02*
X0202426Y0143396D01*
X0201518Y0144394D02*
X0164800Y0144394D01*
X0164800Y0145393D02*
X0201105Y0145393D01*
X0200700Y0146391D02*
X0165132Y0146391D01*
X0165289Y0147390D02*
X0200700Y0147390D01*
X0200700Y0148388D02*
X0165243Y0148388D01*
X0164829Y0149387D02*
X0200994Y0149387D01*
X0201407Y0150385D02*
X0163997Y0150385D01*
X0159003Y0150385D02*
X0154800Y0150385D01*
X0154800Y0149387D02*
X0158171Y0149387D01*
X0157757Y0148388D02*
X0154800Y0148388D01*
X0154800Y0147390D02*
X0157711Y0147390D01*
X0157868Y0146391D02*
X0154800Y0146391D01*
X0154800Y0145393D02*
X0158200Y0145393D01*
X0158200Y0144394D02*
X0154800Y0144394D01*
X0154800Y0143396D02*
X0158200Y0143396D01*
X0158200Y0142397D02*
X0154800Y0142397D01*
X0154800Y0141399D02*
X0158200Y0141399D01*
X0158200Y0140400D02*
X0154800Y0140400D01*
X0154800Y0139458D02*
X0154800Y0160589D01*
X0155289Y0161770D01*
X0155289Y0163277D01*
X0154712Y0164670D01*
X0153646Y0165736D01*
X0152254Y0166313D01*
X0150746Y0166313D01*
X0149354Y0165736D01*
X0148288Y0164670D01*
X0147711Y0163277D01*
X0147711Y0161770D01*
X0148200Y0160589D01*
X0148200Y0139458D01*
X0147711Y0138277D01*
X0147711Y0136770D01*
X0148288Y0135377D01*
X0149354Y0134311D01*
X0150746Y0133735D01*
X0152254Y0133735D01*
X0153646Y0134311D01*
X0154712Y0135377D01*
X0155289Y0136770D01*
X0155289Y0138277D01*
X0154800Y0139458D01*
X0154823Y0139402D02*
X0158177Y0139402D01*
X0157763Y0138403D02*
X0155237Y0138403D01*
X0155289Y0137405D02*
X0157711Y0137405D01*
X0157862Y0136406D02*
X0155138Y0136406D01*
X0154725Y0135408D02*
X0158275Y0135408D01*
X0159256Y0134409D02*
X0153744Y0134409D01*
X0149256Y0134409D02*
X0083744Y0134409D01*
X0084725Y0135408D02*
X0148275Y0135408D01*
X0147862Y0136406D02*
X0085138Y0136406D01*
X0085289Y0137405D02*
X0088417Y0137405D01*
X0089098Y0136724D02*
X0093902Y0136724D01*
X0096500Y0139321D01*
X0099098Y0136724D01*
X0103902Y0136724D01*
X0106500Y0139321D01*
X0109098Y0136724D01*
X0113902Y0136724D01*
X0116500Y0139321D01*
X0119098Y0136724D01*
X0123902Y0136724D01*
X0126924Y0139745D01*
X0129346Y0137324D01*
X0131000Y0137324D01*
X0131000Y0142024D01*
X0132000Y0142024D01*
X0132000Y0143024D01*
X0136700Y0143024D01*
X0136700Y0144678D01*
X0134278Y0147099D01*
X0137300Y0150121D01*
X0137300Y0154926D01*
X0133902Y0158324D01*
X0129098Y0158324D01*
X0126500Y0155726D01*
X0123902Y0158324D01*
X0119098Y0158324D01*
X0116500Y0155726D01*
X0113902Y0158324D01*
X0109098Y0158324D01*
X0106500Y0155726D01*
X0103902Y0158324D01*
X0099098Y0158324D01*
X0096500Y0155726D01*
X0093902Y0158324D01*
X0089098Y0158324D01*
X0085700Y0154926D01*
X0085700Y0150121D01*
X0088298Y0147524D01*
X0085700Y0144926D01*
X0085700Y0140121D01*
X0089098Y0136724D01*
X0087418Y0138403D02*
X0085237Y0138403D01*
X0084823Y0139402D02*
X0086420Y0139402D01*
X0085700Y0140400D02*
X0084100Y0140400D01*
X0084100Y0141399D02*
X0085700Y0141399D01*
X0085700Y0142397D02*
X0084100Y0142397D01*
X0084100Y0143396D02*
X0085700Y0143396D01*
X0085700Y0144394D02*
X0084100Y0144394D01*
X0084100Y0145393D02*
X0086167Y0145393D01*
X0087165Y0146391D02*
X0084100Y0146391D01*
X0084100Y0147390D02*
X0088164Y0147390D01*
X0087433Y0148388D02*
X0084100Y0148388D01*
X0084100Y0149387D02*
X0086435Y0149387D01*
X0085700Y0150385D02*
X0084100Y0150385D01*
X0084100Y0151384D02*
X0085700Y0151384D01*
X0085700Y0152382D02*
X0084100Y0152382D01*
X0084100Y0153381D02*
X0085700Y0153381D01*
X0085700Y0154379D02*
X0084100Y0154379D01*
X0084100Y0155378D02*
X0086152Y0155378D01*
X0087150Y0156376D02*
X0084100Y0156376D01*
X0084100Y0157375D02*
X0088149Y0157375D01*
X0084100Y0158373D02*
X0148200Y0158373D01*
X0148200Y0157375D02*
X0134851Y0157375D01*
X0135850Y0156376D02*
X0148200Y0156376D01*
X0148200Y0155378D02*
X0136848Y0155378D01*
X0137300Y0154379D02*
X0148200Y0154379D01*
X0148200Y0153381D02*
X0137300Y0153381D01*
X0137300Y0152382D02*
X0148200Y0152382D01*
X0148200Y0151384D02*
X0137300Y0151384D01*
X0137300Y0150385D02*
X0148200Y0150385D01*
X0148200Y0149387D02*
X0136565Y0149387D01*
X0135567Y0148388D02*
X0148200Y0148388D01*
X0148200Y0147390D02*
X0134568Y0147390D01*
X0134986Y0146391D02*
X0148200Y0146391D01*
X0148200Y0145393D02*
X0135985Y0145393D01*
X0136700Y0144394D02*
X0148200Y0144394D01*
X0148200Y0143396D02*
X0136700Y0143396D01*
X0136700Y0142024D02*
X0132000Y0142024D01*
X0132000Y0137324D01*
X0133654Y0137324D01*
X0136700Y0140370D01*
X0136700Y0142024D01*
X0136700Y0141399D02*
X0148200Y0141399D01*
X0148200Y0142397D02*
X0132000Y0142397D01*
X0132000Y0141399D02*
X0131000Y0141399D01*
X0131000Y0140400D02*
X0132000Y0140400D01*
X0132000Y0139402D02*
X0131000Y0139402D01*
X0131000Y0138403D02*
X0132000Y0138403D01*
X0132000Y0137405D02*
X0131000Y0137405D01*
X0129265Y0137405D02*
X0124583Y0137405D01*
X0125582Y0138403D02*
X0128267Y0138403D01*
X0127268Y0139402D02*
X0126580Y0139402D01*
X0133735Y0137405D02*
X0147711Y0137405D01*
X0147763Y0138403D02*
X0134733Y0138403D01*
X0135732Y0139402D02*
X0148177Y0139402D01*
X0148200Y0140400D02*
X0136700Y0140400D01*
X0127150Y0156376D02*
X0125850Y0156376D01*
X0124851Y0157375D02*
X0128149Y0157375D01*
X0118149Y0157375D02*
X0114851Y0157375D01*
X0115850Y0156376D02*
X0117150Y0156376D01*
X0108149Y0157375D02*
X0104851Y0157375D01*
X0105850Y0156376D02*
X0107150Y0156376D01*
X0098149Y0157375D02*
X0094851Y0157375D01*
X0095850Y0156376D02*
X0097150Y0156376D01*
X0097418Y0138403D02*
X0095582Y0138403D01*
X0094583Y0137405D02*
X0098417Y0137405D01*
X0104583Y0137405D02*
X0108417Y0137405D01*
X0107418Y0138403D02*
X0105582Y0138403D01*
X0114583Y0137405D02*
X0118417Y0137405D01*
X0117418Y0138403D02*
X0115582Y0138403D01*
X0114033Y0130415D02*
X0064100Y0130415D01*
X0064100Y0131413D02*
X0216500Y0131413D01*
X0216500Y0130415D02*
X0118967Y0130415D01*
X0119817Y0129416D02*
X0216500Y0129416D01*
X0216500Y0128418D02*
X0120231Y0128418D01*
X0120289Y0127419D02*
X0216500Y0127419D01*
X0216500Y0126421D02*
X0120144Y0126421D01*
X0119731Y0125422D02*
X0216500Y0125422D01*
X0216500Y0124424D02*
X0118759Y0124424D01*
X0118223Y0107449D02*
X0114777Y0107449D01*
X0115775Y0106451D02*
X0117225Y0106451D01*
X0124777Y0107449D02*
X0128223Y0107449D01*
X0127225Y0106451D02*
X0125775Y0106451D01*
X0134777Y0107449D02*
X0216500Y0107449D01*
X0216500Y0106451D02*
X0135775Y0106451D01*
X0136774Y0105452D02*
X0216500Y0105452D01*
X0216500Y0104454D02*
X0137300Y0104454D01*
X0137300Y0103455D02*
X0216500Y0103455D01*
X0216500Y0102457D02*
X0137300Y0102457D01*
X0137300Y0101458D02*
X0216500Y0101458D01*
X0216500Y0100460D02*
X0137300Y0100460D01*
X0136640Y0099461D02*
X0216500Y0099461D01*
X0216500Y0098463D02*
X0135641Y0098463D01*
X0134643Y0097464D02*
X0216500Y0097464D01*
X0216500Y0096466D02*
X0134912Y0096466D01*
X0135910Y0095467D02*
X0216500Y0095467D01*
X0216500Y0094469D02*
X0136700Y0094469D01*
X0136700Y0093470D02*
X0216500Y0093470D01*
X0216500Y0092472D02*
X0132000Y0092472D01*
X0132000Y0092024D02*
X0136700Y0092024D01*
X0136700Y0090370D01*
X0133654Y0087324D01*
X0132000Y0087324D01*
X0132000Y0092024D01*
X0132000Y0091473D02*
X0131000Y0091473D01*
X0131000Y0090474D02*
X0132000Y0090474D01*
X0132000Y0089476D02*
X0131000Y0089476D01*
X0131000Y0088477D02*
X0132000Y0088477D01*
X0132000Y0087479D02*
X0131000Y0087479D01*
X0129191Y0087479D02*
X0124658Y0087479D01*
X0125656Y0088477D02*
X0128192Y0088477D01*
X0127194Y0089476D02*
X0126655Y0089476D01*
X0118342Y0087479D02*
X0114658Y0087479D01*
X0115656Y0088477D02*
X0117344Y0088477D01*
X0108342Y0087479D02*
X0104658Y0087479D01*
X0105656Y0088477D02*
X0107344Y0088477D01*
X0098342Y0087479D02*
X0094658Y0087479D01*
X0095656Y0088477D02*
X0097344Y0088477D01*
X0097225Y0106451D02*
X0095775Y0106451D01*
X0094777Y0107449D02*
X0098223Y0107449D01*
X0104777Y0107449D02*
X0108223Y0107449D01*
X0107225Y0106451D02*
X0105775Y0106451D01*
X0081500Y0122524D02*
X0081500Y0087524D01*
X0079182Y0084483D02*
X0006500Y0084483D01*
X0006500Y0085482D02*
X0078245Y0085482D01*
X0077831Y0086480D02*
X0006500Y0086480D01*
X0006500Y0087479D02*
X0077711Y0087479D01*
X0077794Y0088477D02*
X0006500Y0088477D01*
X0006500Y0089476D02*
X0078208Y0089476D01*
X0078900Y0090474D02*
X0006500Y0090474D01*
X0006500Y0091473D02*
X0078900Y0091473D01*
X0078900Y0092472D02*
X0006500Y0092472D01*
X0006500Y0093470D02*
X0078900Y0093470D01*
X0078900Y0094469D02*
X0006500Y0094469D01*
X0006500Y0095467D02*
X0078900Y0095467D01*
X0078900Y0096466D02*
X0006500Y0096466D01*
X0006500Y0097464D02*
X0013559Y0097464D01*
X0013215Y0097607D02*
X0015346Y0096724D01*
X0017654Y0096724D01*
X0019785Y0097607D01*
X0021417Y0099238D01*
X0022300Y0101370D01*
X0022300Y0103677D01*
X0021417Y0105809D01*
X0019785Y0107441D01*
X0019585Y0107524D01*
X0019785Y0107607D01*
X0021417Y0109238D01*
X0022300Y0111370D01*
X0022300Y0113677D01*
X0021417Y0115809D01*
X0019785Y0117441D01*
X0019585Y0117524D01*
X0019785Y0117607D01*
X0021417Y0119238D01*
X0022300Y0121370D01*
X0022300Y0123677D01*
X0021417Y0125809D01*
X0019785Y0127441D01*
X0018788Y0127854D01*
X0019225Y0128076D01*
X0019888Y0128557D01*
X0020466Y0129136D01*
X0020947Y0129798D01*
X0021319Y0130528D01*
X0021572Y0131306D01*
X0021686Y0132024D01*
X0017000Y0132024D01*
X0017000Y0133024D01*
X0021686Y0133024D01*
X0021572Y0133741D01*
X0021319Y0134520D01*
X0020947Y0135249D01*
X0020466Y0135911D01*
X0019888Y0136490D01*
X0019225Y0136971D01*
X0018788Y0137194D01*
X0019785Y0137607D01*
X0021417Y0139238D01*
X0022300Y0141370D01*
X0022300Y0143677D01*
X0021417Y0145809D01*
X0019785Y0147441D01*
X0019585Y0147524D01*
X0019785Y0147607D01*
X0021417Y0149238D01*
X0022300Y0151370D01*
X0022300Y0153677D01*
X0021417Y0155809D01*
X0019785Y0157441D01*
X0019585Y0157524D01*
X0019785Y0157607D01*
X0021417Y0159238D01*
X0022300Y0161370D01*
X0022300Y0163677D01*
X0021417Y0165809D01*
X0019785Y0167441D01*
X0019585Y0167524D01*
X0019785Y0167607D01*
X0021417Y0169238D01*
X0022300Y0171370D01*
X0022300Y0173677D01*
X0021417Y0175809D01*
X0019785Y0177441D01*
X0019585Y0177524D01*
X0019785Y0177607D01*
X0021417Y0179238D01*
X0022300Y0181370D01*
X0022300Y0183677D01*
X0021417Y0185809D01*
X0019785Y0187441D01*
X0019585Y0187524D01*
X0019785Y0187607D01*
X0021417Y0189238D01*
X0022300Y0191370D01*
X0022300Y0193677D01*
X0021417Y0195809D01*
X0019785Y0197441D01*
X0017654Y0198324D01*
X0015346Y0198324D01*
X0013215Y0197441D01*
X0011583Y0195809D01*
X0010700Y0193677D01*
X0010700Y0191370D01*
X0011583Y0189238D01*
X0013215Y0187607D01*
X0013415Y0187524D01*
X0013215Y0187441D01*
X0011583Y0185809D01*
X0010700Y0183677D01*
X0010700Y0181370D01*
X0011583Y0179238D01*
X0013215Y0177607D01*
X0013415Y0177524D01*
X0013215Y0177441D01*
X0011583Y0175809D01*
X0010700Y0173677D01*
X0010700Y0171370D01*
X0011583Y0169238D01*
X0013215Y0167607D01*
X0013415Y0167524D01*
X0013215Y0167441D01*
X0011583Y0165809D01*
X0010700Y0163677D01*
X0010700Y0161370D01*
X0011583Y0159238D01*
X0013215Y0157607D01*
X0013415Y0157524D01*
X0013215Y0157441D01*
X0011583Y0155809D01*
X0010700Y0153677D01*
X0010700Y0151370D01*
X0011583Y0149238D01*
X0013215Y0147607D01*
X0013415Y0147524D01*
X0013215Y0147441D01*
X0011583Y0145809D01*
X0010700Y0143677D01*
X0010700Y0141370D01*
X0011583Y0139238D01*
X0013215Y0137607D01*
X0014212Y0137194D01*
X0013775Y0136971D01*
X0013112Y0136490D01*
X0012534Y0135911D01*
X0012053Y0135249D01*
X0011681Y0134520D01*
X0011428Y0133741D01*
X0011314Y0133024D01*
X0016000Y0133024D01*
X0016000Y0132024D01*
X0011314Y0132024D01*
X0011428Y0131306D01*
X0011681Y0130528D01*
X0012053Y0129798D01*
X0012534Y0129136D01*
X0013112Y0128557D01*
X0013775Y0128076D01*
X0014212Y0127854D01*
X0013215Y0127441D01*
X0011583Y0125809D01*
X0010700Y0123677D01*
X0010700Y0121370D01*
X0011583Y0119238D01*
X0013215Y0117607D01*
X0013415Y0117524D01*
X0013215Y0117441D01*
X0011583Y0115809D01*
X0010700Y0113677D01*
X0010700Y0111370D01*
X0011583Y0109238D01*
X0013215Y0107607D01*
X0013415Y0107524D01*
X0013215Y0107441D01*
X0011583Y0105809D01*
X0010700Y0103677D01*
X0010700Y0101370D01*
X0011583Y0099238D01*
X0013215Y0097607D01*
X0012359Y0098463D02*
X0006500Y0098463D01*
X0006500Y0099461D02*
X0011491Y0099461D01*
X0011077Y0100460D02*
X0006500Y0100460D01*
X0006500Y0101458D02*
X0010700Y0101458D01*
X0010700Y0102457D02*
X0006500Y0102457D01*
X0006500Y0103455D02*
X0010700Y0103455D01*
X0011022Y0104454D02*
X0006500Y0104454D01*
X0006500Y0105452D02*
X0011435Y0105452D01*
X0012225Y0106451D02*
X0006500Y0106451D01*
X0006500Y0107449D02*
X0013235Y0107449D01*
X0012373Y0108448D02*
X0006500Y0108448D01*
X0006500Y0109446D02*
X0011497Y0109446D01*
X0011083Y0110445D02*
X0006500Y0110445D01*
X0006500Y0111443D02*
X0010700Y0111443D01*
X0010700Y0112442D02*
X0006500Y0112442D01*
X0006500Y0113440D02*
X0010700Y0113440D01*
X0011015Y0114439D02*
X0006500Y0114439D01*
X0006500Y0115437D02*
X0011429Y0115437D01*
X0012210Y0116436D02*
X0006500Y0116436D01*
X0006500Y0117434D02*
X0013208Y0117434D01*
X0012388Y0118433D02*
X0006500Y0118433D01*
X0006500Y0119431D02*
X0011503Y0119431D01*
X0011089Y0120430D02*
X0006500Y0120430D01*
X0006500Y0121428D02*
X0010700Y0121428D01*
X0010700Y0122427D02*
X0006500Y0122427D01*
X0006500Y0123425D02*
X0010700Y0123425D01*
X0011009Y0124424D02*
X0006500Y0124424D01*
X0006500Y0125422D02*
X0011423Y0125422D01*
X0012195Y0126421D02*
X0006500Y0126421D01*
X0006500Y0127419D02*
X0013193Y0127419D01*
X0013304Y0128418D02*
X0006500Y0128418D01*
X0006500Y0129416D02*
X0012330Y0129416D01*
X0011738Y0130415D02*
X0006500Y0130415D01*
X0006500Y0131413D02*
X0011411Y0131413D01*
X0011376Y0133410D02*
X0006500Y0133410D01*
X0006500Y0132412D02*
X0016000Y0132412D01*
X0017000Y0132412D02*
X0058900Y0132412D01*
X0058900Y0133410D02*
X0021624Y0133410D01*
X0021355Y0134409D02*
X0024256Y0134409D01*
X0023275Y0135408D02*
X0020832Y0135408D01*
X0019971Y0136406D02*
X0022862Y0136406D01*
X0022711Y0137405D02*
X0019298Y0137405D01*
X0020582Y0138403D02*
X0022763Y0138403D01*
X0023177Y0139402D02*
X0021485Y0139402D01*
X0021898Y0140400D02*
X0023900Y0140400D01*
X0023900Y0141399D02*
X0022300Y0141399D01*
X0022300Y0142397D02*
X0023900Y0142397D01*
X0023900Y0143396D02*
X0022300Y0143396D01*
X0022003Y0144394D02*
X0023900Y0144394D01*
X0023900Y0145393D02*
X0021589Y0145393D01*
X0020835Y0146391D02*
X0023900Y0146391D01*
X0023900Y0147390D02*
X0019836Y0147390D01*
X0020567Y0148388D02*
X0023900Y0148388D01*
X0023900Y0149387D02*
X0021478Y0149387D01*
X0021892Y0150385D02*
X0023900Y0150385D01*
X0023900Y0151384D02*
X0022300Y0151384D01*
X0022300Y0152382D02*
X0023900Y0152382D01*
X0023900Y0153381D02*
X0022300Y0153381D01*
X0022009Y0154379D02*
X0023900Y0154379D01*
X0023900Y0155378D02*
X0021596Y0155378D01*
X0020850Y0156376D02*
X0023900Y0156376D01*
X0023900Y0157375D02*
X0019851Y0157375D01*
X0020552Y0158373D02*
X0023900Y0158373D01*
X0023900Y0159372D02*
X0021472Y0159372D01*
X0021886Y0160370D02*
X0023900Y0160370D01*
X0023900Y0161369D02*
X0022300Y0161369D01*
X0022300Y0162367D02*
X0023900Y0162367D01*
X0023900Y0163366D02*
X0022300Y0163366D01*
X0022015Y0164364D02*
X0023900Y0164364D01*
X0023900Y0165363D02*
X0021602Y0165363D01*
X0020865Y0166361D02*
X0023900Y0166361D01*
X0023900Y0167360D02*
X0019866Y0167360D01*
X0020537Y0168358D02*
X0023900Y0168358D01*
X0023900Y0169357D02*
X0021466Y0169357D01*
X0021880Y0170355D02*
X0023900Y0170355D01*
X0023900Y0171354D02*
X0022293Y0171354D01*
X0022300Y0172352D02*
X0023900Y0172352D01*
X0023900Y0173351D02*
X0022300Y0173351D01*
X0022022Y0174349D02*
X0023900Y0174349D01*
X0023900Y0175348D02*
X0021608Y0175348D01*
X0020880Y0176346D02*
X0023900Y0176346D01*
X0023900Y0177345D02*
X0019881Y0177345D01*
X0020522Y0178343D02*
X0023900Y0178343D01*
X0023900Y0179342D02*
X0021460Y0179342D01*
X0021874Y0180341D02*
X0023900Y0180341D01*
X0023900Y0181339D02*
X0022287Y0181339D01*
X0022300Y0182338D02*
X0023900Y0182338D01*
X0023900Y0183336D02*
X0022300Y0183336D01*
X0022028Y0184335D02*
X0023900Y0184335D01*
X0023332Y0185333D02*
X0021614Y0185333D01*
X0020894Y0186332D02*
X0022893Y0186332D01*
X0022711Y0187330D02*
X0019896Y0187330D01*
X0020507Y0188329D02*
X0022732Y0188329D01*
X0023146Y0189327D02*
X0021454Y0189327D01*
X0021867Y0190326D02*
X0023944Y0190326D01*
X0022281Y0191324D02*
X0058900Y0191324D01*
X0058900Y0192323D02*
X0022300Y0192323D01*
X0022300Y0193321D02*
X0058900Y0193321D01*
X0058900Y0194320D02*
X0022034Y0194320D01*
X0021620Y0195318D02*
X0030030Y0195318D01*
X0029030Y0196317D02*
X0020909Y0196317D01*
X0019911Y0197315D02*
X0028031Y0197315D01*
X0027033Y0198314D02*
X0017678Y0198314D01*
X0015322Y0198314D02*
X0006500Y0198314D01*
X0006500Y0199312D02*
X0026034Y0199312D01*
X0025036Y0200311D02*
X0006500Y0200311D01*
X0006500Y0201309D02*
X0024037Y0201309D01*
X0023039Y0202308D02*
X0019064Y0202308D01*
X0020485Y0203306D02*
X0022040Y0203306D01*
X0029394Y0203306D02*
X0057723Y0203306D01*
X0057711Y0202308D02*
X0030393Y0202308D01*
X0031391Y0201309D02*
X0057902Y0201309D01*
X0058354Y0200311D02*
X0032390Y0200311D01*
X0029056Y0190326D02*
X0043944Y0190326D01*
X0043146Y0189327D02*
X0029854Y0189327D01*
X0030268Y0188329D02*
X0042732Y0188329D01*
X0042711Y0187330D02*
X0030289Y0187330D01*
X0030107Y0186332D02*
X0042893Y0186332D01*
X0043332Y0185333D02*
X0029668Y0185333D01*
X0029100Y0184335D02*
X0043900Y0184335D01*
X0043900Y0183336D02*
X0029100Y0183336D01*
X0029100Y0182338D02*
X0043900Y0182338D01*
X0043900Y0181339D02*
X0029100Y0181339D01*
X0029100Y0180341D02*
X0043900Y0180341D01*
X0043152Y0179342D02*
X0029100Y0179342D01*
X0029100Y0178343D02*
X0042738Y0178343D01*
X0042711Y0177345D02*
X0029100Y0177345D01*
X0029100Y0176346D02*
X0042886Y0176346D01*
X0046500Y0177524D02*
X0046500Y0187524D01*
X0049056Y0190326D02*
X0053944Y0190326D01*
X0053146Y0189327D02*
X0049854Y0189327D01*
X0050268Y0188329D02*
X0052732Y0188329D01*
X0052711Y0187330D02*
X0050289Y0187330D01*
X0050107Y0186332D02*
X0052893Y0186332D01*
X0053332Y0185333D02*
X0049668Y0185333D01*
X0049100Y0184335D02*
X0053900Y0184335D01*
X0053900Y0183336D02*
X0049100Y0183336D01*
X0049100Y0182338D02*
X0053900Y0182338D01*
X0053900Y0181339D02*
X0049100Y0181339D01*
X0049100Y0180341D02*
X0053900Y0180341D01*
X0053900Y0179342D02*
X0049848Y0179342D01*
X0050262Y0178343D02*
X0053900Y0178343D01*
X0053900Y0177345D02*
X0050289Y0177345D01*
X0050114Y0176346D02*
X0053900Y0176346D01*
X0051500Y0172524D02*
X0041500Y0172524D01*
X0038966Y0175348D02*
X0029100Y0175348D01*
X0029100Y0174349D02*
X0038155Y0174349D01*
X0037742Y0173351D02*
X0029100Y0173351D01*
X0029100Y0172352D02*
X0037711Y0172352D01*
X0037883Y0171354D02*
X0029100Y0171354D01*
X0031500Y0167524D02*
X0031500Y0137524D01*
X0029256Y0134409D02*
X0028744Y0134409D01*
X0026500Y0137524D02*
X0026500Y0187524D01*
X0013104Y0187330D02*
X0006500Y0187330D01*
X0006500Y0186332D02*
X0012106Y0186332D01*
X0011386Y0185333D02*
X0006500Y0185333D01*
X0006500Y0184335D02*
X0010972Y0184335D01*
X0010700Y0183336D02*
X0006500Y0183336D01*
X0006500Y0182338D02*
X0010700Y0182338D01*
X0010713Y0181339D02*
X0006500Y0181339D01*
X0006500Y0180341D02*
X0011126Y0180341D01*
X0011540Y0179342D02*
X0006500Y0179342D01*
X0006500Y0178343D02*
X0012478Y0178343D01*
X0013119Y0177345D02*
X0006500Y0177345D01*
X0006500Y0176346D02*
X0012120Y0176346D01*
X0011392Y0175348D02*
X0006500Y0175348D01*
X0006500Y0174349D02*
X0010978Y0174349D01*
X0010700Y0173351D02*
X0006500Y0173351D01*
X0006500Y0172352D02*
X0010700Y0172352D01*
X0010707Y0171354D02*
X0006500Y0171354D01*
X0006500Y0170355D02*
X0011120Y0170355D01*
X0011534Y0169357D02*
X0006500Y0169357D01*
X0006500Y0168358D02*
X0012463Y0168358D01*
X0013134Y0167360D02*
X0006500Y0167360D01*
X0006500Y0166361D02*
X0012135Y0166361D01*
X0011398Y0165363D02*
X0006500Y0165363D01*
X0006500Y0164364D02*
X0010985Y0164364D01*
X0010700Y0163366D02*
X0006500Y0163366D01*
X0006500Y0162367D02*
X0010700Y0162367D01*
X0010700Y0161369D02*
X0006500Y0161369D01*
X0006500Y0160370D02*
X0011114Y0160370D01*
X0011528Y0159372D02*
X0006500Y0159372D01*
X0006500Y0158373D02*
X0012448Y0158373D01*
X0013149Y0157375D02*
X0006500Y0157375D01*
X0006500Y0156376D02*
X0012150Y0156376D01*
X0011404Y0155378D02*
X0006500Y0155378D01*
X0006500Y0154379D02*
X0010991Y0154379D01*
X0010700Y0153381D02*
X0006500Y0153381D01*
X0006500Y0152382D02*
X0010700Y0152382D01*
X0010700Y0151384D02*
X0006500Y0151384D01*
X0006500Y0150385D02*
X0011108Y0150385D01*
X0011521Y0149387D02*
X0006500Y0149387D01*
X0006500Y0148388D02*
X0012433Y0148388D01*
X0013164Y0147390D02*
X0006500Y0147390D01*
X0006500Y0146391D02*
X0012165Y0146391D01*
X0011411Y0145393D02*
X0006500Y0145393D01*
X0006500Y0144394D02*
X0010997Y0144394D01*
X0010700Y0143396D02*
X0006500Y0143396D01*
X0006500Y0142397D02*
X0010700Y0142397D01*
X0010700Y0141399D02*
X0006500Y0141399D01*
X0006500Y0140400D02*
X0011102Y0140400D01*
X0011515Y0139402D02*
X0006500Y0139402D01*
X0006500Y0138403D02*
X0012418Y0138403D01*
X0013702Y0137405D02*
X0006500Y0137405D01*
X0006500Y0136406D02*
X0013028Y0136406D01*
X0012168Y0135408D02*
X0006500Y0135408D01*
X0006500Y0134409D02*
X0011645Y0134409D01*
X0019696Y0128418D02*
X0058900Y0128418D01*
X0058900Y0129416D02*
X0020670Y0129416D01*
X0021262Y0130415D02*
X0058900Y0130415D01*
X0058900Y0131413D02*
X0021589Y0131413D01*
X0019807Y0127419D02*
X0058900Y0127419D01*
X0059143Y0126421D02*
X0020805Y0126421D01*
X0021577Y0125422D02*
X0059924Y0125422D01*
X0058900Y0134409D02*
X0058744Y0134409D01*
X0056500Y0137524D02*
X0056500Y0147524D01*
X0054003Y0150385D02*
X0049100Y0150385D01*
X0049100Y0149387D02*
X0053171Y0149387D01*
X0052757Y0148388D02*
X0049100Y0148388D01*
X0049100Y0147390D02*
X0052711Y0147390D01*
X0052868Y0146391D02*
X0049100Y0146391D01*
X0049100Y0145393D02*
X0053282Y0145393D01*
X0053900Y0144394D02*
X0049100Y0144394D01*
X0049100Y0143396D02*
X0053900Y0143396D01*
X0053900Y0142397D02*
X0049100Y0142397D01*
X0049100Y0141399D02*
X0053900Y0141399D01*
X0053900Y0140400D02*
X0049100Y0140400D01*
X0049100Y0140282D02*
X0049100Y0154765D01*
X0049712Y0155377D01*
X0050289Y0156770D01*
X0050289Y0158277D01*
X0049712Y0159670D01*
X0048646Y0160736D01*
X0047254Y0161313D01*
X0045746Y0161313D01*
X0044354Y0160736D01*
X0043288Y0159670D01*
X0042711Y0158277D01*
X0042711Y0156770D01*
X0043288Y0155377D01*
X0043900Y0154765D01*
X0043900Y0140282D01*
X0043288Y0139670D01*
X0042711Y0138277D01*
X0042711Y0136770D01*
X0043288Y0135377D01*
X0044354Y0134311D01*
X0045746Y0133735D01*
X0047254Y0133735D01*
X0048646Y0134311D01*
X0049712Y0135377D01*
X0050289Y0136770D01*
X0050289Y0138277D01*
X0049712Y0139670D01*
X0049100Y0140282D01*
X0049823Y0139402D02*
X0053177Y0139402D01*
X0052763Y0138403D02*
X0050237Y0138403D01*
X0050289Y0137405D02*
X0052711Y0137405D01*
X0052862Y0136406D02*
X0050138Y0136406D01*
X0049725Y0135408D02*
X0053275Y0135408D01*
X0054256Y0134409D02*
X0048744Y0134409D01*
X0046500Y0137524D02*
X0046500Y0157524D01*
X0042711Y0157375D02*
X0039100Y0157375D01*
X0039100Y0158373D02*
X0042751Y0158373D01*
X0043164Y0159372D02*
X0039100Y0159372D01*
X0039100Y0160370D02*
X0043988Y0160370D01*
X0040289Y0167360D02*
X0053900Y0167360D01*
X0053900Y0168358D02*
X0040255Y0168358D01*
X0040120Y0166361D02*
X0053900Y0166361D01*
X0053900Y0165363D02*
X0039698Y0165363D01*
X0039100Y0164364D02*
X0053900Y0164364D01*
X0053900Y0163366D02*
X0039100Y0163366D01*
X0039100Y0162367D02*
X0053900Y0162367D01*
X0053900Y0161369D02*
X0039100Y0161369D01*
X0036500Y0167524D02*
X0036500Y0137524D01*
X0039823Y0139402D02*
X0043177Y0139402D01*
X0042763Y0138403D02*
X0040237Y0138403D01*
X0040289Y0137405D02*
X0042711Y0137405D01*
X0042862Y0136406D02*
X0040138Y0136406D01*
X0039725Y0135408D02*
X0043275Y0135408D01*
X0044256Y0134409D02*
X0038744Y0134409D01*
X0039100Y0140400D02*
X0043900Y0140400D01*
X0043900Y0141399D02*
X0039100Y0141399D01*
X0039100Y0142397D02*
X0043900Y0142397D01*
X0043900Y0143396D02*
X0039100Y0143396D01*
X0039100Y0144394D02*
X0043900Y0144394D01*
X0043900Y0145393D02*
X0039100Y0145393D01*
X0039100Y0146391D02*
X0043900Y0146391D01*
X0043900Y0147390D02*
X0039100Y0147390D01*
X0039100Y0148388D02*
X0043900Y0148388D01*
X0043900Y0149387D02*
X0039100Y0149387D01*
X0039100Y0150385D02*
X0043900Y0150385D01*
X0043900Y0151384D02*
X0039100Y0151384D01*
X0039100Y0152382D02*
X0043900Y0152382D01*
X0043900Y0153381D02*
X0039100Y0153381D01*
X0039100Y0154379D02*
X0043900Y0154379D01*
X0043288Y0155378D02*
X0039100Y0155378D01*
X0039100Y0156376D02*
X0042874Y0156376D01*
X0049012Y0160370D02*
X0053900Y0160370D01*
X0053164Y0159372D02*
X0049836Y0159372D01*
X0050249Y0158373D02*
X0052751Y0158373D01*
X0052711Y0157375D02*
X0050289Y0157375D01*
X0050126Y0156376D02*
X0052874Y0156376D01*
X0053288Y0155378D02*
X0049712Y0155378D01*
X0049100Y0154379D02*
X0054286Y0154379D01*
X0056500Y0157524D02*
X0056500Y0187524D01*
X0063647Y0199312D02*
X0069353Y0199312D01*
X0069388Y0209297D02*
X0053612Y0209297D01*
X0058921Y0205303D02*
X0044638Y0205303D01*
X0043630Y0204305D02*
X0058137Y0204305D01*
X0066500Y0187524D02*
X0066500Y0147524D01*
X0068729Y0144394D02*
X0078900Y0144394D01*
X0078900Y0143396D02*
X0064100Y0143396D01*
X0064100Y0144394D02*
X0064271Y0144394D01*
X0064100Y0142397D02*
X0078900Y0142397D01*
X0078900Y0141399D02*
X0064100Y0141399D01*
X0064100Y0140400D02*
X0078900Y0140400D01*
X0078177Y0139402D02*
X0064100Y0139402D01*
X0064100Y0138403D02*
X0077763Y0138403D01*
X0077711Y0137405D02*
X0064100Y0137405D01*
X0064100Y0136406D02*
X0077862Y0136406D01*
X0078275Y0135408D02*
X0064100Y0135408D01*
X0064100Y0134409D02*
X0079256Y0134409D01*
X0081500Y0137524D02*
X0081500Y0177524D01*
X0078152Y0179342D02*
X0073677Y0179342D01*
X0077738Y0178343D02*
X0069100Y0178343D01*
X0069100Y0177345D02*
X0077711Y0177345D01*
X0077886Y0176346D02*
X0069100Y0176346D01*
X0069100Y0175348D02*
X0078317Y0175348D01*
X0078900Y0174349D02*
X0069100Y0174349D01*
X0069100Y0173351D02*
X0078900Y0173351D01*
X0078900Y0172352D02*
X0069100Y0172352D01*
X0069100Y0171354D02*
X0078900Y0171354D01*
X0078900Y0170355D02*
X0069100Y0170355D01*
X0069100Y0169357D02*
X0078900Y0169357D01*
X0078900Y0168358D02*
X0069100Y0168358D01*
X0069100Y0167360D02*
X0078900Y0167360D01*
X0078900Y0166361D02*
X0069100Y0166361D01*
X0069100Y0165363D02*
X0078900Y0165363D01*
X0078900Y0164364D02*
X0069100Y0164364D01*
X0069100Y0163366D02*
X0078900Y0163366D01*
X0078900Y0162367D02*
X0069100Y0162367D01*
X0069100Y0161369D02*
X0078900Y0161369D01*
X0078900Y0160370D02*
X0069100Y0160370D01*
X0069100Y0159372D02*
X0078900Y0159372D01*
X0078900Y0158373D02*
X0069100Y0158373D01*
X0069100Y0157375D02*
X0078900Y0157375D01*
X0078900Y0156376D02*
X0069100Y0156376D01*
X0069100Y0155378D02*
X0078900Y0155378D01*
X0078900Y0154379D02*
X0069100Y0154379D01*
X0069100Y0153381D02*
X0078900Y0153381D01*
X0078900Y0152382D02*
X0069100Y0152382D01*
X0069100Y0151384D02*
X0078900Y0151384D01*
X0078900Y0150385D02*
X0069100Y0150385D01*
X0069829Y0149387D02*
X0078900Y0149387D01*
X0078900Y0148388D02*
X0070243Y0148388D01*
X0070289Y0147390D02*
X0078900Y0147390D01*
X0078900Y0146391D02*
X0070132Y0146391D01*
X0069718Y0145393D02*
X0078900Y0145393D01*
X0084100Y0159372D02*
X0148200Y0159372D01*
X0148200Y0160370D02*
X0084100Y0160370D01*
X0084100Y0161369D02*
X0147877Y0161369D01*
X0147711Y0162367D02*
X0084100Y0162367D01*
X0084100Y0163366D02*
X0147748Y0163366D01*
X0148161Y0164364D02*
X0084100Y0164364D01*
X0084100Y0165363D02*
X0148981Y0165363D01*
X0154019Y0165363D02*
X0158200Y0165363D01*
X0158200Y0164458D02*
X0157711Y0163277D01*
X0157711Y0161770D01*
X0158288Y0160377D01*
X0159354Y0159311D01*
X0160746Y0158735D01*
X0162254Y0158735D01*
X0163646Y0159311D01*
X0164712Y0160377D01*
X0165289Y0161770D01*
X0165289Y0163277D01*
X0164800Y0164458D01*
X0164800Y0170589D01*
X0165289Y0171770D01*
X0165289Y0173277D01*
X0164712Y0174670D01*
X0163646Y0175736D01*
X0162254Y0176313D01*
X0160746Y0176313D01*
X0159354Y0175736D01*
X0158288Y0174670D01*
X0157711Y0173277D01*
X0157711Y0171770D01*
X0158200Y0170589D01*
X0158200Y0164458D01*
X0158161Y0164364D02*
X0154839Y0164364D01*
X0155252Y0163366D02*
X0157748Y0163366D01*
X0157711Y0162367D02*
X0155289Y0162367D01*
X0155123Y0161369D02*
X0157877Y0161369D01*
X0158295Y0160370D02*
X0154800Y0160370D01*
X0154800Y0159372D02*
X0159293Y0159372D01*
X0163707Y0159372D02*
X0200988Y0159372D01*
X0200700Y0158373D02*
X0154800Y0158373D01*
X0154800Y0157375D02*
X0200700Y0157375D01*
X0200700Y0156376D02*
X0154800Y0156376D01*
X0154800Y0155378D02*
X0201111Y0155378D01*
X0201525Y0154379D02*
X0154800Y0154379D01*
X0154800Y0153381D02*
X0202440Y0153381D01*
X0203156Y0152382D02*
X0154800Y0152382D01*
X0154800Y0151384D02*
X0202158Y0151384D01*
X0201401Y0160370D02*
X0164705Y0160370D01*
X0165123Y0161369D02*
X0202143Y0161369D01*
X0203141Y0162367D02*
X0165289Y0162367D01*
X0165252Y0163366D02*
X0202455Y0163366D01*
X0201531Y0164364D02*
X0164839Y0164364D01*
X0164800Y0165363D02*
X0201117Y0165363D01*
X0200704Y0166361D02*
X0164800Y0166361D01*
X0164800Y0167360D02*
X0200700Y0167360D01*
X0200700Y0168358D02*
X0164800Y0168358D01*
X0164800Y0169357D02*
X0200981Y0169357D01*
X0201395Y0170355D02*
X0164800Y0170355D01*
X0165117Y0171354D02*
X0202128Y0171354D01*
X0203126Y0172352D02*
X0165289Y0172352D01*
X0165258Y0173351D02*
X0202470Y0173351D01*
X0201537Y0174349D02*
X0164845Y0174349D01*
X0164034Y0175348D02*
X0201123Y0175348D01*
X0200710Y0176346D02*
X0085114Y0176346D01*
X0085289Y0177345D02*
X0200700Y0177345D01*
X0200700Y0178343D02*
X0085262Y0178343D01*
X0084848Y0179342D02*
X0114323Y0179342D01*
X0113951Y0185333D02*
X0084668Y0185333D01*
X0081500Y0187524D02*
X0081500Y0222524D01*
X0078124Y0224275D02*
X0033558Y0224275D01*
X0031500Y0227524D02*
X0121500Y0227524D01*
X0124116Y0230266D02*
X0201358Y0230266D01*
X0200945Y0229268D02*
X0124879Y0229268D01*
X0125289Y0228269D02*
X0200700Y0228269D01*
X0200700Y0227271D02*
X0125289Y0227271D01*
X0125083Y0226272D02*
X0200741Y0226272D01*
X0201154Y0225274D02*
X0124608Y0225274D01*
X0123558Y0224275D02*
X0201568Y0224275D01*
X0202545Y0223277D02*
X0085289Y0223277D01*
X0085289Y0222278D02*
X0204008Y0222278D01*
X0208992Y0222278D02*
X0216500Y0222278D01*
X0216500Y0223277D02*
X0210455Y0223277D01*
X0211432Y0224275D02*
X0216500Y0224275D01*
X0216500Y0225274D02*
X0211846Y0225274D01*
X0212259Y0226272D02*
X0216500Y0226272D01*
X0216500Y0227271D02*
X0212300Y0227271D01*
X0212300Y0228269D02*
X0216500Y0228269D01*
X0216500Y0229268D02*
X0212055Y0229268D01*
X0211642Y0230266D02*
X0216500Y0230266D01*
X0216500Y0231265D02*
X0210961Y0231265D01*
X0209963Y0232263D02*
X0216500Y0232263D01*
X0216500Y0233262D02*
X0210440Y0233262D01*
X0211426Y0234260D02*
X0216500Y0234260D01*
X0216500Y0235259D02*
X0211840Y0235259D01*
X0212253Y0236257D02*
X0216500Y0236257D01*
X0216500Y0237256D02*
X0212300Y0237256D01*
X0212300Y0238254D02*
X0216500Y0238254D01*
X0216500Y0239253D02*
X0212062Y0239253D01*
X0211648Y0240251D02*
X0216500Y0240251D01*
X0216500Y0241250D02*
X0210976Y0241250D01*
X0209978Y0242248D02*
X0216500Y0242248D01*
X0216500Y0243247D02*
X0210426Y0243247D01*
X0211420Y0244245D02*
X0216500Y0244245D01*
X0216500Y0245244D02*
X0211834Y0245244D01*
X0212247Y0246242D02*
X0216500Y0246242D01*
X0216500Y0247241D02*
X0212300Y0247241D01*
X0212300Y0248239D02*
X0216500Y0248239D01*
X0216500Y0249238D02*
X0212068Y0249238D01*
X0211654Y0250236D02*
X0216500Y0250236D01*
X0216500Y0251235D02*
X0210991Y0251235D01*
X0209993Y0252233D02*
X0216500Y0252233D01*
X0216500Y0253232D02*
X0210411Y0253232D01*
X0211409Y0254230D02*
X0216500Y0254230D01*
X0216500Y0255229D02*
X0211827Y0255229D01*
X0212241Y0256227D02*
X0216500Y0256227D01*
X0216500Y0257226D02*
X0212300Y0257226D01*
X0212300Y0258224D02*
X0216500Y0258224D01*
X0216500Y0259223D02*
X0212074Y0259223D01*
X0211660Y0260221D02*
X0216500Y0260221D01*
X0216500Y0261220D02*
X0211006Y0261220D01*
X0210008Y0262218D02*
X0216500Y0262218D01*
X0216500Y0263217D02*
X0210396Y0263217D01*
X0211394Y0264215D02*
X0216500Y0264215D01*
X0216500Y0265214D02*
X0211821Y0265214D01*
X0212235Y0266212D02*
X0216500Y0266212D01*
X0216500Y0267211D02*
X0212300Y0267211D01*
X0212300Y0268210D02*
X0216500Y0268210D01*
X0216500Y0269208D02*
X0212080Y0269208D01*
X0211667Y0270207D02*
X0216500Y0270207D01*
X0216500Y0271205D02*
X0211021Y0271205D01*
X0210022Y0272204D02*
X0216500Y0272204D01*
X0216500Y0273202D02*
X0210381Y0273202D01*
X0211379Y0274201D02*
X0216500Y0274201D01*
X0216500Y0275199D02*
X0211815Y0275199D01*
X0212229Y0276198D02*
X0216500Y0276198D01*
X0216500Y0277196D02*
X0212300Y0277196D01*
X0212300Y0278195D02*
X0216500Y0278195D01*
X0216500Y0279193D02*
X0212086Y0279193D01*
X0211673Y0280192D02*
X0216500Y0280192D01*
X0216500Y0281190D02*
X0211036Y0281190D01*
X0210037Y0282189D02*
X0216500Y0282189D01*
X0216500Y0283187D02*
X0207983Y0283187D01*
X0205017Y0283187D02*
X0125289Y0283187D01*
X0125289Y0282189D02*
X0202963Y0282189D01*
X0201964Y0281190D02*
X0125049Y0281190D01*
X0124526Y0280192D02*
X0201327Y0280192D01*
X0201185Y0275199D02*
X0084183Y0275199D01*
X0084907Y0274201D02*
X0201621Y0274201D01*
X0202619Y0273202D02*
X0085289Y0273202D01*
X0085289Y0272204D02*
X0202977Y0272204D01*
X0201979Y0271205D02*
X0085055Y0271205D01*
X0084541Y0270207D02*
X0201333Y0270207D01*
X0200920Y0269208D02*
X0084100Y0269208D01*
X0084100Y0268210D02*
X0200700Y0268210D01*
X0200700Y0267211D02*
X0084100Y0267211D01*
X0084100Y0266212D02*
X0200765Y0266212D01*
X0201179Y0265214D02*
X0084100Y0265214D01*
X0084100Y0264215D02*
X0201606Y0264215D01*
X0202604Y0263217D02*
X0084100Y0263217D01*
X0084100Y0262218D02*
X0202992Y0262218D01*
X0202560Y0233262D02*
X0020440Y0233262D01*
X0019963Y0232263D02*
X0203037Y0232263D01*
X0202039Y0231265D02*
X0122370Y0231265D01*
X0118884Y0230266D02*
X0034116Y0230266D01*
X0022300Y0237256D02*
X0077711Y0237256D01*
X0077711Y0238254D02*
X0022300Y0238254D01*
X0022062Y0239253D02*
X0078115Y0239253D01*
X0078869Y0240251D02*
X0021648Y0240251D01*
X0020976Y0241250D02*
X0078900Y0241250D01*
X0078900Y0242248D02*
X0019978Y0242248D01*
X0020426Y0243247D02*
X0078900Y0243247D01*
X0078900Y0244245D02*
X0021420Y0244245D01*
X0021834Y0245244D02*
X0078900Y0245244D01*
X0078900Y0246242D02*
X0022247Y0246242D01*
X0022300Y0247241D02*
X0078900Y0247241D01*
X0078900Y0248239D02*
X0022300Y0248239D01*
X0022253Y0236257D02*
X0077923Y0236257D01*
X0078407Y0235259D02*
X0021840Y0235259D01*
X0021426Y0234260D02*
X0079478Y0234260D01*
X0083522Y0234260D02*
X0149478Y0234260D01*
X0148407Y0235259D02*
X0084593Y0235259D01*
X0085077Y0236257D02*
X0147923Y0236257D01*
X0147711Y0237256D02*
X0124434Y0237256D01*
X0125433Y0238254D02*
X0128416Y0238254D01*
X0127417Y0239253D02*
X0126431Y0239253D01*
X0131000Y0239253D02*
X0132000Y0239253D01*
X0132000Y0240251D02*
X0131000Y0240251D01*
X0131000Y0241250D02*
X0132000Y0241250D01*
X0132000Y0242024D02*
X0132000Y0237324D01*
X0133654Y0237324D01*
X0136700Y0240370D01*
X0136700Y0242024D01*
X0132000Y0242024D01*
X0132000Y0242248D02*
X0148200Y0242248D01*
X0148200Y0241250D02*
X0136700Y0241250D01*
X0136581Y0240251D02*
X0148200Y0240251D01*
X0148115Y0239253D02*
X0135583Y0239253D01*
X0134584Y0238254D02*
X0147711Y0238254D01*
X0148200Y0243247D02*
X0136700Y0243247D01*
X0136700Y0244245D02*
X0148200Y0244245D01*
X0148200Y0245244D02*
X0136134Y0245244D01*
X0135135Y0246242D02*
X0148200Y0246242D01*
X0148200Y0247241D02*
X0134420Y0247241D01*
X0135418Y0248239D02*
X0148200Y0248239D01*
X0148200Y0249238D02*
X0136417Y0249238D01*
X0132000Y0238254D02*
X0131000Y0238254D01*
X0119442Y0224275D02*
X0084876Y0224275D01*
X0085086Y0221279D02*
X0216500Y0221279D01*
X0216500Y0220281D02*
X0084616Y0220281D01*
X0084100Y0219282D02*
X0216500Y0219282D01*
X0216500Y0218284D02*
X0084100Y0218284D01*
X0084100Y0217285D02*
X0216500Y0217285D01*
X0216500Y0216287D02*
X0084100Y0216287D01*
X0084100Y0215288D02*
X0216500Y0215288D01*
X0216500Y0214290D02*
X0084100Y0214290D01*
X0084100Y0213291D02*
X0205269Y0213291D01*
X0203067Y0212293D02*
X0084100Y0212293D01*
X0084100Y0211294D02*
X0150702Y0211294D01*
X0152298Y0211294D02*
X0202068Y0211294D01*
X0201370Y0210296D02*
X0154086Y0210296D01*
X0154866Y0209297D02*
X0200957Y0209297D01*
X0200700Y0208299D02*
X0155280Y0208299D01*
X0155289Y0207300D02*
X0200700Y0207300D01*
X0200728Y0206302D02*
X0155095Y0206302D01*
X0154800Y0205303D02*
X0201142Y0205303D01*
X0201555Y0204305D02*
X0154800Y0204305D01*
X0154800Y0203306D02*
X0202515Y0203306D01*
X0203936Y0202308D02*
X0154800Y0202308D01*
X0154800Y0201309D02*
X0160738Y0201309D01*
X0162262Y0201309D02*
X0202932Y0201309D01*
X0202097Y0200311D02*
X0164071Y0200311D01*
X0164860Y0199312D02*
X0201614Y0199312D01*
X0201360Y0198314D02*
X0165274Y0198314D01*
X0165289Y0197315D02*
X0206000Y0197315D01*
X0206000Y0196317D02*
X0207000Y0196317D01*
X0207000Y0197315D02*
X0216500Y0197315D01*
X0216500Y0196317D02*
X0211574Y0196317D01*
X0211212Y0195318D02*
X0216500Y0195318D01*
X0216500Y0194320D02*
X0210600Y0194320D01*
X0209563Y0193321D02*
X0216500Y0193321D01*
X0216500Y0192323D02*
X0208535Y0192323D01*
X0207000Y0192323D02*
X0206000Y0192323D01*
X0206000Y0193321D02*
X0207000Y0193321D01*
X0207000Y0194320D02*
X0206000Y0194320D01*
X0206000Y0195318D02*
X0207000Y0195318D01*
X0204465Y0192323D02*
X0164800Y0192323D01*
X0164800Y0193321D02*
X0203437Y0193321D01*
X0202400Y0194320D02*
X0164800Y0194320D01*
X0164800Y0195318D02*
X0201788Y0195318D01*
X0201426Y0196317D02*
X0165101Y0196317D01*
X0164800Y0191324D02*
X0202947Y0191324D01*
X0202108Y0190326D02*
X0164800Y0190326D01*
X0164854Y0189327D02*
X0201618Y0189327D01*
X0201363Y0188329D02*
X0165268Y0188329D01*
X0159331Y0184335D02*
X0153669Y0184335D01*
X0154668Y0185333D02*
X0158332Y0185333D01*
X0157893Y0186332D02*
X0155107Y0186332D01*
X0155289Y0187330D02*
X0157711Y0187330D01*
X0157732Y0188329D02*
X0155268Y0188329D01*
X0154854Y0189327D02*
X0158146Y0189327D01*
X0158200Y0190326D02*
X0154800Y0190326D01*
X0154800Y0191324D02*
X0158200Y0191324D01*
X0158200Y0192323D02*
X0154800Y0192323D01*
X0154800Y0193321D02*
X0158200Y0193321D01*
X0158200Y0194320D02*
X0154800Y0194320D01*
X0154800Y0195318D02*
X0158200Y0195318D01*
X0157899Y0196317D02*
X0154800Y0196317D01*
X0154800Y0197315D02*
X0157711Y0197315D01*
X0157726Y0198314D02*
X0154800Y0198314D01*
X0154800Y0199312D02*
X0158140Y0199312D01*
X0158929Y0200311D02*
X0154800Y0200311D01*
X0148914Y0210296D02*
X0084100Y0210296D01*
X0077711Y0222278D02*
X0019948Y0222278D01*
X0020455Y0223277D02*
X0077711Y0223277D01*
X0085289Y0237256D02*
X0088566Y0237256D01*
X0087567Y0238254D02*
X0085289Y0238254D01*
X0084885Y0239253D02*
X0086569Y0239253D01*
X0093927Y0208299D02*
X0099073Y0208299D01*
X0098074Y0207300D02*
X0094926Y0207300D01*
X0095924Y0206302D02*
X0097076Y0206302D01*
X0103927Y0208299D02*
X0109073Y0208299D01*
X0108074Y0207300D02*
X0104926Y0207300D01*
X0105924Y0206302D02*
X0107076Y0206302D01*
X0113927Y0208299D02*
X0119073Y0208299D01*
X0118074Y0207300D02*
X0114926Y0207300D01*
X0115924Y0206302D02*
X0117076Y0206302D01*
X0123927Y0208299D02*
X0129073Y0208299D01*
X0128074Y0207300D02*
X0124926Y0207300D01*
X0125924Y0206302D02*
X0127076Y0206302D01*
X0117493Y0188329D02*
X0115507Y0188329D01*
X0114509Y0187330D02*
X0118491Y0187330D01*
X0120289Y0182338D02*
X0203111Y0182338D01*
X0202113Y0181339D02*
X0120110Y0181339D01*
X0119675Y0180341D02*
X0201389Y0180341D01*
X0200975Y0179342D02*
X0118677Y0179342D01*
X0108491Y0187330D02*
X0104509Y0187330D01*
X0105507Y0188329D02*
X0107493Y0188329D01*
X0098491Y0187330D02*
X0094509Y0187330D01*
X0095507Y0188329D02*
X0097493Y0188329D01*
X0084683Y0175348D02*
X0158966Y0175348D01*
X0158155Y0174349D02*
X0084100Y0174349D01*
X0084100Y0173351D02*
X0157742Y0173351D01*
X0157711Y0172352D02*
X0084100Y0172352D01*
X0084100Y0171354D02*
X0157883Y0171354D01*
X0158200Y0170355D02*
X0084100Y0170355D01*
X0084100Y0169357D02*
X0158200Y0169357D01*
X0158200Y0168358D02*
X0084100Y0168358D01*
X0084100Y0167360D02*
X0158200Y0167360D01*
X0158200Y0166361D02*
X0084100Y0166361D01*
X0078332Y0185333D02*
X0074049Y0185333D01*
X0069323Y0179342D02*
X0069100Y0179342D01*
X0053900Y0169357D02*
X0053692Y0169357D01*
X0049308Y0169357D02*
X0043692Y0169357D01*
X0049100Y0153381D02*
X0058900Y0153381D01*
X0058900Y0154379D02*
X0058714Y0154379D01*
X0058900Y0152382D02*
X0049100Y0152382D01*
X0049100Y0151384D02*
X0058900Y0151384D01*
X0070746Y0121313D02*
X0069354Y0120736D01*
X0068742Y0120124D01*
X0044258Y0120124D01*
X0043646Y0120736D01*
X0042254Y0121313D01*
X0040746Y0121313D01*
X0039354Y0120736D01*
X0038288Y0119670D01*
X0037711Y0118277D01*
X0037711Y0116770D01*
X0038288Y0115377D01*
X0039354Y0114311D01*
X0040746Y0113735D01*
X0042254Y0113735D01*
X0043646Y0114311D01*
X0044258Y0114924D01*
X0048542Y0114924D01*
X0048288Y0114670D01*
X0047711Y0113277D01*
X0047711Y0111770D01*
X0048288Y0110377D01*
X0049354Y0109311D01*
X0050746Y0108735D01*
X0052254Y0108735D01*
X0053646Y0109311D01*
X0054258Y0109924D01*
X0068742Y0109924D01*
X0069354Y0109311D01*
X0070746Y0108735D01*
X0072254Y0108735D01*
X0073646Y0109311D01*
X0074712Y0110377D01*
X0075289Y0111770D01*
X0075289Y0113277D01*
X0074712Y0114670D01*
X0074358Y0115024D01*
X0074712Y0115377D01*
X0075289Y0116770D01*
X0075289Y0118277D01*
X0074712Y0119670D01*
X0073646Y0120736D01*
X0072254Y0121313D01*
X0070746Y0121313D01*
X0069048Y0120430D02*
X0043952Y0120430D01*
X0041500Y0117524D02*
X0071500Y0117524D01*
X0075289Y0117434D02*
X0078900Y0117434D01*
X0078900Y0116436D02*
X0075151Y0116436D01*
X0074737Y0115437D02*
X0078900Y0115437D01*
X0078900Y0114439D02*
X0074808Y0114439D01*
X0075221Y0113440D02*
X0078900Y0113440D01*
X0078900Y0112442D02*
X0075289Y0112442D01*
X0075154Y0111443D02*
X0078900Y0111443D01*
X0078900Y0110445D02*
X0074740Y0110445D01*
X0073781Y0109446D02*
X0078900Y0109446D01*
X0078900Y0108448D02*
X0020627Y0108448D01*
X0019765Y0107449D02*
X0078900Y0107449D01*
X0078900Y0106451D02*
X0020775Y0106451D01*
X0021565Y0105452D02*
X0059070Y0105452D01*
X0059354Y0105736D02*
X0058288Y0104670D01*
X0057711Y0103277D01*
X0057711Y0101770D01*
X0058288Y0100377D01*
X0059354Y0099311D01*
X0060746Y0098735D01*
X0062254Y0098735D01*
X0063646Y0099311D01*
X0064258Y0099924D01*
X0068742Y0099924D01*
X0069354Y0099311D01*
X0070746Y0098735D01*
X0072254Y0098735D01*
X0073646Y0099311D01*
X0074712Y0100377D01*
X0075289Y0101770D01*
X0075289Y0103277D01*
X0074712Y0104670D01*
X0073646Y0105736D01*
X0072254Y0106313D01*
X0070746Y0106313D01*
X0069354Y0105736D01*
X0068742Y0105124D01*
X0064258Y0105124D01*
X0063646Y0105736D01*
X0062254Y0106313D01*
X0060746Y0106313D01*
X0059354Y0105736D01*
X0058198Y0104454D02*
X0021978Y0104454D01*
X0022300Y0103455D02*
X0057785Y0103455D01*
X0057711Y0102457D02*
X0022300Y0102457D01*
X0022300Y0101458D02*
X0057840Y0101458D01*
X0058254Y0100460D02*
X0021923Y0100460D01*
X0021509Y0099461D02*
X0059204Y0099461D01*
X0061500Y0102524D02*
X0071500Y0102524D01*
X0075289Y0102457D02*
X0078900Y0102457D01*
X0078900Y0103455D02*
X0075215Y0103455D01*
X0074802Y0104454D02*
X0078900Y0104454D01*
X0078900Y0105452D02*
X0073930Y0105452D01*
X0075160Y0101458D02*
X0078900Y0101458D01*
X0078900Y0100460D02*
X0074746Y0100460D01*
X0073796Y0099461D02*
X0078900Y0099461D01*
X0078900Y0098463D02*
X0020641Y0098463D01*
X0019441Y0097464D02*
X0078900Y0097464D01*
X0069204Y0099461D02*
X0063796Y0099461D01*
X0063930Y0105452D02*
X0069070Y0105452D01*
X0069219Y0109446D02*
X0053781Y0109446D01*
X0051500Y0112524D02*
X0071500Y0112524D01*
X0075225Y0118433D02*
X0078900Y0118433D01*
X0078900Y0119431D02*
X0074811Y0119431D01*
X0073952Y0120430D02*
X0078266Y0120430D01*
X0077853Y0121428D02*
X0022300Y0121428D01*
X0022300Y0122427D02*
X0077711Y0122427D01*
X0077772Y0123425D02*
X0022300Y0123425D01*
X0021991Y0124424D02*
X0078186Y0124424D01*
X0049219Y0109446D02*
X0021503Y0109446D01*
X0021917Y0110445D02*
X0048260Y0110445D01*
X0047846Y0111443D02*
X0022300Y0111443D01*
X0022300Y0112442D02*
X0047711Y0112442D01*
X0047779Y0113440D02*
X0022300Y0113440D01*
X0021985Y0114439D02*
X0039226Y0114439D01*
X0038263Y0115437D02*
X0021571Y0115437D01*
X0020790Y0116436D02*
X0037849Y0116436D01*
X0037711Y0117434D02*
X0019792Y0117434D01*
X0020612Y0118433D02*
X0037775Y0118433D01*
X0038189Y0119431D02*
X0021497Y0119431D01*
X0021911Y0120430D02*
X0039048Y0120430D01*
X0043774Y0114439D02*
X0048192Y0114439D01*
X0034256Y0134409D02*
X0033744Y0134409D01*
X0012493Y0188329D02*
X0006500Y0188329D01*
X0006500Y0189327D02*
X0011546Y0189327D01*
X0011133Y0190326D02*
X0006500Y0190326D01*
X0006500Y0191324D02*
X0010719Y0191324D01*
X0010700Y0192323D02*
X0006500Y0192323D01*
X0006500Y0193321D02*
X0010700Y0193321D01*
X0010966Y0194320D02*
X0006500Y0194320D01*
X0006500Y0195318D02*
X0011380Y0195318D01*
X0012091Y0196317D02*
X0006500Y0196317D01*
X0006500Y0197315D02*
X0013089Y0197315D01*
X0006500Y0312144D02*
X0216500Y0312144D01*
X0216500Y0313143D02*
X0006500Y0313143D01*
X0006500Y0314141D02*
X0216500Y0314141D01*
X0216500Y0315140D02*
X0006500Y0315140D01*
X0006500Y0316138D02*
X0216500Y0316138D01*
X0216500Y0317137D02*
X0006500Y0317137D01*
X0006500Y0318135D02*
X0216500Y0318135D01*
X0216500Y0319134D02*
X0006500Y0319134D01*
X0006500Y0320132D02*
X0216500Y0320132D01*
X0216500Y0321131D02*
X0006500Y0321131D01*
X0006500Y0322129D02*
X0216500Y0322129D01*
X0216500Y0323128D02*
X0006500Y0323128D01*
X0006500Y0324126D02*
X0216500Y0324126D01*
X0216500Y0325125D02*
X0006500Y0325125D01*
X0006500Y0326123D02*
X0216500Y0326123D01*
X0216500Y0327122D02*
X0006500Y0327122D01*
X0006500Y0328120D02*
X0216500Y0328120D01*
X0216500Y0329119D02*
X0006500Y0329119D01*
X0006500Y0330117D02*
X0216500Y0330117D01*
X0216500Y0331116D02*
X0006500Y0331116D01*
X0006500Y0332114D02*
X0216500Y0332114D01*
X0216500Y0333113D02*
X0205030Y0333113D01*
X0205079Y0333126D02*
X0205421Y0333323D01*
X0205700Y0333603D01*
X0205898Y0333945D01*
X0206000Y0334326D01*
X0206000Y0337024D01*
X0202000Y0337024D01*
X0202000Y0338024D01*
X0201000Y0338024D01*
X0201000Y0342024D01*
X0198303Y0342024D01*
X0197921Y0341921D01*
X0197579Y0341724D01*
X0197300Y0341445D01*
X0197102Y0341103D01*
X0197000Y0340721D01*
X0197000Y0338024D01*
X0201000Y0338024D01*
X0201000Y0337024D01*
X0197000Y0337024D01*
X0197000Y0334326D01*
X0197102Y0333945D01*
X0197300Y0333603D01*
X0197579Y0333323D01*
X0197921Y0333126D01*
X0198303Y0333024D01*
X0201000Y0333024D01*
X0201000Y0337024D01*
X0202000Y0337024D01*
X0202000Y0333024D01*
X0204697Y0333024D01*
X0205079Y0333126D01*
X0205942Y0334111D02*
X0216500Y0334111D01*
X0216500Y0335110D02*
X0206000Y0335110D01*
X0206000Y0336108D02*
X0216500Y0336108D01*
X0216500Y0337107D02*
X0202000Y0337107D01*
X0202000Y0338024D02*
X0206000Y0338024D01*
X0206000Y0340721D01*
X0205898Y0341103D01*
X0205700Y0341445D01*
X0205421Y0341724D01*
X0205079Y0341921D01*
X0204697Y0342024D01*
X0202000Y0342024D01*
X0202000Y0338024D01*
X0202000Y0338105D02*
X0201000Y0338105D01*
X0201000Y0337107D02*
X0176231Y0337107D01*
X0176250Y0337229D02*
X0176250Y0337413D01*
X0171689Y0337413D01*
X0171689Y0332852D01*
X0171874Y0332852D01*
X0172612Y0332969D01*
X0173323Y0333200D01*
X0173990Y0333540D01*
X0174594Y0333979D01*
X0175123Y0334508D01*
X0175563Y0335113D01*
X0175902Y0335779D01*
X0176133Y0336490D01*
X0176250Y0337229D01*
X0176250Y0337791D02*
X0176250Y0337976D01*
X0176133Y0338715D01*
X0175902Y0339426D01*
X0175563Y0340092D01*
X0175123Y0340697D01*
X0174594Y0341225D01*
X0173990Y0341665D01*
X0173323Y0342004D01*
X0173045Y0342095D01*
X0175620Y0342095D01*
X0176850Y0343325D01*
X0176850Y0351565D01*
X0175620Y0352795D01*
X0167380Y0352795D01*
X0166150Y0351565D01*
X0166150Y0343325D01*
X0167380Y0342095D01*
X0169955Y0342095D01*
X0169677Y0342004D01*
X0169010Y0341665D01*
X0168406Y0341225D01*
X0167877Y0340697D01*
X0167437Y0340092D01*
X0167098Y0339426D01*
X0166867Y0338715D01*
X0166750Y0337976D01*
X0166750Y0337791D01*
X0171311Y0337791D01*
X0171311Y0337413D01*
X0171689Y0337413D01*
X0171689Y0337791D01*
X0176250Y0337791D01*
X0176230Y0338105D02*
X0197000Y0338105D01*
X0197000Y0339104D02*
X0176007Y0339104D01*
X0175555Y0340102D02*
X0197000Y0340102D01*
X0197102Y0341101D02*
X0174719Y0341101D01*
X0175624Y0342099D02*
X0216500Y0342099D01*
X0216500Y0341101D02*
X0205898Y0341101D01*
X0206000Y0340102D02*
X0216500Y0340102D01*
X0216500Y0339104D02*
X0206000Y0339104D01*
X0206000Y0338105D02*
X0216500Y0338105D01*
X0216500Y0343098D02*
X0206044Y0343098D01*
X0206600Y0343654D02*
X0206600Y0351393D01*
X0205370Y0352624D01*
X0197630Y0352624D01*
X0196400Y0351393D01*
X0196400Y0343654D01*
X0197630Y0342424D01*
X0205370Y0342424D01*
X0206600Y0343654D01*
X0206600Y0344096D02*
X0216500Y0344096D01*
X0216500Y0345095D02*
X0206600Y0345095D01*
X0206600Y0346093D02*
X0216500Y0346093D01*
X0216500Y0347092D02*
X0206600Y0347092D01*
X0206600Y0348090D02*
X0216500Y0348090D01*
X0216500Y0349089D02*
X0206600Y0349089D01*
X0206600Y0350087D02*
X0216500Y0350087D01*
X0216500Y0351086D02*
X0206600Y0351086D01*
X0205909Y0352084D02*
X0216500Y0352084D01*
X0216500Y0353083D02*
X0006500Y0353083D01*
X0006500Y0354081D02*
X0216500Y0354081D01*
X0216500Y0355080D02*
X0006500Y0355080D01*
X0006500Y0356079D02*
X0216500Y0356079D01*
X0216500Y0357077D02*
X0006500Y0357077D01*
X0007052Y0358076D02*
X0215948Y0358076D01*
X0214950Y0359074D02*
X0008050Y0359074D01*
X0009049Y0360073D02*
X0213951Y0360073D01*
X0212953Y0361071D02*
X0010047Y0361071D01*
X0011046Y0362070D02*
X0211954Y0362070D01*
X0202000Y0341101D02*
X0201000Y0341101D01*
X0201000Y0340102D02*
X0202000Y0340102D01*
X0202000Y0339104D02*
X0201000Y0339104D01*
X0201000Y0336108D02*
X0202000Y0336108D01*
X0202000Y0335110D02*
X0201000Y0335110D01*
X0201000Y0334111D02*
X0202000Y0334111D01*
X0202000Y0333113D02*
X0201000Y0333113D01*
X0197970Y0333113D02*
X0173054Y0333113D01*
X0171689Y0333113D02*
X0171311Y0333113D01*
X0171311Y0332852D02*
X0171311Y0337413D01*
X0166750Y0337413D01*
X0166750Y0337229D01*
X0166867Y0336490D01*
X0167098Y0335779D01*
X0167437Y0335113D01*
X0167877Y0334508D01*
X0168406Y0333979D01*
X0169010Y0333540D01*
X0169677Y0333200D01*
X0170388Y0332969D01*
X0171126Y0332852D01*
X0171311Y0332852D01*
X0171311Y0334111D02*
X0171689Y0334111D01*
X0171689Y0335110D02*
X0171311Y0335110D01*
X0171311Y0336108D02*
X0171689Y0336108D01*
X0171689Y0337107D02*
X0171311Y0337107D01*
X0169946Y0333113D02*
X0006500Y0333113D01*
X0006500Y0334111D02*
X0168274Y0334111D01*
X0167440Y0335110D02*
X0006500Y0335110D01*
X0006500Y0336108D02*
X0166991Y0336108D01*
X0166769Y0337107D02*
X0006500Y0337107D01*
X0006500Y0338105D02*
X0166770Y0338105D01*
X0166993Y0339104D02*
X0006500Y0339104D01*
X0006500Y0340102D02*
X0167445Y0340102D01*
X0168281Y0341101D02*
X0006500Y0341101D01*
X0006500Y0342099D02*
X0167376Y0342099D01*
X0166377Y0343098D02*
X0006500Y0343098D01*
X0006500Y0344096D02*
X0166150Y0344096D01*
X0166150Y0345095D02*
X0006500Y0345095D01*
X0006500Y0346093D02*
X0166150Y0346093D01*
X0166150Y0347092D02*
X0006500Y0347092D01*
X0006500Y0348090D02*
X0166150Y0348090D01*
X0166150Y0349089D02*
X0006500Y0349089D01*
X0006500Y0350087D02*
X0166150Y0350087D01*
X0166150Y0351086D02*
X0006500Y0351086D01*
X0006500Y0352084D02*
X0166670Y0352084D01*
X0176009Y0336108D02*
X0197000Y0336108D01*
X0197000Y0335110D02*
X0175560Y0335110D01*
X0174726Y0334111D02*
X0197058Y0334111D01*
X0196956Y0343098D02*
X0176623Y0343098D01*
X0176850Y0344096D02*
X0196400Y0344096D01*
X0196400Y0345095D02*
X0176850Y0345095D01*
X0176850Y0346093D02*
X0196400Y0346093D01*
X0196400Y0347092D02*
X0176850Y0347092D01*
X0176850Y0348090D02*
X0196400Y0348090D01*
X0196400Y0349089D02*
X0176850Y0349089D01*
X0176850Y0350087D02*
X0196400Y0350087D01*
X0196400Y0351086D02*
X0176850Y0351086D01*
X0176330Y0352084D02*
X0197091Y0352084D01*
X0149657Y0284186D02*
X0124913Y0284186D01*
X0135509Y0289178D02*
X0148084Y0289178D01*
X0148200Y0290177D02*
X0136507Y0290177D01*
X0136700Y0291175D02*
X0148200Y0291175D01*
X0128924Y0308150D02*
X0124076Y0308150D01*
X0125075Y0307151D02*
X0127925Y0307151D01*
X0126927Y0306153D02*
X0126073Y0306153D01*
X0118924Y0308150D02*
X0114076Y0308150D01*
X0115075Y0307151D02*
X0117925Y0307151D01*
X0116927Y0306153D02*
X0116073Y0306153D01*
X0108924Y0308150D02*
X0104076Y0308150D01*
X0105075Y0307151D02*
X0107925Y0307151D01*
X0106927Y0306153D02*
X0106073Y0306153D01*
X0098924Y0308150D02*
X0094076Y0308150D01*
X0095075Y0307151D02*
X0097925Y0307151D01*
X0096927Y0306153D02*
X0096073Y0306153D01*
X0096357Y0289178D02*
X0096643Y0289178D01*
X0097641Y0288180D02*
X0095359Y0288180D01*
X0094360Y0287181D02*
X0098640Y0287181D01*
X0104360Y0287181D02*
X0108640Y0287181D01*
X0107641Y0288180D02*
X0105359Y0288180D01*
X0106357Y0289178D02*
X0106643Y0289178D01*
X0206000Y0191324D02*
X0207000Y0191324D01*
X0207000Y0190326D02*
X0206000Y0190326D01*
X0206000Y0189327D02*
X0207000Y0189327D01*
X0210053Y0191324D02*
X0216500Y0191324D01*
X0216500Y0190326D02*
X0210892Y0190326D01*
X0211382Y0189327D02*
X0216500Y0189327D01*
X0216500Y0188329D02*
X0211637Y0188329D01*
X0211640Y0198314D02*
X0216500Y0198314D01*
X0216500Y0199312D02*
X0211386Y0199312D01*
X0210903Y0200311D02*
X0216500Y0200311D01*
X0216500Y0201309D02*
X0210068Y0201309D01*
X0209064Y0202308D02*
X0216500Y0202308D01*
X0216500Y0203306D02*
X0210485Y0203306D01*
X0211445Y0204305D02*
X0216500Y0204305D01*
X0216500Y0205303D02*
X0211858Y0205303D01*
X0212272Y0206302D02*
X0216500Y0206302D01*
X0216500Y0207300D02*
X0212300Y0207300D01*
X0212300Y0208299D02*
X0216500Y0208299D01*
X0216500Y0209297D02*
X0212043Y0209297D01*
X0211630Y0210296D02*
X0216500Y0210296D01*
X0216500Y0211294D02*
X0210932Y0211294D01*
X0209933Y0212293D02*
X0216500Y0212293D01*
X0216500Y0213291D02*
X0207731Y0213291D01*
X0216500Y0091473D02*
X0136700Y0091473D01*
X0136700Y0090474D02*
X0216500Y0090474D01*
X0216500Y0089476D02*
X0135806Y0089476D01*
X0134808Y0088477D02*
X0216500Y0088477D01*
X0216500Y0087479D02*
X0133809Y0087479D01*
M02*
