%
M48
M72
T01C0.0138
T02C0.0276
T03C0.0400
%
T01
X6150Y10252
X5150Y11252
X4150Y11752
X3650Y13752
X3150Y13752
X2650Y13752
X3150Y16752
X3650Y16752
X4150Y17252
X4650Y17752
X5150Y17252
X4650Y15752
X5650Y15752
X5650Y14752
X5650Y13752
X6650Y14752
X8150Y13752
X8150Y12252
X7150Y11752
X7150Y11252
X7150Y10252
X8150Y8752
X11650Y12752
X11650Y18252
X12150Y22752
X15150Y23752
X16150Y23752
X16150Y24752
X15150Y25752
X15150Y28752
X16150Y28752
X16150Y29752
X15150Y30752
X12150Y28252
X8150Y27252
X7150Y26752
X7150Y26252
X7150Y25252
X8150Y23752
X8150Y22252
X7150Y21752
X7150Y21252
X7150Y20252
X6650Y18752
X7150Y18252
X8150Y17752
X8150Y18752
X6150Y20252
X5150Y21252
X4150Y20752
X4150Y21752
X3150Y21752
X3150Y22752
X5150Y26252
X6150Y25252
X4150Y26752
X3150Y28252
X2650Y18752
X4650Y18752
X5650Y18752
X4650Y13752
X15150Y13752
X16150Y13752
X16150Y14752
X16150Y16252
X16150Y17252
X17150Y17252
X17150Y16252
X16150Y18752
X16150Y19752
X15150Y18752
X15150Y20752
X15150Y16252
T02
X17150Y33760
X17150Y34744
T03
X1650Y10252
X1650Y11252
X1650Y12252
X1650Y13252
X1650Y14252
X1650Y15252
X1650Y16252
X1650Y17252
X1650Y18252
X1650Y19252
X1650Y20752
X1650Y21752
X1650Y22752
X1650Y23752
X1650Y24752
X1650Y25752
X1650Y26752
X1650Y27752
X9150Y29252
X9150Y30252
X10150Y30252
X10150Y29252
X11150Y29252
X11150Y30252
X12150Y30252
X12150Y29252
X13150Y29252
X13150Y30252
X13150Y25252
X13150Y24252
X12150Y24252
X12150Y25252
X11150Y25252
X11150Y24252
X10150Y24252
X10150Y25252
X9150Y25252
X9150Y24252
X9150Y20252
X9150Y19252
X10150Y19252
X10150Y20252
X11150Y20252
X11150Y19252
X12150Y19252
X12150Y20252
X13150Y20252
X13150Y19252
X13150Y15252
X13150Y14252
X12150Y14252
X12150Y15252
X11150Y15252
X11150Y14252
X10150Y14252
X10150Y15252
X9150Y15252
X9150Y14252
X9150Y10252
X9150Y9252
X10150Y9252
X10150Y10252
X11150Y10252
X11150Y9252
X12150Y9252
X12150Y10252
X13150Y10252
X13150Y9252
X20650Y13752
X20650Y14752
X20650Y15752
X20650Y16752
X20650Y17752
X20650Y18752
X20650Y19752
X20650Y20752
X20650Y22752
X20650Y23752
X20650Y24752
X20650Y25752
X20650Y26752
X20650Y27752
X20150Y33752
X20150Y34752
M30
