G75*
%MOIN*%
%OFA0B0*%
%FSLAX25Y25*%
%IPPOS*%
%LPD*%
%AMOC8*
5,1,8,0,0,1.08239X$1,22.5*
%
%ADD10C,0.01100*%
%ADD11C,0.00600*%
%ADD12C,0.00500*%
%ADD13C,0.00800*%
D10*
X0193361Y0323074D02*
X0195328Y0323074D01*
X0195328Y0326351D01*
X0194344Y0326351D01*
X0192050Y0327663D02*
X0192052Y0327734D01*
X0192058Y0327805D01*
X0192067Y0327875D01*
X0192081Y0327945D01*
X0192098Y0328014D01*
X0192119Y0328082D01*
X0192143Y0328148D01*
X0192171Y0328213D01*
X0192203Y0328277D01*
X0192238Y0328339D01*
X0192276Y0328399D01*
X0192317Y0328456D01*
X0192362Y0328512D01*
X0192409Y0328565D01*
X0192459Y0328615D01*
X0192512Y0328662D01*
X0192568Y0328707D01*
X0192625Y0328748D01*
X0192685Y0328786D01*
X0192747Y0328821D01*
X0192811Y0328853D01*
X0192876Y0328881D01*
X0192942Y0328905D01*
X0193010Y0328926D01*
X0193079Y0328943D01*
X0193149Y0328957D01*
X0193219Y0328966D01*
X0193290Y0328972D01*
X0193361Y0328974D01*
X0195328Y0328974D01*
X0192050Y0327663D02*
X0192050Y0324385D01*
X0192052Y0324314D01*
X0192058Y0324243D01*
X0192067Y0324173D01*
X0192081Y0324103D01*
X0192098Y0324034D01*
X0192119Y0323966D01*
X0192143Y0323900D01*
X0192171Y0323835D01*
X0192203Y0323771D01*
X0192238Y0323709D01*
X0192276Y0323649D01*
X0192317Y0323592D01*
X0192362Y0323536D01*
X0192409Y0323483D01*
X0192459Y0323433D01*
X0192512Y0323386D01*
X0192568Y0323341D01*
X0192625Y0323300D01*
X0192685Y0323262D01*
X0192747Y0323227D01*
X0192811Y0323195D01*
X0192876Y0323167D01*
X0192942Y0323143D01*
X0193010Y0323122D01*
X0193079Y0323105D01*
X0193149Y0323091D01*
X0193219Y0323082D01*
X0193290Y0323076D01*
X0193361Y0323074D01*
X0198614Y0323074D02*
X0198614Y0328974D01*
X0201892Y0323074D01*
X0201892Y0328974D01*
X0205179Y0328974D02*
X0205179Y0323074D01*
X0206817Y0323074D01*
X0206895Y0323076D01*
X0206973Y0323081D01*
X0207050Y0323091D01*
X0207127Y0323104D01*
X0207203Y0323120D01*
X0207279Y0323140D01*
X0207353Y0323164D01*
X0207426Y0323191D01*
X0207498Y0323222D01*
X0207568Y0323256D01*
X0207637Y0323294D01*
X0207703Y0323334D01*
X0207768Y0323378D01*
X0207830Y0323425D01*
X0207890Y0323474D01*
X0207948Y0323527D01*
X0208003Y0323582D01*
X0208056Y0323640D01*
X0208105Y0323700D01*
X0208152Y0323762D01*
X0208196Y0323827D01*
X0208236Y0323894D01*
X0208274Y0323962D01*
X0208308Y0324032D01*
X0208339Y0324104D01*
X0208366Y0324177D01*
X0208390Y0324251D01*
X0208410Y0324327D01*
X0208426Y0324403D01*
X0208439Y0324480D01*
X0208449Y0324557D01*
X0208454Y0324635D01*
X0208456Y0324713D01*
X0208456Y0327335D01*
X0208454Y0327413D01*
X0208449Y0327491D01*
X0208439Y0327568D01*
X0208426Y0327645D01*
X0208410Y0327721D01*
X0208390Y0327797D01*
X0208366Y0327871D01*
X0208339Y0327944D01*
X0208308Y0328016D01*
X0208274Y0328086D01*
X0208236Y0328155D01*
X0208196Y0328221D01*
X0208152Y0328286D01*
X0208105Y0328348D01*
X0208056Y0328408D01*
X0208003Y0328466D01*
X0207948Y0328521D01*
X0207890Y0328574D01*
X0207830Y0328623D01*
X0207768Y0328670D01*
X0207703Y0328714D01*
X0207637Y0328754D01*
X0207568Y0328792D01*
X0207498Y0328826D01*
X0207426Y0328857D01*
X0207353Y0328884D01*
X0207279Y0328908D01*
X0207203Y0328928D01*
X0207127Y0328944D01*
X0207050Y0328957D01*
X0206973Y0328967D01*
X0206895Y0328972D01*
X0206817Y0328974D01*
X0205179Y0328974D01*
X0204843Y0358074D02*
X0206810Y0363974D01*
X0202876Y0363974D02*
X0204843Y0358074D01*
X0200328Y0359385D02*
X0200328Y0360040D01*
X0200326Y0360111D01*
X0200320Y0360182D01*
X0200311Y0360252D01*
X0200297Y0360322D01*
X0200280Y0360391D01*
X0200259Y0360459D01*
X0200235Y0360525D01*
X0200207Y0360590D01*
X0200175Y0360654D01*
X0200140Y0360716D01*
X0200102Y0360776D01*
X0200061Y0360833D01*
X0200016Y0360889D01*
X0199969Y0360942D01*
X0199919Y0360992D01*
X0199866Y0361039D01*
X0199810Y0361084D01*
X0199753Y0361125D01*
X0199693Y0361163D01*
X0199631Y0361198D01*
X0199567Y0361230D01*
X0199502Y0361258D01*
X0199436Y0361282D01*
X0199368Y0361303D01*
X0199299Y0361320D01*
X0199229Y0361334D01*
X0199159Y0361343D01*
X0199088Y0361349D01*
X0199017Y0361351D01*
X0197050Y0361351D01*
X0197050Y0363974D01*
X0200328Y0363974D01*
X0200328Y0359385D02*
X0200326Y0359314D01*
X0200320Y0359243D01*
X0200311Y0359173D01*
X0200297Y0359103D01*
X0200280Y0359034D01*
X0200259Y0358966D01*
X0200235Y0358900D01*
X0200207Y0358835D01*
X0200175Y0358771D01*
X0200140Y0358709D01*
X0200102Y0358649D01*
X0200061Y0358592D01*
X0200016Y0358536D01*
X0199969Y0358483D01*
X0199919Y0358433D01*
X0199866Y0358386D01*
X0199810Y0358341D01*
X0199753Y0358300D01*
X0199693Y0358262D01*
X0199631Y0358227D01*
X0199567Y0358195D01*
X0199502Y0358167D01*
X0199436Y0358143D01*
X0199368Y0358122D01*
X0199299Y0358105D01*
X0199229Y0358091D01*
X0199159Y0358082D01*
X0199088Y0358076D01*
X0199017Y0358074D01*
X0197050Y0358074D01*
D11*
X0026776Y0100824D02*
X0026020Y0100824D01*
X0026020Y0100823D02*
X0025966Y0100825D01*
X0025912Y0100831D01*
X0025859Y0100840D01*
X0025807Y0100854D01*
X0025756Y0100871D01*
X0025706Y0100891D01*
X0025658Y0100915D01*
X0025611Y0100943D01*
X0025567Y0100974D01*
X0025525Y0101008D01*
X0025485Y0101044D01*
X0025449Y0101084D01*
X0025415Y0101126D01*
X0025384Y0101170D01*
X0025356Y0101217D01*
X0025332Y0101265D01*
X0025312Y0101315D01*
X0025295Y0101366D01*
X0025281Y0101418D01*
X0025272Y0101471D01*
X0025266Y0101525D01*
X0025264Y0101579D01*
X0025265Y0101579D02*
X0025265Y0103468D01*
X0025267Y0103522D01*
X0025273Y0103576D01*
X0025282Y0103629D01*
X0025296Y0103681D01*
X0025313Y0103732D01*
X0025333Y0103782D01*
X0025357Y0103830D01*
X0025385Y0103877D01*
X0025416Y0103921D01*
X0025450Y0103963D01*
X0025486Y0104003D01*
X0025526Y0104039D01*
X0025568Y0104073D01*
X0025612Y0104104D01*
X0025659Y0104132D01*
X0025707Y0104156D01*
X0025757Y0104176D01*
X0025808Y0104193D01*
X0025860Y0104207D01*
X0025913Y0104216D01*
X0025967Y0104222D01*
X0026021Y0104224D01*
X0026020Y0104224D02*
X0026776Y0104224D01*
X0028410Y0104224D02*
X0028410Y0100824D01*
X0029921Y0100824D01*
X0028931Y0110824D02*
X0030064Y0114224D01*
X0031198Y0110824D01*
X0030914Y0111674D02*
X0029214Y0111674D01*
X0027289Y0111768D02*
X0027289Y0113279D01*
X0027288Y0113279D02*
X0027286Y0113338D01*
X0027281Y0113397D01*
X0027271Y0113456D01*
X0027258Y0113514D01*
X0027242Y0113571D01*
X0027222Y0113627D01*
X0027198Y0113681D01*
X0027171Y0113734D01*
X0027141Y0113785D01*
X0027108Y0113834D01*
X0027071Y0113881D01*
X0027032Y0113925D01*
X0026990Y0113967D01*
X0026946Y0114006D01*
X0026899Y0114043D01*
X0026850Y0114076D01*
X0026799Y0114106D01*
X0026746Y0114133D01*
X0026692Y0114157D01*
X0026636Y0114177D01*
X0026579Y0114193D01*
X0026521Y0114206D01*
X0026462Y0114216D01*
X0026403Y0114221D01*
X0026344Y0114223D01*
X0026344Y0114224D02*
X0025400Y0114224D01*
X0025400Y0110824D01*
X0026344Y0110824D01*
X0026403Y0110826D01*
X0026462Y0110831D01*
X0026521Y0110841D01*
X0026579Y0110854D01*
X0026636Y0110870D01*
X0026692Y0110890D01*
X0026746Y0110914D01*
X0026799Y0110941D01*
X0026850Y0110971D01*
X0026899Y0111004D01*
X0026946Y0111041D01*
X0026990Y0111080D01*
X0027032Y0111122D01*
X0027071Y0111166D01*
X0027108Y0111213D01*
X0027141Y0111262D01*
X0027171Y0111313D01*
X0027198Y0111366D01*
X0027222Y0111420D01*
X0027242Y0111476D01*
X0027258Y0111533D01*
X0027271Y0111591D01*
X0027281Y0111650D01*
X0027286Y0111709D01*
X0027288Y0111768D01*
X0023311Y0112240D02*
X0022272Y0112807D01*
X0022650Y0114224D02*
X0022720Y0114222D01*
X0022790Y0114217D01*
X0022860Y0114208D01*
X0022929Y0114196D01*
X0022997Y0114181D01*
X0023065Y0114162D01*
X0023131Y0114140D01*
X0023197Y0114114D01*
X0023261Y0114086D01*
X0023323Y0114054D01*
X0023384Y0114019D01*
X0023443Y0113981D01*
X0023500Y0113941D01*
X0022273Y0112807D02*
X0022228Y0112836D01*
X0022185Y0112867D01*
X0022145Y0112902D01*
X0022107Y0112939D01*
X0022072Y0112978D01*
X0022039Y0113020D01*
X0022010Y0113065D01*
X0021983Y0113111D01*
X0021960Y0113159D01*
X0021940Y0113208D01*
X0021924Y0113258D01*
X0021911Y0113310D01*
X0021902Y0113362D01*
X0021897Y0113415D01*
X0021895Y0113468D01*
X0021894Y0113468D02*
X0021896Y0113522D01*
X0021902Y0113576D01*
X0021911Y0113629D01*
X0021925Y0113681D01*
X0021942Y0113732D01*
X0021962Y0113782D01*
X0021986Y0113830D01*
X0022014Y0113877D01*
X0022045Y0113921D01*
X0022079Y0113963D01*
X0022115Y0114003D01*
X0022155Y0114039D01*
X0022197Y0114073D01*
X0022241Y0114104D01*
X0022288Y0114132D01*
X0022336Y0114156D01*
X0022386Y0114176D01*
X0022437Y0114193D01*
X0022489Y0114207D01*
X0022542Y0114216D01*
X0022596Y0114222D01*
X0022650Y0114224D01*
X0021800Y0111296D02*
X0021857Y0111242D01*
X0021916Y0111190D01*
X0021978Y0111141D01*
X0022042Y0111096D01*
X0022109Y0111053D01*
X0022177Y0111014D01*
X0022247Y0110979D01*
X0022319Y0110947D01*
X0022393Y0110918D01*
X0022467Y0110893D01*
X0022543Y0110872D01*
X0022620Y0110855D01*
X0022698Y0110841D01*
X0022776Y0110832D01*
X0022854Y0110826D01*
X0022933Y0110824D01*
X0022933Y0110823D02*
X0022987Y0110825D01*
X0023041Y0110831D01*
X0023094Y0110840D01*
X0023146Y0110854D01*
X0023197Y0110871D01*
X0023247Y0110891D01*
X0023295Y0110915D01*
X0023342Y0110943D01*
X0023386Y0110974D01*
X0023428Y0111008D01*
X0023468Y0111044D01*
X0023504Y0111084D01*
X0023538Y0111126D01*
X0023569Y0111170D01*
X0023597Y0111217D01*
X0023621Y0111265D01*
X0023641Y0111315D01*
X0023658Y0111366D01*
X0023672Y0111418D01*
X0023681Y0111471D01*
X0023687Y0111525D01*
X0023689Y0111579D01*
X0023687Y0111632D01*
X0023682Y0111685D01*
X0023673Y0111737D01*
X0023660Y0111789D01*
X0023644Y0111839D01*
X0023624Y0111888D01*
X0023601Y0111936D01*
X0023574Y0111982D01*
X0023545Y0112027D01*
X0023512Y0112069D01*
X0023477Y0112108D01*
X0023439Y0112145D01*
X0023399Y0112180D01*
X0023356Y0112211D01*
X0023311Y0112240D01*
X0024067Y0120824D02*
X0022933Y0124224D01*
X0021800Y0120824D01*
X0022083Y0121674D02*
X0023783Y0121674D01*
X0025742Y0122335D02*
X0026687Y0122335D01*
X0026876Y0122335D02*
X0027631Y0120824D01*
X0029439Y0120824D02*
X0029439Y0124224D01*
X0030950Y0124224D01*
X0030572Y0122712D02*
X0029439Y0122712D01*
X0029439Y0120824D02*
X0030950Y0120824D01*
X0032559Y0120824D02*
X0032559Y0124224D01*
X0034070Y0124224D01*
X0034070Y0122712D02*
X0032559Y0122712D01*
X0026687Y0122335D02*
X0026747Y0122337D01*
X0026808Y0122343D01*
X0026867Y0122352D01*
X0026926Y0122366D01*
X0026984Y0122383D01*
X0027041Y0122404D01*
X0027097Y0122428D01*
X0027150Y0122456D01*
X0027202Y0122488D01*
X0027252Y0122522D01*
X0027299Y0122560D01*
X0027344Y0122601D01*
X0027386Y0122644D01*
X0027425Y0122690D01*
X0027461Y0122739D01*
X0027494Y0122790D01*
X0027524Y0122842D01*
X0027550Y0122897D01*
X0027573Y0122953D01*
X0027592Y0123010D01*
X0027607Y0123069D01*
X0027619Y0123128D01*
X0027627Y0123188D01*
X0027631Y0123249D01*
X0027631Y0123309D01*
X0027627Y0123370D01*
X0027619Y0123430D01*
X0027607Y0123489D01*
X0027592Y0123548D01*
X0027573Y0123605D01*
X0027550Y0123661D01*
X0027524Y0123716D01*
X0027494Y0123768D01*
X0027461Y0123819D01*
X0027425Y0123868D01*
X0027386Y0123914D01*
X0027344Y0123957D01*
X0027299Y0123998D01*
X0027252Y0124036D01*
X0027202Y0124070D01*
X0027150Y0124102D01*
X0027097Y0124130D01*
X0027041Y0124154D01*
X0026984Y0124175D01*
X0026926Y0124192D01*
X0026867Y0124206D01*
X0026808Y0124215D01*
X0026747Y0124221D01*
X0026687Y0124223D01*
X0026687Y0124224D02*
X0025742Y0124224D01*
X0025742Y0120824D01*
X0025640Y0130824D02*
X0025640Y0134224D01*
X0027529Y0130824D01*
X0027529Y0134224D01*
X0029480Y0134224D02*
X0029480Y0130824D01*
X0030424Y0130824D01*
X0030483Y0130826D01*
X0030542Y0130831D01*
X0030601Y0130841D01*
X0030659Y0130854D01*
X0030716Y0130870D01*
X0030772Y0130890D01*
X0030826Y0130914D01*
X0030879Y0130941D01*
X0030930Y0130971D01*
X0030979Y0131004D01*
X0031026Y0131041D01*
X0031070Y0131080D01*
X0031112Y0131122D01*
X0031151Y0131166D01*
X0031188Y0131213D01*
X0031221Y0131262D01*
X0031251Y0131313D01*
X0031278Y0131366D01*
X0031302Y0131420D01*
X0031322Y0131476D01*
X0031338Y0131533D01*
X0031351Y0131591D01*
X0031361Y0131650D01*
X0031366Y0131709D01*
X0031368Y0131768D01*
X0031369Y0131768D02*
X0031369Y0133279D01*
X0031368Y0133279D02*
X0031366Y0133338D01*
X0031361Y0133397D01*
X0031351Y0133456D01*
X0031338Y0133514D01*
X0031322Y0133571D01*
X0031302Y0133627D01*
X0031278Y0133681D01*
X0031251Y0133734D01*
X0031221Y0133785D01*
X0031188Y0133834D01*
X0031151Y0133881D01*
X0031112Y0133925D01*
X0031070Y0133967D01*
X0031026Y0134006D01*
X0030979Y0134043D01*
X0030930Y0134076D01*
X0030879Y0134106D01*
X0030826Y0134133D01*
X0030772Y0134157D01*
X0030716Y0134177D01*
X0030659Y0134193D01*
X0030601Y0134206D01*
X0030542Y0134216D01*
X0030483Y0134221D01*
X0030424Y0134223D01*
X0030424Y0134224D02*
X0029480Y0134224D01*
X0026344Y0140824D02*
X0025400Y0140824D01*
X0026344Y0140824D02*
X0026404Y0140826D01*
X0026465Y0140832D01*
X0026524Y0140841D01*
X0026583Y0140855D01*
X0026641Y0140872D01*
X0026698Y0140893D01*
X0026754Y0140917D01*
X0026807Y0140945D01*
X0026859Y0140977D01*
X0026909Y0141011D01*
X0026956Y0141049D01*
X0027001Y0141090D01*
X0027043Y0141133D01*
X0027082Y0141179D01*
X0027118Y0141228D01*
X0027151Y0141279D01*
X0027181Y0141331D01*
X0027207Y0141386D01*
X0027230Y0141442D01*
X0027249Y0141499D01*
X0027264Y0141558D01*
X0027276Y0141617D01*
X0027284Y0141677D01*
X0027288Y0141738D01*
X0027288Y0141798D01*
X0027284Y0141859D01*
X0027276Y0141919D01*
X0027264Y0141978D01*
X0027249Y0142037D01*
X0027230Y0142094D01*
X0027207Y0142150D01*
X0027181Y0142205D01*
X0027151Y0142257D01*
X0027118Y0142308D01*
X0027082Y0142357D01*
X0027043Y0142403D01*
X0027001Y0142446D01*
X0026956Y0142487D01*
X0026909Y0142525D01*
X0026859Y0142559D01*
X0026807Y0142591D01*
X0026754Y0142619D01*
X0026698Y0142643D01*
X0026641Y0142664D01*
X0026583Y0142681D01*
X0026524Y0142695D01*
X0026465Y0142704D01*
X0026404Y0142710D01*
X0026344Y0142712D01*
X0026533Y0142713D02*
X0025778Y0142713D01*
X0026533Y0142712D02*
X0026587Y0142714D01*
X0026641Y0142720D01*
X0026694Y0142729D01*
X0026746Y0142743D01*
X0026797Y0142760D01*
X0026847Y0142780D01*
X0026895Y0142804D01*
X0026942Y0142832D01*
X0026986Y0142863D01*
X0027028Y0142897D01*
X0027068Y0142933D01*
X0027104Y0142973D01*
X0027138Y0143015D01*
X0027169Y0143059D01*
X0027197Y0143106D01*
X0027221Y0143154D01*
X0027241Y0143204D01*
X0027258Y0143255D01*
X0027272Y0143307D01*
X0027281Y0143360D01*
X0027287Y0143414D01*
X0027289Y0143468D01*
X0027287Y0143522D01*
X0027281Y0143576D01*
X0027272Y0143629D01*
X0027258Y0143681D01*
X0027241Y0143732D01*
X0027221Y0143782D01*
X0027197Y0143830D01*
X0027169Y0143877D01*
X0027138Y0143921D01*
X0027104Y0143963D01*
X0027068Y0144003D01*
X0027028Y0144039D01*
X0026986Y0144073D01*
X0026942Y0144104D01*
X0026895Y0144132D01*
X0026847Y0144156D01*
X0026797Y0144176D01*
X0026746Y0144193D01*
X0026694Y0144207D01*
X0026641Y0144216D01*
X0026587Y0144222D01*
X0026533Y0144224D01*
X0025400Y0144224D01*
X0022744Y0144224D02*
X0022744Y0140824D01*
X0021800Y0140824D02*
X0023689Y0140824D01*
X0021800Y0143468D02*
X0022744Y0144224D01*
X0022744Y0150824D02*
X0022744Y0154224D01*
X0021800Y0153468D01*
X0021800Y0150824D02*
X0023689Y0150824D01*
X0025400Y0150824D02*
X0027289Y0150824D01*
X0025400Y0150824D02*
X0027006Y0152713D01*
X0026439Y0154224D02*
X0026374Y0154222D01*
X0026309Y0154216D01*
X0026244Y0154206D01*
X0026180Y0154193D01*
X0026117Y0154175D01*
X0026055Y0154154D01*
X0025995Y0154129D01*
X0025936Y0154101D01*
X0025879Y0154069D01*
X0025823Y0154034D01*
X0025771Y0153996D01*
X0025720Y0153954D01*
X0025672Y0153909D01*
X0025627Y0153862D01*
X0025585Y0153812D01*
X0025546Y0153760D01*
X0025510Y0153705D01*
X0025477Y0153649D01*
X0025448Y0153590D01*
X0025422Y0153530D01*
X0025400Y0153468D01*
X0027006Y0152713D02*
X0027046Y0152753D01*
X0027083Y0152796D01*
X0027118Y0152841D01*
X0027149Y0152889D01*
X0027178Y0152938D01*
X0027204Y0152988D01*
X0027226Y0153041D01*
X0027245Y0153094D01*
X0027261Y0153149D01*
X0027273Y0153204D01*
X0027282Y0153261D01*
X0027287Y0153317D01*
X0027289Y0153374D01*
X0027287Y0153430D01*
X0027282Y0153485D01*
X0027273Y0153540D01*
X0027260Y0153594D01*
X0027244Y0153647D01*
X0027224Y0153699D01*
X0027201Y0153750D01*
X0027175Y0153799D01*
X0027146Y0153846D01*
X0027113Y0153891D01*
X0027078Y0153934D01*
X0027040Y0153975D01*
X0026999Y0154013D01*
X0026956Y0154048D01*
X0026911Y0154081D01*
X0026864Y0154110D01*
X0026815Y0154136D01*
X0026764Y0154159D01*
X0026712Y0154179D01*
X0026659Y0154195D01*
X0026605Y0154208D01*
X0026550Y0154217D01*
X0026495Y0154222D01*
X0026439Y0154224D01*
X0026344Y0160824D02*
X0026344Y0164224D01*
X0025400Y0163468D01*
X0025400Y0160824D02*
X0027289Y0160824D01*
X0023689Y0160824D02*
X0021800Y0160824D01*
X0022744Y0160824D02*
X0022744Y0164224D01*
X0021800Y0163468D01*
X0021800Y0170824D02*
X0023689Y0170824D01*
X0022744Y0170824D02*
X0022744Y0174224D01*
X0021800Y0173468D01*
X0027289Y0172524D02*
X0027287Y0172426D01*
X0027282Y0172329D01*
X0027274Y0172231D01*
X0027262Y0172134D01*
X0027246Y0172038D01*
X0027228Y0171942D01*
X0027206Y0171846D01*
X0027181Y0171752D01*
X0027152Y0171658D01*
X0027120Y0171566D01*
X0027085Y0171475D01*
X0027047Y0171385D01*
X0027006Y0171296D01*
X0027005Y0171296D02*
X0026987Y0171249D01*
X0026965Y0171203D01*
X0026940Y0171158D01*
X0026912Y0171116D01*
X0026881Y0171075D01*
X0026847Y0171037D01*
X0026810Y0171002D01*
X0026771Y0170969D01*
X0026729Y0170940D01*
X0026686Y0170913D01*
X0026640Y0170890D01*
X0026593Y0170870D01*
X0026545Y0170854D01*
X0026496Y0170841D01*
X0026446Y0170831D01*
X0026395Y0170826D01*
X0026344Y0170824D01*
X0026293Y0170826D01*
X0026242Y0170831D01*
X0026192Y0170841D01*
X0026143Y0170854D01*
X0026095Y0170870D01*
X0026048Y0170890D01*
X0026002Y0170913D01*
X0025959Y0170940D01*
X0025917Y0170969D01*
X0025878Y0171002D01*
X0025841Y0171037D01*
X0025807Y0171075D01*
X0025776Y0171116D01*
X0025748Y0171158D01*
X0025723Y0171203D01*
X0025701Y0171249D01*
X0025683Y0171296D01*
X0025589Y0171579D02*
X0027100Y0173468D01*
X0027005Y0173752D02*
X0026987Y0173799D01*
X0026965Y0173845D01*
X0026940Y0173890D01*
X0026912Y0173932D01*
X0026881Y0173973D01*
X0026847Y0174011D01*
X0026810Y0174046D01*
X0026771Y0174079D01*
X0026729Y0174108D01*
X0026686Y0174135D01*
X0026640Y0174158D01*
X0026593Y0174178D01*
X0026545Y0174194D01*
X0026496Y0174207D01*
X0026446Y0174217D01*
X0026395Y0174222D01*
X0026344Y0174224D01*
X0026293Y0174222D01*
X0026242Y0174217D01*
X0026192Y0174207D01*
X0026143Y0174194D01*
X0026095Y0174178D01*
X0026048Y0174158D01*
X0026002Y0174135D01*
X0025959Y0174108D01*
X0025917Y0174079D01*
X0025878Y0174046D01*
X0025841Y0174011D01*
X0025807Y0173973D01*
X0025776Y0173932D01*
X0025748Y0173890D01*
X0025723Y0173845D01*
X0025701Y0173799D01*
X0025683Y0173752D01*
X0027006Y0173752D02*
X0027047Y0173663D01*
X0027085Y0173573D01*
X0027120Y0173482D01*
X0027152Y0173390D01*
X0027181Y0173296D01*
X0027206Y0173202D01*
X0027228Y0173106D01*
X0027246Y0173010D01*
X0027262Y0172914D01*
X0027274Y0172817D01*
X0027282Y0172719D01*
X0027287Y0172622D01*
X0027289Y0172524D01*
X0025400Y0172524D02*
X0025402Y0172622D01*
X0025407Y0172719D01*
X0025415Y0172817D01*
X0025427Y0172914D01*
X0025443Y0173010D01*
X0025461Y0173106D01*
X0025483Y0173202D01*
X0025508Y0173296D01*
X0025537Y0173390D01*
X0025569Y0173482D01*
X0025604Y0173573D01*
X0025642Y0173663D01*
X0025683Y0173752D01*
X0025400Y0172524D02*
X0025402Y0172426D01*
X0025407Y0172329D01*
X0025415Y0172231D01*
X0025427Y0172134D01*
X0025443Y0172038D01*
X0025461Y0171942D01*
X0025483Y0171846D01*
X0025508Y0171752D01*
X0025537Y0171658D01*
X0025569Y0171566D01*
X0025604Y0171475D01*
X0025642Y0171385D01*
X0025683Y0171296D01*
X0023689Y0182335D02*
X0023689Y0183279D01*
X0023689Y0182335D02*
X0022556Y0182335D01*
X0023689Y0182335D02*
X0023687Y0182258D01*
X0023681Y0182182D01*
X0023672Y0182106D01*
X0023658Y0182031D01*
X0023641Y0181956D01*
X0023620Y0181883D01*
X0023595Y0181810D01*
X0023567Y0181739D01*
X0023535Y0181670D01*
X0023499Y0181602D01*
X0023460Y0181536D01*
X0023418Y0181472D01*
X0023373Y0181410D01*
X0023324Y0181351D01*
X0023273Y0181294D01*
X0023219Y0181240D01*
X0023162Y0181189D01*
X0023103Y0181140D01*
X0023041Y0181095D01*
X0022977Y0181053D01*
X0022911Y0181014D01*
X0022843Y0180978D01*
X0022774Y0180946D01*
X0022703Y0180918D01*
X0022630Y0180893D01*
X0022557Y0180872D01*
X0022482Y0180855D01*
X0022407Y0180841D01*
X0022331Y0180832D01*
X0022255Y0180826D01*
X0022178Y0180824D01*
X0022556Y0182334D02*
X0022502Y0182336D01*
X0022448Y0182342D01*
X0022395Y0182351D01*
X0022343Y0182365D01*
X0022292Y0182382D01*
X0022242Y0182402D01*
X0022194Y0182426D01*
X0022147Y0182454D01*
X0022103Y0182485D01*
X0022061Y0182519D01*
X0022021Y0182555D01*
X0021985Y0182595D01*
X0021951Y0182637D01*
X0021920Y0182681D01*
X0021892Y0182728D01*
X0021868Y0182776D01*
X0021848Y0182826D01*
X0021831Y0182877D01*
X0021817Y0182929D01*
X0021808Y0182982D01*
X0021802Y0183036D01*
X0021800Y0183090D01*
X0021800Y0183279D01*
X0021802Y0183339D01*
X0021808Y0183400D01*
X0021817Y0183459D01*
X0021831Y0183518D01*
X0021848Y0183576D01*
X0021869Y0183633D01*
X0021893Y0183689D01*
X0021921Y0183742D01*
X0021953Y0183794D01*
X0021987Y0183844D01*
X0022025Y0183891D01*
X0022066Y0183936D01*
X0022109Y0183978D01*
X0022155Y0184017D01*
X0022204Y0184053D01*
X0022255Y0184086D01*
X0022307Y0184116D01*
X0022362Y0184142D01*
X0022418Y0184165D01*
X0022475Y0184184D01*
X0022534Y0184199D01*
X0022593Y0184211D01*
X0022653Y0184219D01*
X0022714Y0184223D01*
X0022774Y0184223D01*
X0022835Y0184219D01*
X0022895Y0184211D01*
X0022954Y0184199D01*
X0023013Y0184184D01*
X0023070Y0184165D01*
X0023126Y0184142D01*
X0023181Y0184116D01*
X0023233Y0184086D01*
X0023284Y0184053D01*
X0023333Y0184017D01*
X0023379Y0183978D01*
X0023422Y0183936D01*
X0023463Y0183891D01*
X0023501Y0183844D01*
X0023535Y0183794D01*
X0023567Y0183742D01*
X0023595Y0183689D01*
X0023619Y0183633D01*
X0023640Y0183576D01*
X0023657Y0183518D01*
X0023671Y0183459D01*
X0023680Y0183400D01*
X0023686Y0183339D01*
X0023688Y0183279D01*
X0023688Y0191768D02*
X0023686Y0191708D01*
X0023680Y0191647D01*
X0023671Y0191588D01*
X0023657Y0191529D01*
X0023640Y0191471D01*
X0023619Y0191414D01*
X0023595Y0191358D01*
X0023567Y0191305D01*
X0023535Y0191253D01*
X0023501Y0191203D01*
X0023463Y0191156D01*
X0023422Y0191111D01*
X0023379Y0191069D01*
X0023333Y0191030D01*
X0023284Y0190994D01*
X0023233Y0190961D01*
X0023181Y0190931D01*
X0023126Y0190905D01*
X0023070Y0190882D01*
X0023013Y0190863D01*
X0022954Y0190848D01*
X0022895Y0190836D01*
X0022835Y0190828D01*
X0022774Y0190824D01*
X0022714Y0190824D01*
X0022653Y0190828D01*
X0022593Y0190836D01*
X0022534Y0190848D01*
X0022475Y0190863D01*
X0022418Y0190882D01*
X0022362Y0190905D01*
X0022307Y0190931D01*
X0022255Y0190961D01*
X0022204Y0190994D01*
X0022155Y0191030D01*
X0022109Y0191069D01*
X0022066Y0191111D01*
X0022025Y0191156D01*
X0021987Y0191203D01*
X0021953Y0191253D01*
X0021921Y0191305D01*
X0021893Y0191358D01*
X0021869Y0191414D01*
X0021848Y0191471D01*
X0021831Y0191529D01*
X0021817Y0191588D01*
X0021808Y0191647D01*
X0021802Y0191708D01*
X0021800Y0191768D01*
X0021802Y0191828D01*
X0021808Y0191889D01*
X0021817Y0191948D01*
X0021831Y0192007D01*
X0021848Y0192065D01*
X0021869Y0192122D01*
X0021893Y0192178D01*
X0021921Y0192231D01*
X0021953Y0192283D01*
X0021987Y0192333D01*
X0022025Y0192380D01*
X0022066Y0192425D01*
X0022109Y0192467D01*
X0022155Y0192506D01*
X0022204Y0192542D01*
X0022255Y0192575D01*
X0022307Y0192605D01*
X0022362Y0192631D01*
X0022418Y0192654D01*
X0022475Y0192673D01*
X0022534Y0192688D01*
X0022593Y0192700D01*
X0022653Y0192708D01*
X0022714Y0192712D01*
X0022774Y0192712D01*
X0022835Y0192708D01*
X0022895Y0192700D01*
X0022954Y0192688D01*
X0023013Y0192673D01*
X0023070Y0192654D01*
X0023126Y0192631D01*
X0023181Y0192605D01*
X0023233Y0192575D01*
X0023284Y0192542D01*
X0023333Y0192506D01*
X0023379Y0192467D01*
X0023422Y0192425D01*
X0023463Y0192380D01*
X0023501Y0192333D01*
X0023535Y0192283D01*
X0023567Y0192231D01*
X0023595Y0192178D01*
X0023619Y0192122D01*
X0023640Y0192065D01*
X0023657Y0192007D01*
X0023671Y0191948D01*
X0023680Y0191889D01*
X0023686Y0191828D01*
X0023688Y0191768D01*
X0023500Y0193468D02*
X0023498Y0193414D01*
X0023492Y0193360D01*
X0023483Y0193307D01*
X0023469Y0193255D01*
X0023452Y0193204D01*
X0023432Y0193154D01*
X0023408Y0193106D01*
X0023380Y0193059D01*
X0023349Y0193015D01*
X0023315Y0192973D01*
X0023279Y0192933D01*
X0023239Y0192897D01*
X0023197Y0192863D01*
X0023153Y0192832D01*
X0023106Y0192804D01*
X0023058Y0192780D01*
X0023008Y0192760D01*
X0022957Y0192743D01*
X0022905Y0192729D01*
X0022852Y0192720D01*
X0022798Y0192714D01*
X0022744Y0192712D01*
X0022690Y0192714D01*
X0022636Y0192720D01*
X0022583Y0192729D01*
X0022531Y0192743D01*
X0022480Y0192760D01*
X0022430Y0192780D01*
X0022382Y0192804D01*
X0022335Y0192832D01*
X0022291Y0192863D01*
X0022249Y0192897D01*
X0022209Y0192933D01*
X0022173Y0192973D01*
X0022139Y0193015D01*
X0022108Y0193059D01*
X0022080Y0193106D01*
X0022056Y0193154D01*
X0022036Y0193204D01*
X0022019Y0193255D01*
X0022005Y0193307D01*
X0021996Y0193360D01*
X0021990Y0193414D01*
X0021988Y0193468D01*
X0021990Y0193522D01*
X0021996Y0193576D01*
X0022005Y0193629D01*
X0022019Y0193681D01*
X0022036Y0193732D01*
X0022056Y0193782D01*
X0022080Y0193830D01*
X0022108Y0193877D01*
X0022139Y0193921D01*
X0022173Y0193963D01*
X0022209Y0194003D01*
X0022249Y0194039D01*
X0022291Y0194073D01*
X0022335Y0194104D01*
X0022382Y0194132D01*
X0022430Y0194156D01*
X0022480Y0194176D01*
X0022531Y0194193D01*
X0022583Y0194207D01*
X0022636Y0194216D01*
X0022690Y0194222D01*
X0022744Y0194224D01*
X0022798Y0194222D01*
X0022852Y0194216D01*
X0022905Y0194207D01*
X0022957Y0194193D01*
X0023008Y0194176D01*
X0023058Y0194156D01*
X0023106Y0194132D01*
X0023153Y0194104D01*
X0023197Y0194073D01*
X0023239Y0194039D01*
X0023279Y0194003D01*
X0023315Y0193963D01*
X0023349Y0193921D01*
X0023380Y0193877D01*
X0023408Y0193830D01*
X0023432Y0193782D01*
X0023452Y0193732D01*
X0023469Y0193681D01*
X0023483Y0193629D01*
X0023492Y0193576D01*
X0023498Y0193522D01*
X0023500Y0193468D01*
X0022744Y0205824D02*
X0023689Y0209224D01*
X0021800Y0209224D01*
X0021800Y0208846D01*
X0021800Y0216768D02*
X0021800Y0217712D01*
X0022933Y0217712D01*
X0021800Y0217712D02*
X0021802Y0217789D01*
X0021808Y0217865D01*
X0021817Y0217941D01*
X0021831Y0218016D01*
X0021848Y0218091D01*
X0021869Y0218164D01*
X0021894Y0218237D01*
X0021922Y0218308D01*
X0021954Y0218377D01*
X0021990Y0218445D01*
X0022029Y0218511D01*
X0022071Y0218575D01*
X0022116Y0218637D01*
X0022165Y0218696D01*
X0022216Y0218753D01*
X0022270Y0218807D01*
X0022327Y0218858D01*
X0022386Y0218907D01*
X0022448Y0218952D01*
X0022512Y0218994D01*
X0022578Y0219033D01*
X0022646Y0219069D01*
X0022715Y0219101D01*
X0022786Y0219129D01*
X0022859Y0219154D01*
X0022932Y0219175D01*
X0023007Y0219192D01*
X0023082Y0219206D01*
X0023158Y0219215D01*
X0023234Y0219221D01*
X0023311Y0219223D01*
X0022933Y0217713D02*
X0022987Y0217711D01*
X0023041Y0217705D01*
X0023094Y0217696D01*
X0023146Y0217682D01*
X0023197Y0217665D01*
X0023247Y0217645D01*
X0023295Y0217621D01*
X0023342Y0217593D01*
X0023386Y0217562D01*
X0023428Y0217528D01*
X0023468Y0217492D01*
X0023504Y0217452D01*
X0023538Y0217410D01*
X0023569Y0217366D01*
X0023597Y0217319D01*
X0023621Y0217271D01*
X0023641Y0217221D01*
X0023658Y0217170D01*
X0023672Y0217118D01*
X0023681Y0217065D01*
X0023687Y0217011D01*
X0023689Y0216957D01*
X0023689Y0216768D01*
X0023688Y0216768D02*
X0023686Y0216708D01*
X0023680Y0216647D01*
X0023671Y0216588D01*
X0023657Y0216529D01*
X0023640Y0216471D01*
X0023619Y0216414D01*
X0023595Y0216358D01*
X0023567Y0216305D01*
X0023535Y0216253D01*
X0023501Y0216203D01*
X0023463Y0216156D01*
X0023422Y0216111D01*
X0023379Y0216069D01*
X0023333Y0216030D01*
X0023284Y0215994D01*
X0023233Y0215961D01*
X0023181Y0215931D01*
X0023126Y0215905D01*
X0023070Y0215882D01*
X0023013Y0215863D01*
X0022954Y0215848D01*
X0022895Y0215836D01*
X0022835Y0215828D01*
X0022774Y0215824D01*
X0022714Y0215824D01*
X0022653Y0215828D01*
X0022593Y0215836D01*
X0022534Y0215848D01*
X0022475Y0215863D01*
X0022418Y0215882D01*
X0022362Y0215905D01*
X0022307Y0215931D01*
X0022255Y0215961D01*
X0022204Y0215994D01*
X0022155Y0216030D01*
X0022109Y0216069D01*
X0022066Y0216111D01*
X0022025Y0216156D01*
X0021987Y0216203D01*
X0021953Y0216253D01*
X0021921Y0216305D01*
X0021893Y0216358D01*
X0021869Y0216414D01*
X0021848Y0216471D01*
X0021831Y0216529D01*
X0021817Y0216588D01*
X0021808Y0216647D01*
X0021802Y0216708D01*
X0021800Y0216768D01*
X0021800Y0225824D02*
X0022933Y0225824D01*
X0022933Y0225823D02*
X0022987Y0225825D01*
X0023041Y0225831D01*
X0023094Y0225840D01*
X0023146Y0225854D01*
X0023197Y0225871D01*
X0023247Y0225891D01*
X0023295Y0225915D01*
X0023342Y0225943D01*
X0023386Y0225974D01*
X0023428Y0226008D01*
X0023468Y0226044D01*
X0023504Y0226084D01*
X0023538Y0226126D01*
X0023569Y0226170D01*
X0023597Y0226217D01*
X0023621Y0226265D01*
X0023641Y0226315D01*
X0023658Y0226366D01*
X0023672Y0226418D01*
X0023681Y0226471D01*
X0023687Y0226525D01*
X0023689Y0226579D01*
X0023689Y0226957D01*
X0023687Y0227011D01*
X0023681Y0227065D01*
X0023672Y0227118D01*
X0023658Y0227170D01*
X0023641Y0227221D01*
X0023621Y0227271D01*
X0023597Y0227319D01*
X0023569Y0227366D01*
X0023538Y0227410D01*
X0023504Y0227452D01*
X0023468Y0227492D01*
X0023428Y0227528D01*
X0023386Y0227562D01*
X0023342Y0227593D01*
X0023295Y0227621D01*
X0023247Y0227645D01*
X0023197Y0227665D01*
X0023146Y0227682D01*
X0023094Y0227696D01*
X0023041Y0227705D01*
X0022987Y0227711D01*
X0022933Y0227713D01*
X0022933Y0227712D02*
X0021800Y0227712D01*
X0021800Y0229224D01*
X0023689Y0229224D01*
X0023122Y0235824D02*
X0023122Y0237335D01*
X0023689Y0236579D02*
X0021800Y0236579D01*
X0022556Y0239224D01*
X0022744Y0245824D02*
X0021800Y0245824D01*
X0022744Y0245824D02*
X0022804Y0245826D01*
X0022865Y0245832D01*
X0022924Y0245841D01*
X0022983Y0245855D01*
X0023041Y0245872D01*
X0023098Y0245893D01*
X0023154Y0245917D01*
X0023207Y0245945D01*
X0023259Y0245977D01*
X0023309Y0246011D01*
X0023356Y0246049D01*
X0023401Y0246090D01*
X0023443Y0246133D01*
X0023482Y0246179D01*
X0023518Y0246228D01*
X0023551Y0246279D01*
X0023581Y0246331D01*
X0023607Y0246386D01*
X0023630Y0246442D01*
X0023649Y0246499D01*
X0023664Y0246558D01*
X0023676Y0246617D01*
X0023684Y0246677D01*
X0023688Y0246738D01*
X0023688Y0246798D01*
X0023684Y0246859D01*
X0023676Y0246919D01*
X0023664Y0246978D01*
X0023649Y0247037D01*
X0023630Y0247094D01*
X0023607Y0247150D01*
X0023581Y0247205D01*
X0023551Y0247257D01*
X0023518Y0247308D01*
X0023482Y0247357D01*
X0023443Y0247403D01*
X0023401Y0247446D01*
X0023356Y0247487D01*
X0023309Y0247525D01*
X0023259Y0247559D01*
X0023207Y0247591D01*
X0023154Y0247619D01*
X0023098Y0247643D01*
X0023041Y0247664D01*
X0022983Y0247681D01*
X0022924Y0247695D01*
X0022865Y0247704D01*
X0022804Y0247710D01*
X0022744Y0247712D01*
X0022933Y0247712D02*
X0022178Y0247712D01*
X0022933Y0247712D02*
X0022987Y0247714D01*
X0023041Y0247720D01*
X0023094Y0247729D01*
X0023146Y0247743D01*
X0023197Y0247760D01*
X0023247Y0247780D01*
X0023295Y0247804D01*
X0023342Y0247832D01*
X0023386Y0247863D01*
X0023428Y0247897D01*
X0023468Y0247933D01*
X0023504Y0247973D01*
X0023538Y0248015D01*
X0023569Y0248059D01*
X0023597Y0248106D01*
X0023621Y0248154D01*
X0023641Y0248204D01*
X0023658Y0248255D01*
X0023672Y0248307D01*
X0023681Y0248360D01*
X0023687Y0248414D01*
X0023689Y0248468D01*
X0023687Y0248522D01*
X0023681Y0248576D01*
X0023672Y0248629D01*
X0023658Y0248681D01*
X0023641Y0248732D01*
X0023621Y0248782D01*
X0023597Y0248830D01*
X0023569Y0248877D01*
X0023538Y0248921D01*
X0023504Y0248963D01*
X0023468Y0249003D01*
X0023428Y0249039D01*
X0023386Y0249073D01*
X0023342Y0249104D01*
X0023295Y0249132D01*
X0023247Y0249156D01*
X0023197Y0249176D01*
X0023146Y0249193D01*
X0023094Y0249207D01*
X0023041Y0249216D01*
X0022987Y0249222D01*
X0022933Y0249224D01*
X0021800Y0249224D01*
X0021800Y0255824D02*
X0023689Y0255824D01*
X0021800Y0255824D02*
X0023406Y0257712D01*
X0022839Y0259224D02*
X0022774Y0259222D01*
X0022709Y0259216D01*
X0022644Y0259206D01*
X0022580Y0259193D01*
X0022517Y0259175D01*
X0022455Y0259154D01*
X0022395Y0259129D01*
X0022336Y0259101D01*
X0022279Y0259069D01*
X0022223Y0259034D01*
X0022171Y0258996D01*
X0022120Y0258954D01*
X0022072Y0258909D01*
X0022027Y0258862D01*
X0021985Y0258812D01*
X0021946Y0258760D01*
X0021910Y0258705D01*
X0021877Y0258649D01*
X0021848Y0258590D01*
X0021822Y0258530D01*
X0021800Y0258468D01*
X0023406Y0257713D02*
X0023446Y0257753D01*
X0023483Y0257796D01*
X0023518Y0257841D01*
X0023549Y0257889D01*
X0023578Y0257938D01*
X0023604Y0257988D01*
X0023626Y0258041D01*
X0023645Y0258094D01*
X0023661Y0258149D01*
X0023673Y0258204D01*
X0023682Y0258261D01*
X0023687Y0258317D01*
X0023689Y0258374D01*
X0023687Y0258430D01*
X0023682Y0258485D01*
X0023673Y0258540D01*
X0023660Y0258594D01*
X0023644Y0258647D01*
X0023624Y0258699D01*
X0023601Y0258750D01*
X0023575Y0258799D01*
X0023546Y0258846D01*
X0023513Y0258891D01*
X0023478Y0258934D01*
X0023440Y0258975D01*
X0023399Y0259013D01*
X0023356Y0259048D01*
X0023311Y0259081D01*
X0023264Y0259110D01*
X0023215Y0259136D01*
X0023164Y0259159D01*
X0023112Y0259179D01*
X0023059Y0259195D01*
X0023005Y0259208D01*
X0022950Y0259217D01*
X0022895Y0259222D01*
X0022839Y0259224D01*
X0022744Y0265824D02*
X0022744Y0269224D01*
X0021800Y0269224D02*
X0023689Y0269224D01*
X0024971Y0269224D02*
X0027238Y0265824D01*
X0024971Y0265824D02*
X0027238Y0269224D01*
X0027444Y0275824D02*
X0025178Y0279224D01*
X0027444Y0279224D02*
X0025178Y0275824D01*
X0023689Y0275824D02*
X0022933Y0277335D01*
X0022744Y0277335D02*
X0021800Y0277335D01*
X0022744Y0277335D02*
X0022804Y0277337D01*
X0022865Y0277343D01*
X0022924Y0277352D01*
X0022983Y0277366D01*
X0023041Y0277383D01*
X0023098Y0277404D01*
X0023154Y0277428D01*
X0023207Y0277456D01*
X0023259Y0277488D01*
X0023309Y0277522D01*
X0023356Y0277560D01*
X0023401Y0277601D01*
X0023443Y0277644D01*
X0023482Y0277690D01*
X0023518Y0277739D01*
X0023551Y0277790D01*
X0023581Y0277842D01*
X0023607Y0277897D01*
X0023630Y0277953D01*
X0023649Y0278010D01*
X0023664Y0278069D01*
X0023676Y0278128D01*
X0023684Y0278188D01*
X0023688Y0278249D01*
X0023688Y0278309D01*
X0023684Y0278370D01*
X0023676Y0278430D01*
X0023664Y0278489D01*
X0023649Y0278548D01*
X0023630Y0278605D01*
X0023607Y0278661D01*
X0023581Y0278716D01*
X0023551Y0278768D01*
X0023518Y0278819D01*
X0023482Y0278868D01*
X0023443Y0278914D01*
X0023401Y0278957D01*
X0023356Y0278998D01*
X0023309Y0279036D01*
X0023259Y0279070D01*
X0023207Y0279102D01*
X0023154Y0279130D01*
X0023098Y0279154D01*
X0023041Y0279175D01*
X0022983Y0279192D01*
X0022924Y0279206D01*
X0022865Y0279215D01*
X0022804Y0279221D01*
X0022744Y0279223D01*
X0022744Y0279224D02*
X0021800Y0279224D01*
X0021800Y0275824D01*
X0022556Y0134224D02*
X0023689Y0134224D01*
X0022556Y0134224D02*
X0022502Y0134222D01*
X0022448Y0134216D01*
X0022395Y0134207D01*
X0022343Y0134193D01*
X0022292Y0134176D01*
X0022242Y0134156D01*
X0022194Y0134132D01*
X0022147Y0134104D01*
X0022103Y0134073D01*
X0022061Y0134039D01*
X0022021Y0134003D01*
X0021985Y0133963D01*
X0021951Y0133921D01*
X0021920Y0133877D01*
X0021892Y0133830D01*
X0021868Y0133782D01*
X0021848Y0133732D01*
X0021831Y0133681D01*
X0021817Y0133629D01*
X0021808Y0133576D01*
X0021802Y0133522D01*
X0021800Y0133468D01*
X0021800Y0131579D01*
X0021802Y0131525D01*
X0021808Y0131471D01*
X0021817Y0131418D01*
X0021831Y0131366D01*
X0021848Y0131315D01*
X0021868Y0131265D01*
X0021892Y0131217D01*
X0021920Y0131170D01*
X0021951Y0131126D01*
X0021985Y0131084D01*
X0022021Y0131044D01*
X0022061Y0131008D01*
X0022103Y0130974D01*
X0022147Y0130943D01*
X0022194Y0130915D01*
X0022242Y0130891D01*
X0022292Y0130871D01*
X0022343Y0130854D01*
X0022395Y0130840D01*
X0022448Y0130831D01*
X0022502Y0130825D01*
X0022556Y0130823D01*
X0022556Y0130824D02*
X0023689Y0130824D01*
X0023689Y0132713D01*
X0023122Y0132713D01*
X0021895Y0103468D02*
X0021897Y0103415D01*
X0021902Y0103362D01*
X0021911Y0103310D01*
X0021924Y0103258D01*
X0021940Y0103208D01*
X0021960Y0103159D01*
X0021983Y0103111D01*
X0022010Y0103065D01*
X0022039Y0103020D01*
X0022072Y0102978D01*
X0022107Y0102939D01*
X0022145Y0102902D01*
X0022185Y0102867D01*
X0022228Y0102836D01*
X0022273Y0102807D01*
X0022272Y0102807D02*
X0023311Y0102240D01*
X0022933Y0100824D02*
X0022854Y0100826D01*
X0022776Y0100832D01*
X0022698Y0100841D01*
X0022620Y0100855D01*
X0022543Y0100872D01*
X0022467Y0100893D01*
X0022393Y0100918D01*
X0022319Y0100947D01*
X0022247Y0100979D01*
X0022177Y0101014D01*
X0022109Y0101053D01*
X0022042Y0101096D01*
X0021978Y0101141D01*
X0021916Y0101190D01*
X0021857Y0101242D01*
X0021800Y0101296D01*
X0023311Y0102240D02*
X0023356Y0102211D01*
X0023399Y0102180D01*
X0023439Y0102145D01*
X0023477Y0102108D01*
X0023512Y0102069D01*
X0023545Y0102027D01*
X0023574Y0101982D01*
X0023601Y0101936D01*
X0023624Y0101888D01*
X0023644Y0101839D01*
X0023660Y0101789D01*
X0023673Y0101737D01*
X0023682Y0101685D01*
X0023687Y0101632D01*
X0023689Y0101579D01*
X0023687Y0101525D01*
X0023681Y0101471D01*
X0023672Y0101418D01*
X0023658Y0101366D01*
X0023641Y0101315D01*
X0023621Y0101265D01*
X0023597Y0101217D01*
X0023569Y0101170D01*
X0023538Y0101126D01*
X0023504Y0101084D01*
X0023468Y0101044D01*
X0023428Y0101008D01*
X0023386Y0100974D01*
X0023342Y0100943D01*
X0023295Y0100915D01*
X0023247Y0100891D01*
X0023197Y0100871D01*
X0023146Y0100854D01*
X0023094Y0100840D01*
X0023041Y0100831D01*
X0022987Y0100825D01*
X0022933Y0100823D01*
X0023500Y0103941D02*
X0023443Y0103981D01*
X0023384Y0104019D01*
X0023323Y0104054D01*
X0023261Y0104086D01*
X0023197Y0104114D01*
X0023131Y0104140D01*
X0023065Y0104162D01*
X0022997Y0104181D01*
X0022929Y0104196D01*
X0022860Y0104208D01*
X0022790Y0104217D01*
X0022720Y0104222D01*
X0022650Y0104224D01*
X0022596Y0104222D01*
X0022542Y0104216D01*
X0022489Y0104207D01*
X0022437Y0104193D01*
X0022386Y0104176D01*
X0022336Y0104156D01*
X0022288Y0104132D01*
X0022241Y0104104D01*
X0022197Y0104073D01*
X0022155Y0104039D01*
X0022115Y0104003D01*
X0022079Y0103963D01*
X0022045Y0103921D01*
X0022014Y0103877D01*
X0021986Y0103830D01*
X0021962Y0103782D01*
X0021942Y0103732D01*
X0021925Y0103681D01*
X0021911Y0103629D01*
X0021902Y0103576D01*
X0021896Y0103522D01*
X0021894Y0103468D01*
X0186355Y0145824D02*
X0187111Y0145824D01*
X0186733Y0145824D02*
X0186733Y0149224D01*
X0186355Y0149224D02*
X0187111Y0149224D01*
X0188669Y0148279D02*
X0188669Y0146768D01*
X0188671Y0146708D01*
X0188677Y0146647D01*
X0188686Y0146588D01*
X0188700Y0146529D01*
X0188717Y0146471D01*
X0188738Y0146414D01*
X0188762Y0146358D01*
X0188790Y0146305D01*
X0188822Y0146253D01*
X0188856Y0146203D01*
X0188894Y0146156D01*
X0188935Y0146111D01*
X0188978Y0146069D01*
X0189024Y0146030D01*
X0189073Y0145994D01*
X0189124Y0145961D01*
X0189176Y0145931D01*
X0189231Y0145905D01*
X0189287Y0145882D01*
X0189344Y0145863D01*
X0189403Y0145848D01*
X0189462Y0145836D01*
X0189522Y0145828D01*
X0189583Y0145824D01*
X0189643Y0145824D01*
X0189704Y0145828D01*
X0189764Y0145836D01*
X0189823Y0145848D01*
X0189882Y0145863D01*
X0189939Y0145882D01*
X0189995Y0145905D01*
X0190050Y0145931D01*
X0190102Y0145961D01*
X0190153Y0145994D01*
X0190202Y0146030D01*
X0190248Y0146069D01*
X0190291Y0146111D01*
X0190332Y0146156D01*
X0190370Y0146203D01*
X0190404Y0146253D01*
X0190436Y0146305D01*
X0190464Y0146358D01*
X0190488Y0146414D01*
X0190509Y0146471D01*
X0190526Y0146529D01*
X0190540Y0146588D01*
X0190549Y0146647D01*
X0190555Y0146708D01*
X0190557Y0146768D01*
X0190558Y0146768D02*
X0190558Y0148279D01*
X0190557Y0148279D02*
X0190555Y0148339D01*
X0190549Y0148400D01*
X0190540Y0148459D01*
X0190526Y0148518D01*
X0190509Y0148576D01*
X0190488Y0148633D01*
X0190464Y0148689D01*
X0190436Y0148742D01*
X0190404Y0148794D01*
X0190370Y0148844D01*
X0190332Y0148891D01*
X0190291Y0148936D01*
X0190248Y0148978D01*
X0190202Y0149017D01*
X0190153Y0149053D01*
X0190102Y0149086D01*
X0190050Y0149116D01*
X0189995Y0149142D01*
X0189939Y0149165D01*
X0189882Y0149184D01*
X0189823Y0149199D01*
X0189764Y0149211D01*
X0189704Y0149219D01*
X0189643Y0149223D01*
X0189583Y0149223D01*
X0189522Y0149219D01*
X0189462Y0149211D01*
X0189403Y0149199D01*
X0189344Y0149184D01*
X0189287Y0149165D01*
X0189231Y0149142D01*
X0189176Y0149116D01*
X0189124Y0149086D01*
X0189073Y0149053D01*
X0189024Y0149017D01*
X0188978Y0148978D01*
X0188935Y0148936D01*
X0188894Y0148891D01*
X0188856Y0148844D01*
X0188822Y0148794D01*
X0188790Y0148742D01*
X0188762Y0148689D01*
X0188738Y0148633D01*
X0188717Y0148576D01*
X0188700Y0148518D01*
X0188686Y0148459D01*
X0188677Y0148400D01*
X0188671Y0148339D01*
X0188669Y0148279D01*
X0192422Y0147335D02*
X0193366Y0147335D01*
X0193555Y0147335D02*
X0194311Y0145824D01*
X0196119Y0145824D02*
X0196119Y0149224D01*
X0197630Y0149224D01*
X0197252Y0147713D02*
X0196119Y0147713D01*
X0196119Y0145824D02*
X0197630Y0145824D01*
X0199239Y0145824D02*
X0199239Y0149224D01*
X0200750Y0149224D01*
X0200750Y0147713D02*
X0199239Y0147713D01*
X0199806Y0155824D02*
X0199806Y0159224D01*
X0200750Y0159224D02*
X0198861Y0159224D01*
X0196094Y0157807D02*
X0196049Y0157836D01*
X0196006Y0157867D01*
X0195966Y0157902D01*
X0195928Y0157939D01*
X0195893Y0157978D01*
X0195860Y0158020D01*
X0195831Y0158065D01*
X0195804Y0158111D01*
X0195781Y0158159D01*
X0195761Y0158208D01*
X0195745Y0158258D01*
X0195732Y0158310D01*
X0195723Y0158362D01*
X0195718Y0158415D01*
X0195716Y0158468D01*
X0195715Y0158468D02*
X0195717Y0158522D01*
X0195723Y0158576D01*
X0195732Y0158629D01*
X0195746Y0158681D01*
X0195763Y0158732D01*
X0195783Y0158782D01*
X0195807Y0158830D01*
X0195835Y0158877D01*
X0195866Y0158921D01*
X0195900Y0158963D01*
X0195936Y0159003D01*
X0195976Y0159039D01*
X0196018Y0159073D01*
X0196062Y0159104D01*
X0196109Y0159132D01*
X0196157Y0159156D01*
X0196207Y0159176D01*
X0196258Y0159193D01*
X0196310Y0159207D01*
X0196363Y0159216D01*
X0196417Y0159222D01*
X0196471Y0159224D01*
X0196541Y0159222D01*
X0196611Y0159217D01*
X0196681Y0159208D01*
X0196750Y0159196D01*
X0196818Y0159181D01*
X0196886Y0159162D01*
X0196952Y0159140D01*
X0197018Y0159114D01*
X0197082Y0159086D01*
X0197144Y0159054D01*
X0197205Y0159019D01*
X0197264Y0158981D01*
X0197321Y0158941D01*
X0195621Y0156296D02*
X0195678Y0156242D01*
X0195737Y0156190D01*
X0195799Y0156141D01*
X0195863Y0156096D01*
X0195930Y0156053D01*
X0195998Y0156014D01*
X0196068Y0155979D01*
X0196140Y0155947D01*
X0196214Y0155918D01*
X0196288Y0155893D01*
X0196364Y0155872D01*
X0196441Y0155855D01*
X0196519Y0155841D01*
X0196597Y0155832D01*
X0196675Y0155826D01*
X0196754Y0155824D01*
X0196754Y0155823D02*
X0196808Y0155825D01*
X0196862Y0155831D01*
X0196915Y0155840D01*
X0196967Y0155854D01*
X0197018Y0155871D01*
X0197068Y0155891D01*
X0197116Y0155915D01*
X0197163Y0155943D01*
X0197207Y0155974D01*
X0197249Y0156008D01*
X0197289Y0156044D01*
X0197325Y0156084D01*
X0197359Y0156126D01*
X0197390Y0156170D01*
X0197418Y0156217D01*
X0197442Y0156265D01*
X0197462Y0156315D01*
X0197479Y0156366D01*
X0197493Y0156418D01*
X0197502Y0156471D01*
X0197508Y0156525D01*
X0197510Y0156579D01*
X0197132Y0157240D02*
X0196093Y0157807D01*
X0197132Y0157240D02*
X0197177Y0157211D01*
X0197220Y0157180D01*
X0197260Y0157145D01*
X0197298Y0157108D01*
X0197333Y0157069D01*
X0197366Y0157027D01*
X0197395Y0156982D01*
X0197422Y0156936D01*
X0197445Y0156888D01*
X0197465Y0156839D01*
X0197481Y0156789D01*
X0197494Y0156737D01*
X0197503Y0156685D01*
X0197508Y0156632D01*
X0197510Y0156579D01*
X0194063Y0155824D02*
X0193308Y0157335D01*
X0193119Y0157335D02*
X0192174Y0157335D01*
X0193119Y0157335D02*
X0193179Y0157337D01*
X0193240Y0157343D01*
X0193299Y0157352D01*
X0193358Y0157366D01*
X0193416Y0157383D01*
X0193473Y0157404D01*
X0193529Y0157428D01*
X0193582Y0157456D01*
X0193634Y0157488D01*
X0193684Y0157522D01*
X0193731Y0157560D01*
X0193776Y0157601D01*
X0193818Y0157644D01*
X0193857Y0157690D01*
X0193893Y0157739D01*
X0193926Y0157790D01*
X0193956Y0157842D01*
X0193982Y0157897D01*
X0194005Y0157953D01*
X0194024Y0158010D01*
X0194039Y0158069D01*
X0194051Y0158128D01*
X0194059Y0158188D01*
X0194063Y0158249D01*
X0194063Y0158309D01*
X0194059Y0158370D01*
X0194051Y0158430D01*
X0194039Y0158489D01*
X0194024Y0158548D01*
X0194005Y0158605D01*
X0193982Y0158661D01*
X0193956Y0158716D01*
X0193926Y0158768D01*
X0193893Y0158819D01*
X0193857Y0158868D01*
X0193818Y0158914D01*
X0193776Y0158957D01*
X0193731Y0158998D01*
X0193684Y0159036D01*
X0193634Y0159070D01*
X0193582Y0159102D01*
X0193529Y0159130D01*
X0193473Y0159154D01*
X0193416Y0159175D01*
X0193358Y0159192D01*
X0193299Y0159206D01*
X0193240Y0159215D01*
X0193179Y0159221D01*
X0193119Y0159223D01*
X0193119Y0159224D02*
X0192174Y0159224D01*
X0192174Y0155824D01*
X0192422Y0149224D02*
X0193366Y0149224D01*
X0192422Y0149224D02*
X0192422Y0145824D01*
X0193366Y0147335D02*
X0193426Y0147337D01*
X0193487Y0147343D01*
X0193546Y0147352D01*
X0193605Y0147366D01*
X0193663Y0147383D01*
X0193720Y0147404D01*
X0193776Y0147428D01*
X0193829Y0147456D01*
X0193881Y0147488D01*
X0193931Y0147522D01*
X0193978Y0147560D01*
X0194023Y0147601D01*
X0194065Y0147644D01*
X0194104Y0147690D01*
X0194140Y0147739D01*
X0194173Y0147790D01*
X0194203Y0147842D01*
X0194229Y0147897D01*
X0194252Y0147953D01*
X0194271Y0148010D01*
X0194286Y0148069D01*
X0194298Y0148128D01*
X0194306Y0148188D01*
X0194310Y0148249D01*
X0194310Y0148309D01*
X0194306Y0148370D01*
X0194298Y0148430D01*
X0194286Y0148489D01*
X0194271Y0148548D01*
X0194252Y0148605D01*
X0194229Y0148661D01*
X0194203Y0148716D01*
X0194173Y0148768D01*
X0194140Y0148819D01*
X0194104Y0148868D01*
X0194065Y0148914D01*
X0194023Y0148957D01*
X0193978Y0148998D01*
X0193931Y0149036D01*
X0193881Y0149070D01*
X0193829Y0149102D01*
X0193776Y0149130D01*
X0193720Y0149154D01*
X0193663Y0149175D01*
X0193605Y0149192D01*
X0193546Y0149206D01*
X0193487Y0149215D01*
X0193426Y0149221D01*
X0193366Y0149223D01*
X0193402Y0165824D02*
X0193591Y0165824D01*
X0193591Y0166013D01*
X0193402Y0166013D01*
X0193402Y0165824D01*
X0195072Y0165824D02*
X0196017Y0165824D01*
X0196077Y0165826D01*
X0196138Y0165832D01*
X0196197Y0165841D01*
X0196256Y0165855D01*
X0196314Y0165872D01*
X0196371Y0165893D01*
X0196427Y0165917D01*
X0196480Y0165945D01*
X0196532Y0165977D01*
X0196582Y0166011D01*
X0196629Y0166049D01*
X0196674Y0166090D01*
X0196716Y0166133D01*
X0196755Y0166179D01*
X0196791Y0166228D01*
X0196824Y0166279D01*
X0196854Y0166331D01*
X0196880Y0166386D01*
X0196903Y0166442D01*
X0196922Y0166499D01*
X0196937Y0166558D01*
X0196949Y0166617D01*
X0196957Y0166677D01*
X0196961Y0166738D01*
X0196961Y0166798D01*
X0196957Y0166859D01*
X0196949Y0166919D01*
X0196937Y0166978D01*
X0196922Y0167037D01*
X0196903Y0167094D01*
X0196880Y0167150D01*
X0196854Y0167205D01*
X0196824Y0167257D01*
X0196791Y0167308D01*
X0196755Y0167357D01*
X0196716Y0167403D01*
X0196674Y0167446D01*
X0196629Y0167487D01*
X0196582Y0167525D01*
X0196532Y0167559D01*
X0196480Y0167591D01*
X0196427Y0167619D01*
X0196371Y0167643D01*
X0196314Y0167664D01*
X0196256Y0167681D01*
X0196197Y0167695D01*
X0196138Y0167704D01*
X0196077Y0167710D01*
X0196017Y0167712D01*
X0196206Y0167713D02*
X0195450Y0167713D01*
X0196206Y0167712D02*
X0196260Y0167714D01*
X0196314Y0167720D01*
X0196367Y0167729D01*
X0196419Y0167743D01*
X0196470Y0167760D01*
X0196520Y0167780D01*
X0196568Y0167804D01*
X0196615Y0167832D01*
X0196659Y0167863D01*
X0196701Y0167897D01*
X0196741Y0167933D01*
X0196777Y0167973D01*
X0196811Y0168015D01*
X0196842Y0168059D01*
X0196870Y0168106D01*
X0196894Y0168154D01*
X0196914Y0168204D01*
X0196931Y0168255D01*
X0196945Y0168307D01*
X0196954Y0168360D01*
X0196960Y0168414D01*
X0196962Y0168468D01*
X0196960Y0168522D01*
X0196954Y0168576D01*
X0196945Y0168629D01*
X0196931Y0168681D01*
X0196914Y0168732D01*
X0196894Y0168782D01*
X0196870Y0168830D01*
X0196842Y0168877D01*
X0196811Y0168921D01*
X0196777Y0168963D01*
X0196741Y0169003D01*
X0196701Y0169039D01*
X0196659Y0169073D01*
X0196615Y0169104D01*
X0196568Y0169132D01*
X0196520Y0169156D01*
X0196470Y0169176D01*
X0196419Y0169193D01*
X0196367Y0169207D01*
X0196314Y0169216D01*
X0196260Y0169222D01*
X0196206Y0169224D01*
X0195072Y0169224D01*
X0198483Y0169224D02*
X0199617Y0165824D01*
X0200750Y0169224D01*
X0199617Y0175824D02*
X0200750Y0179224D01*
X0198483Y0179224D02*
X0199617Y0175824D01*
X0196961Y0176579D02*
X0196961Y0176957D01*
X0196962Y0176957D02*
X0196960Y0177011D01*
X0196954Y0177065D01*
X0196945Y0177118D01*
X0196931Y0177170D01*
X0196914Y0177221D01*
X0196894Y0177271D01*
X0196870Y0177319D01*
X0196842Y0177366D01*
X0196811Y0177410D01*
X0196777Y0177452D01*
X0196741Y0177492D01*
X0196701Y0177528D01*
X0196659Y0177562D01*
X0196615Y0177593D01*
X0196568Y0177621D01*
X0196520Y0177645D01*
X0196470Y0177665D01*
X0196419Y0177682D01*
X0196367Y0177696D01*
X0196314Y0177705D01*
X0196260Y0177711D01*
X0196206Y0177713D01*
X0196206Y0177712D02*
X0195072Y0177712D01*
X0195072Y0179224D01*
X0196961Y0179224D01*
X0196962Y0176579D02*
X0196960Y0176525D01*
X0196954Y0176471D01*
X0196945Y0176418D01*
X0196931Y0176366D01*
X0196914Y0176315D01*
X0196894Y0176265D01*
X0196870Y0176217D01*
X0196842Y0176170D01*
X0196811Y0176126D01*
X0196777Y0176084D01*
X0196741Y0176044D01*
X0196701Y0176008D01*
X0196659Y0175974D01*
X0196615Y0175943D01*
X0196568Y0175915D01*
X0196520Y0175891D01*
X0196470Y0175871D01*
X0196419Y0175854D01*
X0196367Y0175840D01*
X0196314Y0175831D01*
X0196260Y0175825D01*
X0196206Y0175823D01*
X0196206Y0175824D02*
X0195072Y0175824D01*
X0193310Y0177146D02*
X0191043Y0177146D01*
X0192177Y0176012D02*
X0192177Y0178279D01*
X0191937Y0185824D02*
X0193070Y0185824D01*
X0193070Y0187712D01*
X0192503Y0187712D01*
X0191181Y0188468D02*
X0191183Y0188522D01*
X0191189Y0188576D01*
X0191198Y0188629D01*
X0191212Y0188681D01*
X0191229Y0188732D01*
X0191249Y0188782D01*
X0191273Y0188830D01*
X0191301Y0188877D01*
X0191332Y0188921D01*
X0191366Y0188963D01*
X0191402Y0189003D01*
X0191442Y0189039D01*
X0191484Y0189073D01*
X0191528Y0189104D01*
X0191575Y0189132D01*
X0191623Y0189156D01*
X0191673Y0189176D01*
X0191724Y0189193D01*
X0191776Y0189207D01*
X0191829Y0189216D01*
X0191883Y0189222D01*
X0191937Y0189224D01*
X0193070Y0189224D01*
X0195021Y0189224D02*
X0195021Y0185824D01*
X0196910Y0185824D02*
X0195021Y0189224D01*
X0196910Y0189224D02*
X0196910Y0185824D01*
X0198861Y0185824D02*
X0198861Y0189224D01*
X0199806Y0189224D01*
X0199806Y0189223D02*
X0199865Y0189221D01*
X0199924Y0189216D01*
X0199983Y0189206D01*
X0200041Y0189193D01*
X0200098Y0189177D01*
X0200154Y0189157D01*
X0200208Y0189133D01*
X0200261Y0189106D01*
X0200312Y0189076D01*
X0200361Y0189043D01*
X0200408Y0189006D01*
X0200452Y0188967D01*
X0200494Y0188925D01*
X0200533Y0188881D01*
X0200570Y0188834D01*
X0200603Y0188785D01*
X0200633Y0188734D01*
X0200660Y0188681D01*
X0200684Y0188627D01*
X0200704Y0188571D01*
X0200720Y0188514D01*
X0200733Y0188456D01*
X0200743Y0188397D01*
X0200748Y0188338D01*
X0200750Y0188279D01*
X0200750Y0186768D01*
X0200748Y0186709D01*
X0200743Y0186650D01*
X0200733Y0186591D01*
X0200720Y0186533D01*
X0200704Y0186476D01*
X0200684Y0186420D01*
X0200660Y0186366D01*
X0200633Y0186313D01*
X0200603Y0186262D01*
X0200570Y0186213D01*
X0200533Y0186166D01*
X0200494Y0186122D01*
X0200452Y0186080D01*
X0200408Y0186041D01*
X0200361Y0186004D01*
X0200312Y0185971D01*
X0200261Y0185941D01*
X0200208Y0185914D01*
X0200154Y0185890D01*
X0200098Y0185870D01*
X0200041Y0185854D01*
X0199983Y0185841D01*
X0199924Y0185831D01*
X0199865Y0185826D01*
X0199806Y0185824D01*
X0198861Y0185824D01*
X0191937Y0185823D02*
X0191883Y0185825D01*
X0191829Y0185831D01*
X0191776Y0185840D01*
X0191724Y0185854D01*
X0191673Y0185871D01*
X0191623Y0185891D01*
X0191575Y0185915D01*
X0191528Y0185943D01*
X0191484Y0185974D01*
X0191442Y0186008D01*
X0191402Y0186044D01*
X0191366Y0186084D01*
X0191332Y0186126D01*
X0191301Y0186170D01*
X0191273Y0186217D01*
X0191249Y0186265D01*
X0191229Y0186315D01*
X0191212Y0186366D01*
X0191198Y0186418D01*
X0191189Y0186471D01*
X0191183Y0186525D01*
X0191181Y0186579D01*
X0191181Y0188468D01*
X0191937Y0195824D02*
X0193070Y0195824D01*
X0193070Y0197712D01*
X0192503Y0197712D01*
X0191181Y0198468D02*
X0191183Y0198522D01*
X0191189Y0198576D01*
X0191198Y0198629D01*
X0191212Y0198681D01*
X0191229Y0198732D01*
X0191249Y0198782D01*
X0191273Y0198830D01*
X0191301Y0198877D01*
X0191332Y0198921D01*
X0191366Y0198963D01*
X0191402Y0199003D01*
X0191442Y0199039D01*
X0191484Y0199073D01*
X0191528Y0199104D01*
X0191575Y0199132D01*
X0191623Y0199156D01*
X0191673Y0199176D01*
X0191724Y0199193D01*
X0191776Y0199207D01*
X0191829Y0199216D01*
X0191883Y0199222D01*
X0191937Y0199224D01*
X0193070Y0199224D01*
X0195021Y0199224D02*
X0195021Y0195824D01*
X0196910Y0195824D02*
X0195021Y0199224D01*
X0196910Y0199224D02*
X0196910Y0195824D01*
X0198861Y0195824D02*
X0198861Y0199224D01*
X0199806Y0199224D01*
X0199806Y0199223D02*
X0199865Y0199221D01*
X0199924Y0199216D01*
X0199983Y0199206D01*
X0200041Y0199193D01*
X0200098Y0199177D01*
X0200154Y0199157D01*
X0200208Y0199133D01*
X0200261Y0199106D01*
X0200312Y0199076D01*
X0200361Y0199043D01*
X0200408Y0199006D01*
X0200452Y0198967D01*
X0200494Y0198925D01*
X0200533Y0198881D01*
X0200570Y0198834D01*
X0200603Y0198785D01*
X0200633Y0198734D01*
X0200660Y0198681D01*
X0200684Y0198627D01*
X0200704Y0198571D01*
X0200720Y0198514D01*
X0200733Y0198456D01*
X0200743Y0198397D01*
X0200748Y0198338D01*
X0200750Y0198279D01*
X0200750Y0196768D01*
X0200748Y0196709D01*
X0200743Y0196650D01*
X0200733Y0196591D01*
X0200720Y0196533D01*
X0200704Y0196476D01*
X0200684Y0196420D01*
X0200660Y0196366D01*
X0200633Y0196313D01*
X0200603Y0196262D01*
X0200570Y0196213D01*
X0200533Y0196166D01*
X0200494Y0196122D01*
X0200452Y0196080D01*
X0200408Y0196041D01*
X0200361Y0196004D01*
X0200312Y0195971D01*
X0200261Y0195941D01*
X0200208Y0195914D01*
X0200154Y0195890D01*
X0200098Y0195870D01*
X0200041Y0195854D01*
X0199983Y0195841D01*
X0199924Y0195831D01*
X0199865Y0195826D01*
X0199806Y0195824D01*
X0198861Y0195824D01*
X0191937Y0195823D02*
X0191883Y0195825D01*
X0191829Y0195831D01*
X0191776Y0195840D01*
X0191724Y0195854D01*
X0191673Y0195871D01*
X0191623Y0195891D01*
X0191575Y0195915D01*
X0191528Y0195943D01*
X0191484Y0195974D01*
X0191442Y0196008D01*
X0191402Y0196044D01*
X0191366Y0196084D01*
X0191332Y0196126D01*
X0191301Y0196170D01*
X0191273Y0196217D01*
X0191249Y0196265D01*
X0191229Y0196315D01*
X0191212Y0196366D01*
X0191198Y0196418D01*
X0191189Y0196471D01*
X0191183Y0196525D01*
X0191181Y0196579D01*
X0191181Y0198468D01*
X0193926Y0205824D02*
X0195059Y0209224D01*
X0196428Y0209224D02*
X0197183Y0209224D01*
X0196806Y0209224D02*
X0196806Y0205824D01*
X0197183Y0205824D02*
X0196428Y0205824D01*
X0198861Y0205824D02*
X0198861Y0209224D01*
X0200750Y0205824D01*
X0200750Y0209224D01*
X0193926Y0205824D02*
X0192792Y0209224D01*
X0199050Y0226579D02*
X0200561Y0228468D01*
X0200467Y0228752D02*
X0200449Y0228799D01*
X0200427Y0228845D01*
X0200402Y0228890D01*
X0200374Y0228932D01*
X0200343Y0228973D01*
X0200309Y0229011D01*
X0200272Y0229046D01*
X0200233Y0229079D01*
X0200191Y0229108D01*
X0200148Y0229135D01*
X0200102Y0229158D01*
X0200055Y0229178D01*
X0200007Y0229194D01*
X0199958Y0229207D01*
X0199908Y0229217D01*
X0199857Y0229222D01*
X0199806Y0229224D01*
X0199755Y0229222D01*
X0199704Y0229217D01*
X0199654Y0229207D01*
X0199605Y0229194D01*
X0199557Y0229178D01*
X0199510Y0229158D01*
X0199464Y0229135D01*
X0199421Y0229108D01*
X0199379Y0229079D01*
X0199340Y0229046D01*
X0199303Y0229011D01*
X0199269Y0228973D01*
X0199238Y0228932D01*
X0199210Y0228890D01*
X0199185Y0228845D01*
X0199163Y0228799D01*
X0199145Y0228752D01*
X0200467Y0228752D02*
X0200508Y0228663D01*
X0200546Y0228573D01*
X0200581Y0228482D01*
X0200613Y0228390D01*
X0200642Y0228296D01*
X0200667Y0228202D01*
X0200689Y0228106D01*
X0200707Y0228010D01*
X0200723Y0227914D01*
X0200735Y0227817D01*
X0200743Y0227719D01*
X0200748Y0227622D01*
X0200750Y0227524D01*
X0198861Y0227524D02*
X0198863Y0227622D01*
X0198868Y0227719D01*
X0198876Y0227817D01*
X0198888Y0227914D01*
X0198904Y0228010D01*
X0198922Y0228106D01*
X0198944Y0228202D01*
X0198969Y0228296D01*
X0198998Y0228390D01*
X0199030Y0228482D01*
X0199065Y0228573D01*
X0199103Y0228663D01*
X0199144Y0228752D01*
X0200750Y0227524D02*
X0200748Y0227426D01*
X0200743Y0227329D01*
X0200735Y0227231D01*
X0200723Y0227134D01*
X0200707Y0227038D01*
X0200689Y0226942D01*
X0200667Y0226846D01*
X0200642Y0226752D01*
X0200613Y0226658D01*
X0200581Y0226566D01*
X0200546Y0226475D01*
X0200508Y0226385D01*
X0200467Y0226296D01*
X0200449Y0226249D01*
X0200427Y0226203D01*
X0200402Y0226158D01*
X0200374Y0226116D01*
X0200343Y0226075D01*
X0200309Y0226037D01*
X0200272Y0226002D01*
X0200233Y0225969D01*
X0200191Y0225940D01*
X0200148Y0225913D01*
X0200102Y0225890D01*
X0200055Y0225870D01*
X0200007Y0225854D01*
X0199958Y0225841D01*
X0199908Y0225831D01*
X0199857Y0225826D01*
X0199806Y0225824D01*
X0199755Y0225826D01*
X0199704Y0225831D01*
X0199654Y0225841D01*
X0199605Y0225854D01*
X0199557Y0225870D01*
X0199510Y0225890D01*
X0199464Y0225913D01*
X0199421Y0225940D01*
X0199379Y0225969D01*
X0199340Y0226002D01*
X0199303Y0226037D01*
X0199269Y0226075D01*
X0199238Y0226116D01*
X0199210Y0226158D01*
X0199185Y0226203D01*
X0199163Y0226249D01*
X0199145Y0226296D01*
X0199144Y0226296D02*
X0199103Y0226385D01*
X0199065Y0226475D01*
X0199030Y0226566D01*
X0198998Y0226658D01*
X0198969Y0226752D01*
X0198944Y0226846D01*
X0198922Y0226942D01*
X0198904Y0227038D01*
X0198888Y0227134D01*
X0198876Y0227231D01*
X0198868Y0227329D01*
X0198863Y0227426D01*
X0198861Y0227524D01*
X0198861Y0235824D02*
X0200750Y0235824D01*
X0199806Y0235824D02*
X0199806Y0239224D01*
X0198861Y0238468D01*
X0198861Y0245824D02*
X0200750Y0245824D01*
X0198861Y0245824D02*
X0200467Y0247712D01*
X0199900Y0249224D02*
X0199835Y0249222D01*
X0199770Y0249216D01*
X0199705Y0249206D01*
X0199641Y0249193D01*
X0199578Y0249175D01*
X0199516Y0249154D01*
X0199456Y0249129D01*
X0199397Y0249101D01*
X0199340Y0249069D01*
X0199284Y0249034D01*
X0199232Y0248996D01*
X0199181Y0248954D01*
X0199133Y0248909D01*
X0199088Y0248862D01*
X0199046Y0248812D01*
X0199007Y0248760D01*
X0198971Y0248705D01*
X0198938Y0248649D01*
X0198909Y0248590D01*
X0198883Y0248530D01*
X0198861Y0248468D01*
X0200467Y0247713D02*
X0200507Y0247753D01*
X0200544Y0247796D01*
X0200579Y0247841D01*
X0200610Y0247889D01*
X0200639Y0247938D01*
X0200665Y0247988D01*
X0200687Y0248041D01*
X0200706Y0248094D01*
X0200722Y0248149D01*
X0200734Y0248204D01*
X0200743Y0248261D01*
X0200748Y0248317D01*
X0200750Y0248374D01*
X0200748Y0248430D01*
X0200743Y0248485D01*
X0200734Y0248540D01*
X0200721Y0248594D01*
X0200705Y0248647D01*
X0200685Y0248699D01*
X0200662Y0248750D01*
X0200636Y0248799D01*
X0200607Y0248846D01*
X0200574Y0248891D01*
X0200539Y0248934D01*
X0200501Y0248975D01*
X0200460Y0249013D01*
X0200417Y0249048D01*
X0200372Y0249081D01*
X0200325Y0249110D01*
X0200276Y0249136D01*
X0200225Y0249159D01*
X0200173Y0249179D01*
X0200120Y0249195D01*
X0200066Y0249208D01*
X0200011Y0249217D01*
X0199956Y0249222D01*
X0199900Y0249224D01*
X0199806Y0255824D02*
X0198861Y0255824D01*
X0199806Y0255824D02*
X0199866Y0255826D01*
X0199927Y0255832D01*
X0199986Y0255841D01*
X0200045Y0255855D01*
X0200103Y0255872D01*
X0200160Y0255893D01*
X0200216Y0255917D01*
X0200269Y0255945D01*
X0200321Y0255977D01*
X0200371Y0256011D01*
X0200418Y0256049D01*
X0200463Y0256090D01*
X0200505Y0256133D01*
X0200544Y0256179D01*
X0200580Y0256228D01*
X0200613Y0256279D01*
X0200643Y0256331D01*
X0200669Y0256386D01*
X0200692Y0256442D01*
X0200711Y0256499D01*
X0200726Y0256558D01*
X0200738Y0256617D01*
X0200746Y0256677D01*
X0200750Y0256738D01*
X0200750Y0256798D01*
X0200746Y0256859D01*
X0200738Y0256919D01*
X0200726Y0256978D01*
X0200711Y0257037D01*
X0200692Y0257094D01*
X0200669Y0257150D01*
X0200643Y0257205D01*
X0200613Y0257257D01*
X0200580Y0257308D01*
X0200544Y0257357D01*
X0200505Y0257403D01*
X0200463Y0257446D01*
X0200418Y0257487D01*
X0200371Y0257525D01*
X0200321Y0257559D01*
X0200269Y0257591D01*
X0200216Y0257619D01*
X0200160Y0257643D01*
X0200103Y0257664D01*
X0200045Y0257681D01*
X0199986Y0257695D01*
X0199927Y0257704D01*
X0199866Y0257710D01*
X0199806Y0257712D01*
X0199994Y0257712D02*
X0199239Y0257712D01*
X0199994Y0257712D02*
X0200048Y0257714D01*
X0200102Y0257720D01*
X0200155Y0257729D01*
X0200207Y0257743D01*
X0200258Y0257760D01*
X0200308Y0257780D01*
X0200356Y0257804D01*
X0200403Y0257832D01*
X0200447Y0257863D01*
X0200489Y0257897D01*
X0200529Y0257933D01*
X0200565Y0257973D01*
X0200599Y0258015D01*
X0200630Y0258059D01*
X0200658Y0258106D01*
X0200682Y0258154D01*
X0200702Y0258204D01*
X0200719Y0258255D01*
X0200733Y0258307D01*
X0200742Y0258360D01*
X0200748Y0258414D01*
X0200750Y0258468D01*
X0200748Y0258522D01*
X0200742Y0258576D01*
X0200733Y0258629D01*
X0200719Y0258681D01*
X0200702Y0258732D01*
X0200682Y0258782D01*
X0200658Y0258830D01*
X0200630Y0258877D01*
X0200599Y0258921D01*
X0200565Y0258963D01*
X0200529Y0259003D01*
X0200489Y0259039D01*
X0200447Y0259073D01*
X0200403Y0259104D01*
X0200356Y0259132D01*
X0200308Y0259156D01*
X0200258Y0259176D01*
X0200207Y0259193D01*
X0200155Y0259207D01*
X0200102Y0259216D01*
X0200048Y0259222D01*
X0199994Y0259224D01*
X0198861Y0259224D01*
X0200183Y0265824D02*
X0200183Y0267335D01*
X0200750Y0266579D02*
X0198861Y0266579D01*
X0199617Y0269224D01*
X0199994Y0275824D02*
X0198861Y0275824D01*
X0199994Y0275823D02*
X0200048Y0275825D01*
X0200102Y0275831D01*
X0200155Y0275840D01*
X0200207Y0275854D01*
X0200258Y0275871D01*
X0200308Y0275891D01*
X0200356Y0275915D01*
X0200403Y0275943D01*
X0200447Y0275974D01*
X0200489Y0276008D01*
X0200529Y0276044D01*
X0200565Y0276084D01*
X0200599Y0276126D01*
X0200630Y0276170D01*
X0200658Y0276217D01*
X0200682Y0276265D01*
X0200702Y0276315D01*
X0200719Y0276366D01*
X0200733Y0276418D01*
X0200742Y0276471D01*
X0200748Y0276525D01*
X0200750Y0276579D01*
X0200750Y0276957D01*
X0200748Y0277011D01*
X0200742Y0277065D01*
X0200733Y0277118D01*
X0200719Y0277170D01*
X0200702Y0277221D01*
X0200682Y0277271D01*
X0200658Y0277319D01*
X0200630Y0277366D01*
X0200599Y0277410D01*
X0200565Y0277452D01*
X0200529Y0277492D01*
X0200489Y0277528D01*
X0200447Y0277562D01*
X0200403Y0277593D01*
X0200356Y0277621D01*
X0200308Y0277645D01*
X0200258Y0277665D01*
X0200207Y0277682D01*
X0200155Y0277696D01*
X0200102Y0277705D01*
X0200048Y0277711D01*
X0199994Y0277713D01*
X0198861Y0277713D01*
X0198861Y0279224D01*
X0200750Y0279224D01*
X0191166Y0169224D02*
X0190032Y0169224D01*
X0191166Y0169224D02*
X0191220Y0169222D01*
X0191274Y0169216D01*
X0191327Y0169207D01*
X0191379Y0169193D01*
X0191430Y0169176D01*
X0191480Y0169156D01*
X0191528Y0169132D01*
X0191575Y0169104D01*
X0191619Y0169073D01*
X0191661Y0169039D01*
X0191701Y0169003D01*
X0191737Y0168963D01*
X0191771Y0168921D01*
X0191802Y0168877D01*
X0191830Y0168830D01*
X0191854Y0168782D01*
X0191874Y0168732D01*
X0191891Y0168681D01*
X0191905Y0168629D01*
X0191914Y0168576D01*
X0191920Y0168522D01*
X0191922Y0168468D01*
X0191920Y0168414D01*
X0191914Y0168360D01*
X0191905Y0168307D01*
X0191891Y0168255D01*
X0191874Y0168204D01*
X0191854Y0168154D01*
X0191830Y0168106D01*
X0191802Y0168059D01*
X0191771Y0168015D01*
X0191737Y0167973D01*
X0191701Y0167933D01*
X0191661Y0167897D01*
X0191619Y0167863D01*
X0191575Y0167832D01*
X0191528Y0167804D01*
X0191480Y0167780D01*
X0191430Y0167760D01*
X0191379Y0167743D01*
X0191327Y0167729D01*
X0191274Y0167720D01*
X0191220Y0167714D01*
X0191166Y0167712D01*
X0191166Y0167713D02*
X0190410Y0167713D01*
X0190977Y0167712D02*
X0191037Y0167710D01*
X0191098Y0167704D01*
X0191157Y0167695D01*
X0191216Y0167681D01*
X0191274Y0167664D01*
X0191331Y0167643D01*
X0191387Y0167619D01*
X0191440Y0167591D01*
X0191492Y0167559D01*
X0191542Y0167525D01*
X0191589Y0167487D01*
X0191634Y0167446D01*
X0191676Y0167403D01*
X0191715Y0167357D01*
X0191751Y0167308D01*
X0191784Y0167257D01*
X0191814Y0167205D01*
X0191840Y0167150D01*
X0191863Y0167094D01*
X0191882Y0167037D01*
X0191897Y0166978D01*
X0191909Y0166919D01*
X0191917Y0166859D01*
X0191921Y0166798D01*
X0191921Y0166738D01*
X0191917Y0166677D01*
X0191909Y0166617D01*
X0191897Y0166558D01*
X0191882Y0166499D01*
X0191863Y0166442D01*
X0191840Y0166386D01*
X0191814Y0166331D01*
X0191784Y0166279D01*
X0191751Y0166228D01*
X0191715Y0166179D01*
X0191676Y0166133D01*
X0191634Y0166090D01*
X0191589Y0166049D01*
X0191542Y0166011D01*
X0191492Y0165977D01*
X0191440Y0165945D01*
X0191387Y0165917D01*
X0191331Y0165893D01*
X0191274Y0165872D01*
X0191216Y0165855D01*
X0191157Y0165841D01*
X0191098Y0165832D01*
X0191037Y0165826D01*
X0190977Y0165824D01*
X0190032Y0165824D01*
X0188270Y0167146D02*
X0186003Y0167146D01*
X0187137Y0166013D02*
X0187137Y0168279D01*
D12*
X0154150Y0164774D02*
X0154150Y0163718D01*
X0153094Y0164615D01*
X0152250Y0164299D02*
X0152252Y0164251D01*
X0152258Y0164204D01*
X0152267Y0164157D01*
X0152280Y0164110D01*
X0152296Y0164065D01*
X0152317Y0164022D01*
X0152340Y0163980D01*
X0152367Y0163940D01*
X0152396Y0163903D01*
X0152429Y0163867D01*
X0152464Y0163835D01*
X0152502Y0163805D01*
X0152542Y0163779D01*
X0152584Y0163755D01*
X0152627Y0163735D01*
X0152672Y0163719D01*
X0153094Y0164615D02*
X0153065Y0164643D01*
X0153033Y0164670D01*
X0152999Y0164693D01*
X0152963Y0164714D01*
X0152926Y0164732D01*
X0152887Y0164746D01*
X0152848Y0164758D01*
X0152807Y0164766D01*
X0152766Y0164771D01*
X0152725Y0164773D01*
X0152725Y0164774D02*
X0152684Y0164772D01*
X0152643Y0164767D01*
X0152602Y0164758D01*
X0152563Y0164745D01*
X0152524Y0164729D01*
X0152488Y0164710D01*
X0152453Y0164688D01*
X0152420Y0164663D01*
X0152389Y0164635D01*
X0152361Y0164604D01*
X0152336Y0164571D01*
X0152314Y0164537D01*
X0152295Y0164500D01*
X0152279Y0164461D01*
X0152266Y0164422D01*
X0152257Y0164382D01*
X0152252Y0164340D01*
X0152250Y0164299D01*
X0152250Y0162557D02*
X0153728Y0162557D01*
X0153767Y0162555D01*
X0153806Y0162550D01*
X0153843Y0162541D01*
X0153880Y0162529D01*
X0153916Y0162513D01*
X0153950Y0162494D01*
X0153982Y0162472D01*
X0154012Y0162447D01*
X0154040Y0162419D01*
X0154065Y0162389D01*
X0154087Y0162357D01*
X0154106Y0162323D01*
X0154122Y0162287D01*
X0154134Y0162250D01*
X0154143Y0162213D01*
X0154148Y0162174D01*
X0154150Y0162135D01*
X0154150Y0161924D01*
X0154150Y0114774D02*
X0154150Y0113718D01*
X0154150Y0114246D02*
X0152250Y0114246D01*
X0152672Y0113718D01*
X0152250Y0112557D02*
X0153728Y0112557D01*
X0153767Y0112555D01*
X0153806Y0112550D01*
X0153843Y0112541D01*
X0153880Y0112529D01*
X0153916Y0112513D01*
X0153950Y0112494D01*
X0153982Y0112472D01*
X0154012Y0112447D01*
X0154040Y0112419D01*
X0154065Y0112389D01*
X0154087Y0112357D01*
X0154106Y0112323D01*
X0154122Y0112287D01*
X0154134Y0112250D01*
X0154143Y0112213D01*
X0154148Y0112174D01*
X0154150Y0112135D01*
X0154150Y0111924D01*
X0137169Y0060274D02*
X0136747Y0060274D01*
X0136747Y0060273D02*
X0136708Y0060271D01*
X0136669Y0060266D01*
X0136632Y0060257D01*
X0136595Y0060244D01*
X0136559Y0060229D01*
X0136525Y0060210D01*
X0136493Y0060188D01*
X0136463Y0060163D01*
X0136435Y0060135D01*
X0136410Y0060105D01*
X0136388Y0060073D01*
X0136369Y0060039D01*
X0136353Y0060003D01*
X0136341Y0059966D01*
X0136332Y0059929D01*
X0136327Y0059890D01*
X0136325Y0059851D01*
X0136325Y0058796D01*
X0136327Y0058757D01*
X0136332Y0058718D01*
X0136341Y0058681D01*
X0136353Y0058644D01*
X0136369Y0058608D01*
X0136388Y0058574D01*
X0136410Y0058542D01*
X0136435Y0058512D01*
X0136463Y0058484D01*
X0136493Y0058459D01*
X0136525Y0058437D01*
X0136559Y0058418D01*
X0136595Y0058402D01*
X0136632Y0058390D01*
X0136669Y0058381D01*
X0136708Y0058376D01*
X0136747Y0058374D01*
X0137169Y0058374D01*
X0135347Y0058374D02*
X0134925Y0058374D01*
X0135136Y0058374D02*
X0135136Y0060274D01*
X0134925Y0060274D02*
X0135347Y0060274D01*
X0133797Y0059165D02*
X0133216Y0059482D01*
X0133427Y0060274D02*
X0133478Y0060272D01*
X0133529Y0060267D01*
X0133579Y0060259D01*
X0133629Y0060248D01*
X0133677Y0060233D01*
X0133725Y0060216D01*
X0133772Y0060195D01*
X0133817Y0060171D01*
X0133860Y0060145D01*
X0133902Y0060116D01*
X0133216Y0059481D02*
X0133182Y0059504D01*
X0133151Y0059529D01*
X0133122Y0059557D01*
X0133095Y0059588D01*
X0133072Y0059621D01*
X0133052Y0059656D01*
X0133035Y0059693D01*
X0133022Y0059731D01*
X0133013Y0059770D01*
X0133007Y0059811D01*
X0133005Y0059851D01*
X0133007Y0059890D01*
X0133012Y0059929D01*
X0133021Y0059966D01*
X0133033Y0060003D01*
X0133049Y0060039D01*
X0133068Y0060073D01*
X0133090Y0060105D01*
X0133115Y0060135D01*
X0133143Y0060163D01*
X0133173Y0060188D01*
X0133205Y0060210D01*
X0133239Y0060229D01*
X0133275Y0060245D01*
X0133312Y0060257D01*
X0133349Y0060266D01*
X0133388Y0060271D01*
X0133427Y0060273D01*
X0132952Y0058638D02*
X0132994Y0058598D01*
X0133040Y0058560D01*
X0133087Y0058526D01*
X0133137Y0058495D01*
X0133189Y0058467D01*
X0133242Y0058443D01*
X0133297Y0058422D01*
X0133353Y0058405D01*
X0133410Y0058391D01*
X0133468Y0058382D01*
X0133526Y0058376D01*
X0133585Y0058374D01*
X0133624Y0058376D01*
X0133663Y0058381D01*
X0133700Y0058390D01*
X0133737Y0058402D01*
X0133773Y0058418D01*
X0133807Y0058437D01*
X0133839Y0058459D01*
X0133869Y0058484D01*
X0133897Y0058512D01*
X0133922Y0058542D01*
X0133944Y0058574D01*
X0133963Y0058608D01*
X0133979Y0058644D01*
X0133991Y0058681D01*
X0134000Y0058718D01*
X0134005Y0058757D01*
X0134007Y0058796D01*
X0134008Y0058796D02*
X0134006Y0058836D01*
X0134000Y0058877D01*
X0133991Y0058916D01*
X0133978Y0058954D01*
X0133961Y0058991D01*
X0133941Y0059026D01*
X0133918Y0059059D01*
X0133891Y0059090D01*
X0133862Y0059118D01*
X0133831Y0059143D01*
X0133797Y0059166D01*
X0132025Y0058374D02*
X0131392Y0060274D01*
X0130759Y0058374D01*
X0130917Y0058849D02*
X0131867Y0058849D01*
X0129362Y0058373D02*
X0129407Y0058375D01*
X0129451Y0058381D01*
X0129495Y0058390D01*
X0129538Y0058403D01*
X0129579Y0058420D01*
X0129620Y0058440D01*
X0129658Y0058464D01*
X0129694Y0058490D01*
X0129727Y0058520D01*
X0129758Y0058552D01*
X0129787Y0058587D01*
X0129812Y0058624D01*
X0129833Y0058663D01*
X0129852Y0058704D01*
X0129867Y0058746D01*
X0129878Y0058790D01*
X0129886Y0058834D01*
X0129890Y0058879D01*
X0129890Y0058923D01*
X0129886Y0058968D01*
X0129878Y0059012D01*
X0129867Y0059056D01*
X0129852Y0059098D01*
X0129833Y0059139D01*
X0129812Y0059178D01*
X0129787Y0059215D01*
X0129758Y0059250D01*
X0129727Y0059282D01*
X0129694Y0059312D01*
X0129658Y0059338D01*
X0129620Y0059362D01*
X0129579Y0059382D01*
X0129538Y0059399D01*
X0129495Y0059412D01*
X0129451Y0059421D01*
X0129407Y0059427D01*
X0129362Y0059429D01*
X0128834Y0059429D01*
X0129362Y0059429D02*
X0129402Y0059431D01*
X0129442Y0059437D01*
X0129481Y0059446D01*
X0129519Y0059459D01*
X0129555Y0059476D01*
X0129590Y0059496D01*
X0129623Y0059519D01*
X0129653Y0059546D01*
X0129681Y0059575D01*
X0129706Y0059606D01*
X0129727Y0059640D01*
X0129746Y0059676D01*
X0129761Y0059713D01*
X0129772Y0059752D01*
X0129780Y0059791D01*
X0129784Y0059831D01*
X0129784Y0059871D01*
X0129780Y0059911D01*
X0129772Y0059950D01*
X0129761Y0059989D01*
X0129746Y0060026D01*
X0129727Y0060062D01*
X0129706Y0060096D01*
X0129681Y0060127D01*
X0129653Y0060156D01*
X0129623Y0060183D01*
X0129590Y0060206D01*
X0129555Y0060226D01*
X0129519Y0060243D01*
X0129481Y0060256D01*
X0129442Y0060265D01*
X0129402Y0060271D01*
X0129362Y0060273D01*
X0129362Y0060274D02*
X0128834Y0060274D01*
X0128834Y0058374D01*
X0129362Y0058374D01*
X0127528Y0058901D02*
X0127528Y0059746D01*
X0127526Y0059790D01*
X0127521Y0059833D01*
X0127512Y0059876D01*
X0127499Y0059917D01*
X0127484Y0059958D01*
X0127464Y0059997D01*
X0127442Y0060035D01*
X0127417Y0060070D01*
X0127388Y0060104D01*
X0127358Y0060134D01*
X0127324Y0060163D01*
X0127289Y0060188D01*
X0127251Y0060210D01*
X0127212Y0060230D01*
X0127171Y0060245D01*
X0127130Y0060258D01*
X0127087Y0060267D01*
X0127044Y0060272D01*
X0127000Y0060274D01*
X0126472Y0060274D01*
X0126472Y0058374D01*
X0127000Y0058374D01*
X0127000Y0058373D02*
X0127044Y0058375D01*
X0127087Y0058380D01*
X0127130Y0058389D01*
X0127171Y0058402D01*
X0127212Y0058417D01*
X0127251Y0058437D01*
X0127289Y0058459D01*
X0127324Y0058484D01*
X0127358Y0058513D01*
X0127388Y0058543D01*
X0127417Y0058577D01*
X0127442Y0058612D01*
X0127464Y0058650D01*
X0127484Y0058689D01*
X0127499Y0058730D01*
X0127512Y0058771D01*
X0127521Y0058814D01*
X0127526Y0058857D01*
X0127528Y0058901D01*
X0125452Y0058374D02*
X0124608Y0058374D01*
X0124608Y0060274D01*
X0123580Y0060274D02*
X0122736Y0060274D01*
X0122736Y0058374D01*
X0123580Y0058374D01*
X0123369Y0059429D02*
X0122736Y0059429D01*
X0121667Y0060274D02*
X0121245Y0060274D01*
X0121456Y0060274D02*
X0121456Y0058374D01*
X0121245Y0058374D02*
X0121667Y0058374D01*
X0120184Y0058374D02*
X0120184Y0060274D01*
X0120184Y0059429D02*
X0119128Y0059429D01*
X0119128Y0060274D02*
X0119128Y0058374D01*
X0117813Y0059165D02*
X0117232Y0059482D01*
X0117443Y0060274D02*
X0117494Y0060272D01*
X0117545Y0060267D01*
X0117595Y0060259D01*
X0117645Y0060248D01*
X0117693Y0060233D01*
X0117741Y0060216D01*
X0117788Y0060195D01*
X0117833Y0060171D01*
X0117876Y0060145D01*
X0117918Y0060116D01*
X0117232Y0059481D02*
X0117198Y0059504D01*
X0117167Y0059529D01*
X0117138Y0059557D01*
X0117111Y0059588D01*
X0117088Y0059621D01*
X0117068Y0059656D01*
X0117051Y0059693D01*
X0117038Y0059731D01*
X0117029Y0059770D01*
X0117023Y0059811D01*
X0117021Y0059851D01*
X0117023Y0059890D01*
X0117028Y0059929D01*
X0117037Y0059966D01*
X0117049Y0060003D01*
X0117065Y0060039D01*
X0117084Y0060073D01*
X0117106Y0060105D01*
X0117131Y0060135D01*
X0117159Y0060163D01*
X0117189Y0060188D01*
X0117221Y0060210D01*
X0117255Y0060229D01*
X0117291Y0060245D01*
X0117328Y0060257D01*
X0117365Y0060266D01*
X0117404Y0060271D01*
X0117443Y0060273D01*
X0116969Y0058638D02*
X0117011Y0058598D01*
X0117057Y0058560D01*
X0117104Y0058526D01*
X0117154Y0058495D01*
X0117206Y0058467D01*
X0117259Y0058443D01*
X0117314Y0058422D01*
X0117370Y0058405D01*
X0117427Y0058391D01*
X0117485Y0058382D01*
X0117543Y0058376D01*
X0117602Y0058374D01*
X0117641Y0058376D01*
X0117680Y0058381D01*
X0117717Y0058390D01*
X0117754Y0058402D01*
X0117790Y0058418D01*
X0117824Y0058437D01*
X0117856Y0058459D01*
X0117886Y0058484D01*
X0117914Y0058512D01*
X0117939Y0058542D01*
X0117961Y0058574D01*
X0117980Y0058608D01*
X0117996Y0058644D01*
X0118008Y0058681D01*
X0118017Y0058718D01*
X0118022Y0058757D01*
X0118024Y0058796D01*
X0118022Y0058836D01*
X0118016Y0058877D01*
X0118007Y0058916D01*
X0117994Y0058954D01*
X0117977Y0058991D01*
X0117957Y0059026D01*
X0117934Y0059059D01*
X0117907Y0059090D01*
X0117878Y0059118D01*
X0117847Y0059143D01*
X0117813Y0059166D01*
X0116046Y0058163D02*
X0115202Y0058163D01*
X0113680Y0058374D02*
X0113152Y0058374D01*
X0113680Y0058373D02*
X0113725Y0058375D01*
X0113769Y0058381D01*
X0113813Y0058390D01*
X0113856Y0058403D01*
X0113897Y0058420D01*
X0113938Y0058440D01*
X0113976Y0058464D01*
X0114012Y0058490D01*
X0114045Y0058520D01*
X0114076Y0058552D01*
X0114105Y0058587D01*
X0114130Y0058624D01*
X0114151Y0058663D01*
X0114170Y0058704D01*
X0114185Y0058746D01*
X0114196Y0058790D01*
X0114204Y0058834D01*
X0114208Y0058879D01*
X0114208Y0058923D01*
X0114204Y0058968D01*
X0114196Y0059012D01*
X0114185Y0059056D01*
X0114170Y0059098D01*
X0114151Y0059139D01*
X0114130Y0059178D01*
X0114105Y0059215D01*
X0114076Y0059250D01*
X0114045Y0059282D01*
X0114012Y0059312D01*
X0113976Y0059338D01*
X0113938Y0059362D01*
X0113897Y0059382D01*
X0113856Y0059399D01*
X0113813Y0059412D01*
X0113769Y0059421D01*
X0113725Y0059427D01*
X0113680Y0059429D01*
X0113786Y0059429D02*
X0113363Y0059429D01*
X0113786Y0059429D02*
X0113826Y0059431D01*
X0113866Y0059437D01*
X0113905Y0059446D01*
X0113943Y0059459D01*
X0113979Y0059476D01*
X0114014Y0059496D01*
X0114047Y0059519D01*
X0114077Y0059546D01*
X0114105Y0059575D01*
X0114130Y0059606D01*
X0114151Y0059640D01*
X0114170Y0059676D01*
X0114185Y0059713D01*
X0114196Y0059752D01*
X0114204Y0059791D01*
X0114208Y0059831D01*
X0114208Y0059871D01*
X0114204Y0059911D01*
X0114196Y0059950D01*
X0114185Y0059989D01*
X0114170Y0060026D01*
X0114151Y0060062D01*
X0114130Y0060096D01*
X0114105Y0060127D01*
X0114077Y0060156D01*
X0114047Y0060183D01*
X0114014Y0060206D01*
X0113979Y0060226D01*
X0113943Y0060243D01*
X0113905Y0060256D01*
X0113866Y0060265D01*
X0113826Y0060271D01*
X0113786Y0060273D01*
X0113786Y0060274D02*
X0113152Y0060274D01*
X0111545Y0060274D02*
X0111017Y0060274D01*
X0111017Y0058374D01*
X0111017Y0059218D02*
X0111545Y0059218D01*
X0111651Y0059218D02*
X0112073Y0058374D01*
X0111545Y0059218D02*
X0111590Y0059220D01*
X0111634Y0059226D01*
X0111678Y0059235D01*
X0111721Y0059248D01*
X0111762Y0059265D01*
X0111803Y0059285D01*
X0111841Y0059309D01*
X0111877Y0059335D01*
X0111910Y0059365D01*
X0111941Y0059397D01*
X0111970Y0059432D01*
X0111995Y0059469D01*
X0112016Y0059508D01*
X0112035Y0059549D01*
X0112050Y0059591D01*
X0112061Y0059635D01*
X0112069Y0059679D01*
X0112073Y0059724D01*
X0112073Y0059768D01*
X0112069Y0059813D01*
X0112061Y0059857D01*
X0112050Y0059901D01*
X0112035Y0059943D01*
X0112016Y0059984D01*
X0111995Y0060023D01*
X0111970Y0060060D01*
X0111941Y0060095D01*
X0111910Y0060127D01*
X0111877Y0060157D01*
X0111841Y0060183D01*
X0111803Y0060207D01*
X0111762Y0060227D01*
X0111721Y0060244D01*
X0111678Y0060257D01*
X0111634Y0060266D01*
X0111590Y0060272D01*
X0111545Y0060274D01*
X0109926Y0058163D02*
X0109082Y0058163D01*
X0108088Y0058901D02*
X0108088Y0059746D01*
X0108086Y0059791D01*
X0108080Y0059835D01*
X0108071Y0059879D01*
X0108058Y0059922D01*
X0108041Y0059963D01*
X0108021Y0060004D01*
X0107997Y0060042D01*
X0107971Y0060078D01*
X0107941Y0060111D01*
X0107909Y0060142D01*
X0107874Y0060171D01*
X0107837Y0060196D01*
X0107798Y0060217D01*
X0107757Y0060236D01*
X0107715Y0060251D01*
X0107671Y0060262D01*
X0107627Y0060270D01*
X0107582Y0060274D01*
X0107538Y0060274D01*
X0107493Y0060270D01*
X0107449Y0060262D01*
X0107405Y0060251D01*
X0107363Y0060236D01*
X0107322Y0060217D01*
X0107283Y0060196D01*
X0107246Y0060171D01*
X0107211Y0060142D01*
X0107179Y0060111D01*
X0107149Y0060078D01*
X0107123Y0060042D01*
X0107099Y0060004D01*
X0107079Y0059963D01*
X0107062Y0059922D01*
X0107049Y0059879D01*
X0107040Y0059835D01*
X0107034Y0059791D01*
X0107032Y0059746D01*
X0107032Y0058901D01*
X0107034Y0058856D01*
X0107040Y0058812D01*
X0107049Y0058768D01*
X0107062Y0058725D01*
X0107079Y0058684D01*
X0107099Y0058643D01*
X0107123Y0058605D01*
X0107149Y0058569D01*
X0107179Y0058536D01*
X0107211Y0058505D01*
X0107246Y0058476D01*
X0107283Y0058451D01*
X0107322Y0058430D01*
X0107363Y0058411D01*
X0107405Y0058396D01*
X0107449Y0058385D01*
X0107493Y0058377D01*
X0107538Y0058373D01*
X0107582Y0058373D01*
X0107627Y0058377D01*
X0107671Y0058385D01*
X0107715Y0058396D01*
X0107757Y0058411D01*
X0107798Y0058430D01*
X0107837Y0058451D01*
X0107874Y0058476D01*
X0107909Y0058505D01*
X0107941Y0058536D01*
X0107971Y0058569D01*
X0107997Y0058605D01*
X0108021Y0058643D01*
X0108041Y0058684D01*
X0108058Y0058725D01*
X0108071Y0058768D01*
X0108080Y0058812D01*
X0108086Y0058856D01*
X0108088Y0058901D01*
X0105856Y0058374D02*
X0105856Y0060274D01*
X0104800Y0060274D02*
X0105856Y0058374D01*
X0104800Y0058374D02*
X0104800Y0060274D01*
X0103552Y0060274D02*
X0103552Y0058901D01*
X0103550Y0058856D01*
X0103544Y0058812D01*
X0103535Y0058768D01*
X0103522Y0058725D01*
X0103505Y0058684D01*
X0103485Y0058643D01*
X0103461Y0058605D01*
X0103435Y0058569D01*
X0103405Y0058536D01*
X0103373Y0058505D01*
X0103338Y0058476D01*
X0103301Y0058451D01*
X0103262Y0058430D01*
X0103221Y0058411D01*
X0103179Y0058396D01*
X0103135Y0058385D01*
X0103091Y0058377D01*
X0103046Y0058373D01*
X0103002Y0058373D01*
X0102957Y0058377D01*
X0102913Y0058385D01*
X0102869Y0058396D01*
X0102827Y0058411D01*
X0102786Y0058430D01*
X0102747Y0058451D01*
X0102710Y0058476D01*
X0102675Y0058505D01*
X0102643Y0058536D01*
X0102613Y0058569D01*
X0102587Y0058605D01*
X0102563Y0058643D01*
X0102543Y0058684D01*
X0102526Y0058725D01*
X0102513Y0058768D01*
X0102504Y0058812D01*
X0102498Y0058856D01*
X0102496Y0058901D01*
X0102496Y0060274D01*
X0101430Y0058163D02*
X0100586Y0058163D01*
X0099592Y0058901D02*
X0099592Y0059746D01*
X0099590Y0059791D01*
X0099584Y0059835D01*
X0099575Y0059879D01*
X0099562Y0059922D01*
X0099545Y0059963D01*
X0099525Y0060004D01*
X0099501Y0060042D01*
X0099475Y0060078D01*
X0099445Y0060111D01*
X0099413Y0060142D01*
X0099378Y0060171D01*
X0099341Y0060196D01*
X0099302Y0060217D01*
X0099261Y0060236D01*
X0099219Y0060251D01*
X0099175Y0060262D01*
X0099131Y0060270D01*
X0099086Y0060274D01*
X0099042Y0060274D01*
X0098997Y0060270D01*
X0098953Y0060262D01*
X0098909Y0060251D01*
X0098867Y0060236D01*
X0098826Y0060217D01*
X0098787Y0060196D01*
X0098750Y0060171D01*
X0098715Y0060142D01*
X0098683Y0060111D01*
X0098653Y0060078D01*
X0098627Y0060042D01*
X0098603Y0060004D01*
X0098583Y0059963D01*
X0098566Y0059922D01*
X0098553Y0059879D01*
X0098544Y0059835D01*
X0098538Y0059791D01*
X0098536Y0059746D01*
X0098536Y0058901D01*
X0098538Y0058856D01*
X0098544Y0058812D01*
X0098553Y0058768D01*
X0098566Y0058725D01*
X0098583Y0058684D01*
X0098603Y0058643D01*
X0098627Y0058605D01*
X0098653Y0058569D01*
X0098683Y0058536D01*
X0098715Y0058505D01*
X0098750Y0058476D01*
X0098787Y0058451D01*
X0098826Y0058430D01*
X0098867Y0058411D01*
X0098909Y0058396D01*
X0098953Y0058385D01*
X0098997Y0058377D01*
X0099042Y0058373D01*
X0099086Y0058373D01*
X0099131Y0058377D01*
X0099175Y0058385D01*
X0099219Y0058396D01*
X0099261Y0058411D01*
X0099302Y0058430D01*
X0099341Y0058451D01*
X0099378Y0058476D01*
X0099413Y0058505D01*
X0099445Y0058536D01*
X0099475Y0058569D01*
X0099501Y0058605D01*
X0099525Y0058643D01*
X0099545Y0058684D01*
X0099562Y0058725D01*
X0099575Y0058768D01*
X0099584Y0058812D01*
X0099590Y0058856D01*
X0099592Y0058901D01*
X0097360Y0058374D02*
X0097360Y0060274D01*
X0096304Y0060274D02*
X0097360Y0058374D01*
X0096304Y0058374D02*
X0096304Y0060274D01*
X0095243Y0060274D02*
X0094821Y0060274D01*
X0095032Y0060274D02*
X0095032Y0058374D01*
X0094821Y0058374D02*
X0095243Y0058374D01*
X0093760Y0058901D02*
X0093760Y0060274D01*
X0092704Y0060274D02*
X0092704Y0058901D01*
X0092706Y0058856D01*
X0092712Y0058812D01*
X0092721Y0058768D01*
X0092734Y0058725D01*
X0092751Y0058684D01*
X0092771Y0058643D01*
X0092795Y0058605D01*
X0092821Y0058569D01*
X0092851Y0058536D01*
X0092883Y0058505D01*
X0092918Y0058476D01*
X0092955Y0058451D01*
X0092994Y0058430D01*
X0093035Y0058411D01*
X0093077Y0058396D01*
X0093121Y0058385D01*
X0093165Y0058377D01*
X0093210Y0058373D01*
X0093254Y0058373D01*
X0093299Y0058377D01*
X0093343Y0058385D01*
X0093387Y0058396D01*
X0093429Y0058411D01*
X0093470Y0058430D01*
X0093509Y0058451D01*
X0093546Y0058476D01*
X0093581Y0058505D01*
X0093613Y0058536D01*
X0093643Y0058569D01*
X0093669Y0058605D01*
X0093693Y0058643D01*
X0093713Y0058684D01*
X0093730Y0058725D01*
X0093743Y0058768D01*
X0093752Y0058812D01*
X0093758Y0058856D01*
X0093760Y0058901D01*
X0091456Y0058901D02*
X0091456Y0059746D01*
X0091454Y0059790D01*
X0091449Y0059833D01*
X0091440Y0059876D01*
X0091427Y0059917D01*
X0091412Y0059958D01*
X0091392Y0059997D01*
X0091370Y0060035D01*
X0091345Y0060070D01*
X0091316Y0060104D01*
X0091286Y0060134D01*
X0091252Y0060163D01*
X0091217Y0060188D01*
X0091179Y0060210D01*
X0091140Y0060230D01*
X0091099Y0060245D01*
X0091058Y0060258D01*
X0091015Y0060267D01*
X0090972Y0060272D01*
X0090928Y0060274D01*
X0090400Y0060274D01*
X0090400Y0058374D01*
X0090928Y0058374D01*
X0090928Y0058373D02*
X0090972Y0058375D01*
X0091015Y0058380D01*
X0091058Y0058389D01*
X0091099Y0058402D01*
X0091140Y0058417D01*
X0091179Y0058437D01*
X0091217Y0058459D01*
X0091252Y0058484D01*
X0091286Y0058513D01*
X0091316Y0058543D01*
X0091345Y0058577D01*
X0091370Y0058612D01*
X0091392Y0058650D01*
X0091412Y0058689D01*
X0091427Y0058730D01*
X0091440Y0058771D01*
X0091449Y0058814D01*
X0091454Y0058857D01*
X0091456Y0058901D01*
X0089249Y0058374D02*
X0088827Y0059218D01*
X0088721Y0059218D02*
X0088193Y0059218D01*
X0088721Y0059218D02*
X0088766Y0059220D01*
X0088810Y0059226D01*
X0088854Y0059235D01*
X0088897Y0059248D01*
X0088938Y0059265D01*
X0088979Y0059285D01*
X0089017Y0059309D01*
X0089053Y0059335D01*
X0089086Y0059365D01*
X0089117Y0059397D01*
X0089146Y0059432D01*
X0089171Y0059469D01*
X0089192Y0059508D01*
X0089211Y0059549D01*
X0089226Y0059591D01*
X0089237Y0059635D01*
X0089245Y0059679D01*
X0089249Y0059724D01*
X0089249Y0059768D01*
X0089245Y0059813D01*
X0089237Y0059857D01*
X0089226Y0059901D01*
X0089211Y0059943D01*
X0089192Y0059984D01*
X0089171Y0060023D01*
X0089146Y0060060D01*
X0089117Y0060095D01*
X0089086Y0060127D01*
X0089053Y0060157D01*
X0089017Y0060183D01*
X0088979Y0060207D01*
X0088938Y0060227D01*
X0088897Y0060244D01*
X0088854Y0060257D01*
X0088810Y0060266D01*
X0088766Y0060272D01*
X0088721Y0060274D01*
X0088193Y0060274D01*
X0088193Y0058374D01*
X0087097Y0058374D02*
X0086464Y0060274D01*
X0085831Y0058374D01*
X0085989Y0058849D02*
X0086939Y0058849D01*
X0070228Y0106291D02*
X0069172Y0106291D01*
X0069133Y0106293D01*
X0069094Y0106298D01*
X0069057Y0106307D01*
X0069020Y0106319D01*
X0068984Y0106335D01*
X0068950Y0106354D01*
X0068918Y0106376D01*
X0068888Y0106401D01*
X0068860Y0106429D01*
X0068835Y0106459D01*
X0068813Y0106491D01*
X0068794Y0106525D01*
X0068779Y0106561D01*
X0068766Y0106597D01*
X0068757Y0106635D01*
X0068752Y0106674D01*
X0068750Y0106713D01*
X0068750Y0107135D01*
X0069806Y0108064D02*
X0070228Y0108064D01*
X0070268Y0108066D01*
X0070308Y0108072D01*
X0070347Y0108081D01*
X0070385Y0108094D01*
X0070421Y0108111D01*
X0070456Y0108131D01*
X0070489Y0108154D01*
X0070519Y0108181D01*
X0070547Y0108210D01*
X0070572Y0108241D01*
X0070593Y0108275D01*
X0070612Y0108311D01*
X0070627Y0108348D01*
X0070638Y0108387D01*
X0070646Y0108426D01*
X0070650Y0108466D01*
X0070650Y0108506D01*
X0070646Y0108546D01*
X0070638Y0108585D01*
X0070627Y0108624D01*
X0070612Y0108661D01*
X0070593Y0108697D01*
X0070572Y0108731D01*
X0070547Y0108762D01*
X0070519Y0108791D01*
X0070489Y0108818D01*
X0070456Y0108841D01*
X0070421Y0108861D01*
X0070385Y0108878D01*
X0070347Y0108891D01*
X0070308Y0108900D01*
X0070268Y0108906D01*
X0070228Y0108908D01*
X0069806Y0108908D01*
X0069766Y0108906D01*
X0069726Y0108900D01*
X0069687Y0108891D01*
X0069649Y0108878D01*
X0069613Y0108861D01*
X0069578Y0108841D01*
X0069545Y0108818D01*
X0069515Y0108791D01*
X0069487Y0108762D01*
X0069462Y0108731D01*
X0069441Y0108697D01*
X0069422Y0108661D01*
X0069407Y0108624D01*
X0069396Y0108585D01*
X0069388Y0108546D01*
X0069384Y0108506D01*
X0069384Y0108466D01*
X0069388Y0108426D01*
X0069396Y0108387D01*
X0069407Y0108348D01*
X0069422Y0108311D01*
X0069441Y0108275D01*
X0069462Y0108241D01*
X0069487Y0108210D01*
X0069515Y0108181D01*
X0069545Y0108154D01*
X0069578Y0108131D01*
X0069613Y0108111D01*
X0069649Y0108094D01*
X0069687Y0108081D01*
X0069726Y0108072D01*
X0069766Y0108066D01*
X0069806Y0108064D01*
X0070650Y0107135D02*
X0070650Y0106713D01*
X0070648Y0106674D01*
X0070643Y0106635D01*
X0070634Y0106598D01*
X0070622Y0106561D01*
X0070606Y0106525D01*
X0070587Y0106491D01*
X0070565Y0106459D01*
X0070540Y0106429D01*
X0070512Y0106401D01*
X0070482Y0106376D01*
X0070450Y0106354D01*
X0070416Y0106335D01*
X0070380Y0106319D01*
X0070343Y0106307D01*
X0070306Y0106298D01*
X0070267Y0106293D01*
X0070228Y0106291D01*
X0070650Y0110008D02*
X0069383Y0110008D01*
X0069383Y0110535D01*
X0069385Y0110570D01*
X0069391Y0110606D01*
X0069401Y0110640D01*
X0069414Y0110673D01*
X0069432Y0110704D01*
X0069452Y0110733D01*
X0069476Y0110759D01*
X0069502Y0110783D01*
X0069531Y0110803D01*
X0069562Y0110821D01*
X0069595Y0110834D01*
X0069629Y0110844D01*
X0069664Y0110850D01*
X0069700Y0110852D01*
X0070650Y0110852D01*
X0070861Y0111880D02*
X0070861Y0112724D01*
X0070650Y0113718D02*
X0070650Y0114774D01*
X0070650Y0114246D02*
X0068750Y0114246D01*
X0069172Y0113718D01*
X0069172Y0156291D02*
X0070228Y0156291D01*
X0070267Y0156293D01*
X0070306Y0156298D01*
X0070343Y0156307D01*
X0070380Y0156319D01*
X0070416Y0156335D01*
X0070450Y0156354D01*
X0070482Y0156376D01*
X0070512Y0156401D01*
X0070540Y0156429D01*
X0070565Y0156459D01*
X0070587Y0156491D01*
X0070606Y0156525D01*
X0070622Y0156561D01*
X0070634Y0156598D01*
X0070643Y0156635D01*
X0070648Y0156674D01*
X0070650Y0156713D01*
X0070650Y0157135D01*
X0070228Y0158064D02*
X0069806Y0158064D01*
X0069766Y0158066D01*
X0069726Y0158072D01*
X0069687Y0158081D01*
X0069649Y0158094D01*
X0069613Y0158111D01*
X0069578Y0158131D01*
X0069545Y0158154D01*
X0069515Y0158181D01*
X0069487Y0158210D01*
X0069462Y0158241D01*
X0069441Y0158275D01*
X0069422Y0158311D01*
X0069407Y0158348D01*
X0069396Y0158387D01*
X0069388Y0158426D01*
X0069384Y0158466D01*
X0069384Y0158506D01*
X0069388Y0158546D01*
X0069396Y0158585D01*
X0069407Y0158624D01*
X0069422Y0158661D01*
X0069441Y0158697D01*
X0069462Y0158731D01*
X0069487Y0158762D01*
X0069515Y0158791D01*
X0069545Y0158818D01*
X0069578Y0158841D01*
X0069613Y0158861D01*
X0069649Y0158878D01*
X0069687Y0158891D01*
X0069726Y0158900D01*
X0069766Y0158906D01*
X0069806Y0158908D01*
X0070228Y0158908D01*
X0070268Y0158906D01*
X0070308Y0158900D01*
X0070347Y0158891D01*
X0070385Y0158878D01*
X0070421Y0158861D01*
X0070456Y0158841D01*
X0070489Y0158818D01*
X0070519Y0158791D01*
X0070547Y0158762D01*
X0070572Y0158731D01*
X0070593Y0158697D01*
X0070612Y0158661D01*
X0070627Y0158624D01*
X0070638Y0158585D01*
X0070646Y0158546D01*
X0070650Y0158506D01*
X0070650Y0158466D01*
X0070646Y0158426D01*
X0070638Y0158387D01*
X0070627Y0158348D01*
X0070612Y0158311D01*
X0070593Y0158275D01*
X0070572Y0158241D01*
X0070547Y0158210D01*
X0070519Y0158181D01*
X0070489Y0158154D01*
X0070456Y0158131D01*
X0070421Y0158111D01*
X0070385Y0158094D01*
X0070347Y0158081D01*
X0070308Y0158072D01*
X0070268Y0158066D01*
X0070228Y0158064D01*
X0068750Y0156713D02*
X0068752Y0156674D01*
X0068757Y0156635D01*
X0068766Y0156597D01*
X0068779Y0156561D01*
X0068794Y0156525D01*
X0068813Y0156491D01*
X0068835Y0156459D01*
X0068860Y0156429D01*
X0068888Y0156401D01*
X0068918Y0156376D01*
X0068950Y0156354D01*
X0068984Y0156335D01*
X0069020Y0156319D01*
X0069057Y0156307D01*
X0069094Y0156298D01*
X0069133Y0156293D01*
X0069172Y0156291D01*
X0068750Y0156713D02*
X0068750Y0157135D01*
X0069383Y0160008D02*
X0069383Y0160535D01*
X0069385Y0160570D01*
X0069391Y0160606D01*
X0069401Y0160640D01*
X0069414Y0160673D01*
X0069432Y0160704D01*
X0069452Y0160733D01*
X0069476Y0160759D01*
X0069502Y0160783D01*
X0069531Y0160803D01*
X0069562Y0160821D01*
X0069595Y0160834D01*
X0069629Y0160844D01*
X0069664Y0160850D01*
X0069700Y0160852D01*
X0070650Y0160852D01*
X0070650Y0160008D02*
X0069383Y0160008D01*
X0070861Y0161880D02*
X0070861Y0162724D01*
X0070650Y0163718D02*
X0070650Y0164774D01*
X0070650Y0163718D02*
X0069594Y0164615D01*
X0068750Y0164299D02*
X0068752Y0164251D01*
X0068758Y0164204D01*
X0068767Y0164157D01*
X0068780Y0164110D01*
X0068796Y0164065D01*
X0068817Y0164022D01*
X0068840Y0163980D01*
X0068867Y0163940D01*
X0068896Y0163903D01*
X0068929Y0163867D01*
X0068964Y0163835D01*
X0069002Y0163805D01*
X0069042Y0163779D01*
X0069084Y0163755D01*
X0069127Y0163735D01*
X0069172Y0163719D01*
X0069594Y0164615D02*
X0069565Y0164643D01*
X0069533Y0164670D01*
X0069499Y0164693D01*
X0069463Y0164714D01*
X0069426Y0164732D01*
X0069387Y0164746D01*
X0069348Y0164758D01*
X0069307Y0164766D01*
X0069266Y0164771D01*
X0069225Y0164773D01*
X0069225Y0164774D02*
X0069184Y0164772D01*
X0069143Y0164767D01*
X0069102Y0164758D01*
X0069063Y0164745D01*
X0069024Y0164729D01*
X0068988Y0164710D01*
X0068953Y0164688D01*
X0068920Y0164663D01*
X0068889Y0164635D01*
X0068861Y0164604D01*
X0068836Y0164571D01*
X0068814Y0164537D01*
X0068795Y0164500D01*
X0068779Y0164461D01*
X0068766Y0164422D01*
X0068757Y0164382D01*
X0068752Y0164340D01*
X0068750Y0164299D01*
X0069172Y0206291D02*
X0070228Y0206291D01*
X0070267Y0206293D01*
X0070306Y0206298D01*
X0070343Y0206307D01*
X0070380Y0206319D01*
X0070416Y0206335D01*
X0070450Y0206354D01*
X0070482Y0206376D01*
X0070512Y0206401D01*
X0070540Y0206429D01*
X0070565Y0206459D01*
X0070587Y0206491D01*
X0070606Y0206525D01*
X0070622Y0206561D01*
X0070634Y0206598D01*
X0070643Y0206635D01*
X0070648Y0206674D01*
X0070650Y0206713D01*
X0070650Y0207135D01*
X0070228Y0208064D02*
X0069806Y0208064D01*
X0069766Y0208066D01*
X0069726Y0208072D01*
X0069687Y0208081D01*
X0069649Y0208094D01*
X0069613Y0208111D01*
X0069578Y0208131D01*
X0069545Y0208154D01*
X0069515Y0208181D01*
X0069487Y0208210D01*
X0069462Y0208241D01*
X0069441Y0208275D01*
X0069422Y0208311D01*
X0069407Y0208348D01*
X0069396Y0208387D01*
X0069388Y0208426D01*
X0069384Y0208466D01*
X0069384Y0208506D01*
X0069388Y0208546D01*
X0069396Y0208585D01*
X0069407Y0208624D01*
X0069422Y0208661D01*
X0069441Y0208697D01*
X0069462Y0208731D01*
X0069487Y0208762D01*
X0069515Y0208791D01*
X0069545Y0208818D01*
X0069578Y0208841D01*
X0069613Y0208861D01*
X0069649Y0208878D01*
X0069687Y0208891D01*
X0069726Y0208900D01*
X0069766Y0208906D01*
X0069806Y0208908D01*
X0070228Y0208908D01*
X0070268Y0208906D01*
X0070308Y0208900D01*
X0070347Y0208891D01*
X0070385Y0208878D01*
X0070421Y0208861D01*
X0070456Y0208841D01*
X0070489Y0208818D01*
X0070519Y0208791D01*
X0070547Y0208762D01*
X0070572Y0208731D01*
X0070593Y0208697D01*
X0070612Y0208661D01*
X0070627Y0208624D01*
X0070638Y0208585D01*
X0070646Y0208546D01*
X0070650Y0208506D01*
X0070650Y0208466D01*
X0070646Y0208426D01*
X0070638Y0208387D01*
X0070627Y0208348D01*
X0070612Y0208311D01*
X0070593Y0208275D01*
X0070572Y0208241D01*
X0070547Y0208210D01*
X0070519Y0208181D01*
X0070489Y0208154D01*
X0070456Y0208131D01*
X0070421Y0208111D01*
X0070385Y0208094D01*
X0070347Y0208081D01*
X0070308Y0208072D01*
X0070268Y0208066D01*
X0070228Y0208064D01*
X0068750Y0206713D02*
X0068752Y0206674D01*
X0068757Y0206635D01*
X0068766Y0206597D01*
X0068779Y0206561D01*
X0068794Y0206525D01*
X0068813Y0206491D01*
X0068835Y0206459D01*
X0068860Y0206429D01*
X0068888Y0206401D01*
X0068918Y0206376D01*
X0068950Y0206354D01*
X0068984Y0206335D01*
X0069020Y0206319D01*
X0069057Y0206307D01*
X0069094Y0206298D01*
X0069133Y0206293D01*
X0069172Y0206291D01*
X0068750Y0206713D02*
X0068750Y0207135D01*
X0069383Y0210008D02*
X0069383Y0210535D01*
X0069385Y0210570D01*
X0069391Y0210606D01*
X0069401Y0210640D01*
X0069414Y0210673D01*
X0069432Y0210704D01*
X0069452Y0210733D01*
X0069476Y0210759D01*
X0069502Y0210783D01*
X0069531Y0210803D01*
X0069562Y0210821D01*
X0069595Y0210834D01*
X0069629Y0210844D01*
X0069664Y0210850D01*
X0069700Y0210852D01*
X0070650Y0210852D01*
X0070650Y0210008D02*
X0069383Y0210008D01*
X0070861Y0211880D02*
X0070861Y0212724D01*
X0070650Y0213718D02*
X0070650Y0214246D01*
X0070648Y0214291D01*
X0070642Y0214335D01*
X0070633Y0214379D01*
X0070620Y0214422D01*
X0070603Y0214463D01*
X0070583Y0214504D01*
X0070559Y0214542D01*
X0070533Y0214578D01*
X0070503Y0214611D01*
X0070471Y0214642D01*
X0070436Y0214671D01*
X0070399Y0214696D01*
X0070360Y0214717D01*
X0070319Y0214736D01*
X0070277Y0214751D01*
X0070233Y0214762D01*
X0070189Y0214770D01*
X0070144Y0214774D01*
X0070100Y0214774D01*
X0070055Y0214770D01*
X0070011Y0214762D01*
X0069967Y0214751D01*
X0069925Y0214736D01*
X0069884Y0214717D01*
X0069845Y0214696D01*
X0069808Y0214671D01*
X0069773Y0214642D01*
X0069741Y0214611D01*
X0069711Y0214578D01*
X0069685Y0214542D01*
X0069661Y0214504D01*
X0069641Y0214463D01*
X0069624Y0214422D01*
X0069611Y0214379D01*
X0069602Y0214335D01*
X0069596Y0214291D01*
X0069594Y0214246D01*
X0069594Y0214351D02*
X0069594Y0213929D01*
X0069594Y0214351D02*
X0069592Y0214391D01*
X0069586Y0214431D01*
X0069577Y0214470D01*
X0069564Y0214508D01*
X0069547Y0214544D01*
X0069527Y0214579D01*
X0069504Y0214612D01*
X0069477Y0214642D01*
X0069448Y0214670D01*
X0069417Y0214695D01*
X0069383Y0214716D01*
X0069347Y0214735D01*
X0069310Y0214750D01*
X0069271Y0214761D01*
X0069232Y0214769D01*
X0069192Y0214773D01*
X0069152Y0214773D01*
X0069112Y0214769D01*
X0069073Y0214761D01*
X0069034Y0214750D01*
X0068997Y0214735D01*
X0068961Y0214716D01*
X0068927Y0214695D01*
X0068896Y0214670D01*
X0068867Y0214642D01*
X0068840Y0214612D01*
X0068817Y0214579D01*
X0068797Y0214544D01*
X0068780Y0214508D01*
X0068767Y0214470D01*
X0068758Y0214431D01*
X0068752Y0214391D01*
X0068750Y0214351D01*
X0068750Y0213718D01*
X0069172Y0256291D02*
X0070228Y0256291D01*
X0070267Y0256293D01*
X0070306Y0256298D01*
X0070343Y0256307D01*
X0070380Y0256319D01*
X0070416Y0256335D01*
X0070450Y0256354D01*
X0070482Y0256376D01*
X0070512Y0256401D01*
X0070540Y0256429D01*
X0070565Y0256459D01*
X0070587Y0256491D01*
X0070606Y0256525D01*
X0070622Y0256561D01*
X0070634Y0256598D01*
X0070643Y0256635D01*
X0070648Y0256674D01*
X0070650Y0256713D01*
X0070650Y0257135D01*
X0070228Y0258064D02*
X0069806Y0258064D01*
X0069766Y0258066D01*
X0069726Y0258072D01*
X0069687Y0258081D01*
X0069649Y0258094D01*
X0069613Y0258111D01*
X0069578Y0258131D01*
X0069545Y0258154D01*
X0069515Y0258181D01*
X0069487Y0258210D01*
X0069462Y0258241D01*
X0069441Y0258275D01*
X0069422Y0258311D01*
X0069407Y0258348D01*
X0069396Y0258387D01*
X0069388Y0258426D01*
X0069384Y0258466D01*
X0069384Y0258506D01*
X0069388Y0258546D01*
X0069396Y0258585D01*
X0069407Y0258624D01*
X0069422Y0258661D01*
X0069441Y0258697D01*
X0069462Y0258731D01*
X0069487Y0258762D01*
X0069515Y0258791D01*
X0069545Y0258818D01*
X0069578Y0258841D01*
X0069613Y0258861D01*
X0069649Y0258878D01*
X0069687Y0258891D01*
X0069726Y0258900D01*
X0069766Y0258906D01*
X0069806Y0258908D01*
X0070228Y0258908D01*
X0070268Y0258906D01*
X0070308Y0258900D01*
X0070347Y0258891D01*
X0070385Y0258878D01*
X0070421Y0258861D01*
X0070456Y0258841D01*
X0070489Y0258818D01*
X0070519Y0258791D01*
X0070547Y0258762D01*
X0070572Y0258731D01*
X0070593Y0258697D01*
X0070612Y0258661D01*
X0070627Y0258624D01*
X0070638Y0258585D01*
X0070646Y0258546D01*
X0070650Y0258506D01*
X0070650Y0258466D01*
X0070646Y0258426D01*
X0070638Y0258387D01*
X0070627Y0258348D01*
X0070612Y0258311D01*
X0070593Y0258275D01*
X0070572Y0258241D01*
X0070547Y0258210D01*
X0070519Y0258181D01*
X0070489Y0258154D01*
X0070456Y0258131D01*
X0070421Y0258111D01*
X0070385Y0258094D01*
X0070347Y0258081D01*
X0070308Y0258072D01*
X0070268Y0258066D01*
X0070228Y0258064D01*
X0068750Y0256713D02*
X0068752Y0256674D01*
X0068757Y0256635D01*
X0068766Y0256597D01*
X0068779Y0256561D01*
X0068794Y0256525D01*
X0068813Y0256491D01*
X0068835Y0256459D01*
X0068860Y0256429D01*
X0068888Y0256401D01*
X0068918Y0256376D01*
X0068950Y0256354D01*
X0068984Y0256335D01*
X0069020Y0256319D01*
X0069057Y0256307D01*
X0069094Y0256298D01*
X0069133Y0256293D01*
X0069172Y0256291D01*
X0068750Y0256713D02*
X0068750Y0257135D01*
X0069383Y0260008D02*
X0069383Y0260535D01*
X0069385Y0260570D01*
X0069391Y0260606D01*
X0069401Y0260640D01*
X0069414Y0260673D01*
X0069432Y0260704D01*
X0069452Y0260733D01*
X0069476Y0260759D01*
X0069502Y0260783D01*
X0069531Y0260803D01*
X0069562Y0260821D01*
X0069595Y0260834D01*
X0069629Y0260844D01*
X0069664Y0260850D01*
X0069700Y0260852D01*
X0070650Y0260852D01*
X0070650Y0260008D02*
X0069383Y0260008D01*
X0070861Y0261880D02*
X0070861Y0262724D01*
X0070228Y0263718D02*
X0070228Y0264774D01*
X0069806Y0264457D02*
X0070650Y0264457D01*
X0070228Y0263718D02*
X0068750Y0264140D01*
X0069172Y0306291D02*
X0070228Y0306291D01*
X0070267Y0306293D01*
X0070306Y0306298D01*
X0070343Y0306307D01*
X0070380Y0306319D01*
X0070416Y0306335D01*
X0070450Y0306354D01*
X0070482Y0306376D01*
X0070512Y0306401D01*
X0070540Y0306429D01*
X0070565Y0306459D01*
X0070587Y0306491D01*
X0070606Y0306525D01*
X0070622Y0306561D01*
X0070634Y0306598D01*
X0070643Y0306635D01*
X0070648Y0306674D01*
X0070650Y0306713D01*
X0070650Y0307135D01*
X0070228Y0308064D02*
X0069806Y0308064D01*
X0069766Y0308066D01*
X0069726Y0308072D01*
X0069687Y0308081D01*
X0069649Y0308094D01*
X0069613Y0308111D01*
X0069578Y0308131D01*
X0069545Y0308154D01*
X0069515Y0308181D01*
X0069487Y0308210D01*
X0069462Y0308241D01*
X0069441Y0308275D01*
X0069422Y0308311D01*
X0069407Y0308348D01*
X0069396Y0308387D01*
X0069388Y0308426D01*
X0069384Y0308466D01*
X0069384Y0308506D01*
X0069388Y0308546D01*
X0069396Y0308585D01*
X0069407Y0308624D01*
X0069422Y0308661D01*
X0069441Y0308697D01*
X0069462Y0308731D01*
X0069487Y0308762D01*
X0069515Y0308791D01*
X0069545Y0308818D01*
X0069578Y0308841D01*
X0069613Y0308861D01*
X0069649Y0308878D01*
X0069687Y0308891D01*
X0069726Y0308900D01*
X0069766Y0308906D01*
X0069806Y0308908D01*
X0070228Y0308908D01*
X0070268Y0308906D01*
X0070308Y0308900D01*
X0070347Y0308891D01*
X0070385Y0308878D01*
X0070421Y0308861D01*
X0070456Y0308841D01*
X0070489Y0308818D01*
X0070519Y0308791D01*
X0070547Y0308762D01*
X0070572Y0308731D01*
X0070593Y0308697D01*
X0070612Y0308661D01*
X0070627Y0308624D01*
X0070638Y0308585D01*
X0070646Y0308546D01*
X0070650Y0308506D01*
X0070650Y0308466D01*
X0070646Y0308426D01*
X0070638Y0308387D01*
X0070627Y0308348D01*
X0070612Y0308311D01*
X0070593Y0308275D01*
X0070572Y0308241D01*
X0070547Y0308210D01*
X0070519Y0308181D01*
X0070489Y0308154D01*
X0070456Y0308131D01*
X0070421Y0308111D01*
X0070385Y0308094D01*
X0070347Y0308081D01*
X0070308Y0308072D01*
X0070268Y0308066D01*
X0070228Y0308064D01*
X0068750Y0306713D02*
X0068752Y0306674D01*
X0068757Y0306635D01*
X0068766Y0306597D01*
X0068779Y0306561D01*
X0068794Y0306525D01*
X0068813Y0306491D01*
X0068835Y0306459D01*
X0068860Y0306429D01*
X0068888Y0306401D01*
X0068918Y0306376D01*
X0068950Y0306354D01*
X0068984Y0306335D01*
X0069020Y0306319D01*
X0069057Y0306307D01*
X0069094Y0306298D01*
X0069133Y0306293D01*
X0069172Y0306291D01*
X0068750Y0306713D02*
X0068750Y0307135D01*
X0069383Y0310008D02*
X0069383Y0310535D01*
X0069385Y0310570D01*
X0069391Y0310606D01*
X0069401Y0310640D01*
X0069414Y0310673D01*
X0069432Y0310704D01*
X0069452Y0310733D01*
X0069476Y0310759D01*
X0069502Y0310783D01*
X0069531Y0310803D01*
X0069562Y0310821D01*
X0069595Y0310834D01*
X0069629Y0310844D01*
X0069664Y0310850D01*
X0069700Y0310852D01*
X0070650Y0310852D01*
X0070650Y0310008D02*
X0069383Y0310008D01*
X0070861Y0311880D02*
X0070861Y0312724D01*
X0070650Y0313718D02*
X0070650Y0314351D01*
X0070648Y0314390D01*
X0070643Y0314429D01*
X0070634Y0314466D01*
X0070622Y0314503D01*
X0070606Y0314539D01*
X0070587Y0314573D01*
X0070565Y0314605D01*
X0070540Y0314635D01*
X0070512Y0314663D01*
X0070482Y0314688D01*
X0070450Y0314710D01*
X0070416Y0314729D01*
X0070380Y0314745D01*
X0070343Y0314757D01*
X0070306Y0314766D01*
X0070267Y0314771D01*
X0070228Y0314773D01*
X0070228Y0314774D02*
X0070017Y0314774D01*
X0070017Y0314773D02*
X0069978Y0314771D01*
X0069939Y0314766D01*
X0069902Y0314757D01*
X0069865Y0314745D01*
X0069829Y0314729D01*
X0069795Y0314710D01*
X0069763Y0314688D01*
X0069733Y0314663D01*
X0069705Y0314635D01*
X0069680Y0314605D01*
X0069658Y0314573D01*
X0069639Y0314539D01*
X0069623Y0314503D01*
X0069611Y0314466D01*
X0069602Y0314429D01*
X0069597Y0314390D01*
X0069595Y0314351D01*
X0069594Y0314351D02*
X0069594Y0313718D01*
X0068750Y0313718D01*
X0068750Y0314774D01*
X0109957Y0300674D02*
X0110485Y0300674D01*
X0110485Y0300673D02*
X0110525Y0300671D01*
X0110565Y0300665D01*
X0110604Y0300656D01*
X0110642Y0300643D01*
X0110678Y0300626D01*
X0110713Y0300606D01*
X0110746Y0300583D01*
X0110776Y0300556D01*
X0110804Y0300527D01*
X0110829Y0300496D01*
X0110850Y0300462D01*
X0110869Y0300426D01*
X0110884Y0300389D01*
X0110895Y0300350D01*
X0110903Y0300311D01*
X0110907Y0300271D01*
X0110907Y0300231D01*
X0110903Y0300191D01*
X0110895Y0300152D01*
X0110884Y0300113D01*
X0110869Y0300076D01*
X0110850Y0300040D01*
X0110829Y0300006D01*
X0110804Y0299975D01*
X0110776Y0299946D01*
X0110746Y0299919D01*
X0110713Y0299896D01*
X0110678Y0299876D01*
X0110642Y0299859D01*
X0110604Y0299846D01*
X0110565Y0299837D01*
X0110525Y0299831D01*
X0110485Y0299829D01*
X0109957Y0299829D01*
X0110485Y0299829D02*
X0110530Y0299827D01*
X0110574Y0299821D01*
X0110618Y0299812D01*
X0110661Y0299799D01*
X0110702Y0299782D01*
X0110743Y0299762D01*
X0110781Y0299738D01*
X0110817Y0299712D01*
X0110850Y0299682D01*
X0110881Y0299650D01*
X0110910Y0299615D01*
X0110935Y0299578D01*
X0110956Y0299539D01*
X0110975Y0299498D01*
X0110990Y0299456D01*
X0111001Y0299412D01*
X0111009Y0299368D01*
X0111013Y0299323D01*
X0111013Y0299279D01*
X0111009Y0299234D01*
X0111001Y0299190D01*
X0110990Y0299146D01*
X0110975Y0299104D01*
X0110956Y0299063D01*
X0110935Y0299024D01*
X0110910Y0298987D01*
X0110881Y0298952D01*
X0110850Y0298920D01*
X0110817Y0298890D01*
X0110781Y0298864D01*
X0110743Y0298840D01*
X0110702Y0298820D01*
X0110661Y0298803D01*
X0110618Y0298790D01*
X0110574Y0298781D01*
X0110530Y0298775D01*
X0110485Y0298773D01*
X0110485Y0298774D02*
X0109957Y0298774D01*
X0109957Y0300674D01*
X0111987Y0300251D02*
X0112515Y0300674D01*
X0112515Y0298774D01*
X0111987Y0298774D02*
X0113043Y0298774D01*
X0152250Y0312557D02*
X0153728Y0312557D01*
X0153767Y0312555D01*
X0153806Y0312550D01*
X0153843Y0312541D01*
X0153880Y0312529D01*
X0153916Y0312513D01*
X0153950Y0312494D01*
X0153982Y0312472D01*
X0154012Y0312447D01*
X0154040Y0312419D01*
X0154065Y0312389D01*
X0154087Y0312357D01*
X0154106Y0312323D01*
X0154122Y0312287D01*
X0154134Y0312250D01*
X0154143Y0312213D01*
X0154148Y0312174D01*
X0154150Y0312135D01*
X0154150Y0311924D01*
X0154150Y0313718D02*
X0154150Y0314351D01*
X0154148Y0314390D01*
X0154143Y0314429D01*
X0154134Y0314466D01*
X0154122Y0314503D01*
X0154106Y0314539D01*
X0154087Y0314573D01*
X0154065Y0314605D01*
X0154040Y0314635D01*
X0154012Y0314663D01*
X0153982Y0314688D01*
X0153950Y0314710D01*
X0153916Y0314729D01*
X0153880Y0314745D01*
X0153843Y0314757D01*
X0153806Y0314766D01*
X0153767Y0314771D01*
X0153728Y0314773D01*
X0153728Y0314774D02*
X0153517Y0314774D01*
X0153517Y0314773D02*
X0153478Y0314771D01*
X0153439Y0314766D01*
X0153402Y0314757D01*
X0153365Y0314745D01*
X0153329Y0314729D01*
X0153295Y0314710D01*
X0153263Y0314688D01*
X0153233Y0314663D01*
X0153205Y0314635D01*
X0153180Y0314605D01*
X0153158Y0314573D01*
X0153139Y0314539D01*
X0153123Y0314503D01*
X0153111Y0314466D01*
X0153102Y0314429D01*
X0153097Y0314390D01*
X0153095Y0314351D01*
X0153094Y0314351D02*
X0153094Y0313718D01*
X0152250Y0313718D01*
X0152250Y0314774D01*
X0156272Y0341090D02*
X0157328Y0341090D01*
X0157367Y0341092D01*
X0157406Y0341097D01*
X0157443Y0341106D01*
X0157480Y0341118D01*
X0157516Y0341134D01*
X0157550Y0341153D01*
X0157582Y0341175D01*
X0157612Y0341200D01*
X0157640Y0341228D01*
X0157665Y0341258D01*
X0157687Y0341290D01*
X0157706Y0341324D01*
X0157722Y0341360D01*
X0157734Y0341397D01*
X0157743Y0341434D01*
X0157748Y0341473D01*
X0157750Y0341512D01*
X0157750Y0341935D01*
X0157750Y0342902D02*
X0157750Y0343957D01*
X0157750Y0343429D02*
X0155850Y0343429D01*
X0156272Y0342902D01*
X0155850Y0341935D02*
X0155850Y0341512D01*
X0155852Y0341473D01*
X0155857Y0341434D01*
X0155866Y0341396D01*
X0155879Y0341360D01*
X0155894Y0341324D01*
X0155913Y0341290D01*
X0155935Y0341258D01*
X0155960Y0341228D01*
X0155988Y0341200D01*
X0156018Y0341175D01*
X0156050Y0341153D01*
X0156084Y0341134D01*
X0156120Y0341118D01*
X0156157Y0341106D01*
X0156194Y0341097D01*
X0156233Y0341092D01*
X0156272Y0341090D01*
X0185250Y0338341D02*
X0187150Y0338341D01*
X0187150Y0337814D02*
X0187150Y0338869D01*
X0186886Y0340871D02*
X0186822Y0340900D01*
X0186756Y0340927D01*
X0186689Y0340951D01*
X0186621Y0340971D01*
X0186552Y0340989D01*
X0186483Y0341003D01*
X0186412Y0341015D01*
X0186342Y0341023D01*
X0186271Y0341027D01*
X0186200Y0341029D01*
X0186200Y0339973D02*
X0186129Y0339975D01*
X0186058Y0339979D01*
X0185988Y0339987D01*
X0185917Y0339999D01*
X0185848Y0340013D01*
X0185779Y0340031D01*
X0185711Y0340051D01*
X0185644Y0340075D01*
X0185578Y0340102D01*
X0185514Y0340131D01*
X0185250Y0340501D02*
X0185252Y0340538D01*
X0185257Y0340575D01*
X0185266Y0340611D01*
X0185278Y0340647D01*
X0185294Y0340681D01*
X0185312Y0340713D01*
X0185334Y0340743D01*
X0185359Y0340771D01*
X0185386Y0340797D01*
X0185415Y0340820D01*
X0185446Y0340840D01*
X0185480Y0340857D01*
X0185514Y0340871D01*
X0185672Y0340924D02*
X0186728Y0340079D01*
X0187150Y0340501D02*
X0187148Y0340538D01*
X0187143Y0340575D01*
X0187134Y0340611D01*
X0187122Y0340647D01*
X0187106Y0340681D01*
X0187088Y0340713D01*
X0187066Y0340743D01*
X0187042Y0340771D01*
X0187014Y0340797D01*
X0186985Y0340820D01*
X0186954Y0340840D01*
X0186920Y0340857D01*
X0186886Y0340871D01*
X0187150Y0340501D02*
X0187148Y0340464D01*
X0187143Y0340427D01*
X0187134Y0340391D01*
X0187122Y0340355D01*
X0187106Y0340321D01*
X0187088Y0340289D01*
X0187066Y0340259D01*
X0187042Y0340231D01*
X0187014Y0340205D01*
X0186985Y0340182D01*
X0186954Y0340162D01*
X0186920Y0340145D01*
X0186886Y0340131D01*
X0186200Y0341029D02*
X0186129Y0341027D01*
X0186058Y0341023D01*
X0185988Y0341015D01*
X0185917Y0341003D01*
X0185848Y0340989D01*
X0185779Y0340971D01*
X0185711Y0340951D01*
X0185644Y0340927D01*
X0185578Y0340900D01*
X0185514Y0340871D01*
X0185250Y0340501D02*
X0185252Y0340464D01*
X0185257Y0340427D01*
X0185266Y0340391D01*
X0185278Y0340355D01*
X0185294Y0340321D01*
X0185312Y0340289D01*
X0185334Y0340259D01*
X0185359Y0340231D01*
X0185386Y0340205D01*
X0185415Y0340182D01*
X0185446Y0340162D01*
X0185480Y0340145D01*
X0185514Y0340131D01*
X0186200Y0339973D02*
X0186271Y0339975D01*
X0186342Y0339979D01*
X0186412Y0339987D01*
X0186483Y0339999D01*
X0186552Y0340013D01*
X0186621Y0340031D01*
X0186689Y0340051D01*
X0186756Y0340075D01*
X0186822Y0340102D01*
X0186886Y0340131D01*
X0186886Y0343031D02*
X0186822Y0343060D01*
X0186756Y0343087D01*
X0186689Y0343111D01*
X0186621Y0343131D01*
X0186552Y0343149D01*
X0186483Y0343163D01*
X0186412Y0343175D01*
X0186342Y0343183D01*
X0186271Y0343187D01*
X0186200Y0343189D01*
X0186200Y0342133D02*
X0186129Y0342135D01*
X0186058Y0342139D01*
X0185988Y0342147D01*
X0185917Y0342159D01*
X0185848Y0342173D01*
X0185779Y0342191D01*
X0185711Y0342211D01*
X0185644Y0342235D01*
X0185578Y0342262D01*
X0185514Y0342291D01*
X0185250Y0342661D02*
X0185252Y0342698D01*
X0185257Y0342735D01*
X0185266Y0342771D01*
X0185278Y0342807D01*
X0185294Y0342841D01*
X0185312Y0342873D01*
X0185334Y0342903D01*
X0185359Y0342931D01*
X0185386Y0342957D01*
X0185415Y0342980D01*
X0185446Y0343000D01*
X0185480Y0343017D01*
X0185514Y0343031D01*
X0185672Y0343084D02*
X0186728Y0342239D01*
X0187150Y0342661D02*
X0187148Y0342698D01*
X0187143Y0342735D01*
X0187134Y0342771D01*
X0187122Y0342807D01*
X0187106Y0342841D01*
X0187088Y0342873D01*
X0187066Y0342903D01*
X0187042Y0342931D01*
X0187014Y0342957D01*
X0186985Y0342980D01*
X0186954Y0343000D01*
X0186920Y0343017D01*
X0186886Y0343031D01*
X0187150Y0342661D02*
X0187148Y0342624D01*
X0187143Y0342587D01*
X0187134Y0342551D01*
X0187122Y0342515D01*
X0187106Y0342481D01*
X0187088Y0342449D01*
X0187066Y0342419D01*
X0187042Y0342391D01*
X0187014Y0342365D01*
X0186985Y0342342D01*
X0186954Y0342322D01*
X0186920Y0342305D01*
X0186886Y0342291D01*
X0186200Y0343189D02*
X0186129Y0343187D01*
X0186058Y0343183D01*
X0185988Y0343175D01*
X0185917Y0343163D01*
X0185848Y0343149D01*
X0185779Y0343131D01*
X0185711Y0343111D01*
X0185644Y0343087D01*
X0185578Y0343060D01*
X0185514Y0343031D01*
X0185250Y0342661D02*
X0185252Y0342624D01*
X0185257Y0342587D01*
X0185266Y0342551D01*
X0185278Y0342515D01*
X0185294Y0342481D01*
X0185312Y0342449D01*
X0185334Y0342419D01*
X0185359Y0342391D01*
X0185386Y0342365D01*
X0185415Y0342342D01*
X0185446Y0342322D01*
X0185480Y0342305D01*
X0185514Y0342291D01*
X0186200Y0342133D02*
X0186271Y0342135D01*
X0186342Y0342139D01*
X0186412Y0342147D01*
X0186483Y0342159D01*
X0186552Y0342173D01*
X0186621Y0342191D01*
X0186689Y0342211D01*
X0186756Y0342235D01*
X0186822Y0342262D01*
X0186886Y0342291D01*
X0186833Y0344327D02*
X0185883Y0344327D01*
X0185883Y0345172D02*
X0187150Y0345172D01*
X0187150Y0344644D01*
X0187148Y0344611D01*
X0187143Y0344578D01*
X0187134Y0344546D01*
X0187123Y0344515D01*
X0187108Y0344486D01*
X0187089Y0344458D01*
X0187069Y0344432D01*
X0187045Y0344408D01*
X0187019Y0344388D01*
X0186992Y0344369D01*
X0186962Y0344354D01*
X0186931Y0344343D01*
X0186899Y0344334D01*
X0186866Y0344329D01*
X0186833Y0344327D01*
X0187150Y0346389D02*
X0185250Y0346389D01*
X0185250Y0347234D01*
X0186094Y0347234D02*
X0186094Y0346389D01*
X0185250Y0338341D02*
X0185672Y0337814D01*
X0215250Y0350057D02*
X0216728Y0350057D01*
X0216767Y0350055D01*
X0216806Y0350050D01*
X0216843Y0350041D01*
X0216880Y0350029D01*
X0216916Y0350013D01*
X0216950Y0349994D01*
X0216982Y0349972D01*
X0217012Y0349947D01*
X0217040Y0349919D01*
X0217065Y0349889D01*
X0217087Y0349857D01*
X0217106Y0349823D01*
X0217122Y0349787D01*
X0217134Y0349750D01*
X0217143Y0349713D01*
X0217148Y0349674D01*
X0217150Y0349635D01*
X0217150Y0349424D01*
X0216622Y0351218D02*
X0216094Y0351218D01*
X0216094Y0351851D01*
X0216094Y0351219D02*
X0216036Y0351221D01*
X0215979Y0351227D01*
X0215922Y0351237D01*
X0215866Y0351250D01*
X0215811Y0351268D01*
X0215758Y0351289D01*
X0215706Y0351314D01*
X0215655Y0351342D01*
X0215607Y0351373D01*
X0215561Y0351408D01*
X0215518Y0351446D01*
X0215477Y0351487D01*
X0215439Y0351530D01*
X0215404Y0351576D01*
X0215373Y0351624D01*
X0215345Y0351675D01*
X0215320Y0351727D01*
X0215299Y0351780D01*
X0215281Y0351835D01*
X0215268Y0351891D01*
X0215258Y0351948D01*
X0215252Y0352005D01*
X0215250Y0352063D01*
X0216517Y0352274D02*
X0216622Y0352274D01*
X0216517Y0352273D02*
X0216478Y0352271D01*
X0216439Y0352266D01*
X0216402Y0352257D01*
X0216365Y0352245D01*
X0216329Y0352229D01*
X0216295Y0352210D01*
X0216263Y0352188D01*
X0216233Y0352163D01*
X0216205Y0352135D01*
X0216180Y0352105D01*
X0216158Y0352073D01*
X0216139Y0352039D01*
X0216123Y0352003D01*
X0216111Y0351966D01*
X0216102Y0351929D01*
X0216097Y0351890D01*
X0216095Y0351851D01*
X0216622Y0352274D02*
X0216667Y0352272D01*
X0216711Y0352266D01*
X0216755Y0352257D01*
X0216798Y0352244D01*
X0216839Y0352227D01*
X0216880Y0352207D01*
X0216918Y0352183D01*
X0216954Y0352157D01*
X0216987Y0352127D01*
X0217018Y0352095D01*
X0217047Y0352060D01*
X0217072Y0352023D01*
X0217093Y0351984D01*
X0217112Y0351943D01*
X0217127Y0351901D01*
X0217138Y0351857D01*
X0217146Y0351813D01*
X0217150Y0351768D01*
X0217150Y0351724D01*
X0217146Y0351679D01*
X0217138Y0351635D01*
X0217127Y0351591D01*
X0217112Y0351549D01*
X0217093Y0351508D01*
X0217072Y0351469D01*
X0217047Y0351432D01*
X0217018Y0351397D01*
X0216987Y0351365D01*
X0216954Y0351335D01*
X0216918Y0351309D01*
X0216880Y0351285D01*
X0216839Y0351265D01*
X0216798Y0351248D01*
X0216755Y0351235D01*
X0216711Y0351226D01*
X0216667Y0351220D01*
X0216622Y0351218D01*
X0154150Y0264457D02*
X0153306Y0264457D01*
X0153728Y0264774D02*
X0153728Y0263718D01*
X0152250Y0264140D01*
X0152250Y0262557D02*
X0153728Y0262557D01*
X0153767Y0262555D01*
X0153806Y0262550D01*
X0153843Y0262541D01*
X0153880Y0262529D01*
X0153916Y0262513D01*
X0153950Y0262494D01*
X0153982Y0262472D01*
X0154012Y0262447D01*
X0154040Y0262419D01*
X0154065Y0262389D01*
X0154087Y0262357D01*
X0154106Y0262323D01*
X0154122Y0262287D01*
X0154134Y0262250D01*
X0154143Y0262213D01*
X0154148Y0262174D01*
X0154150Y0262135D01*
X0154150Y0261924D01*
X0153094Y0214351D02*
X0153094Y0213929D01*
X0153094Y0214351D02*
X0153092Y0214391D01*
X0153086Y0214431D01*
X0153077Y0214470D01*
X0153064Y0214508D01*
X0153047Y0214544D01*
X0153027Y0214579D01*
X0153004Y0214612D01*
X0152977Y0214642D01*
X0152948Y0214670D01*
X0152917Y0214695D01*
X0152883Y0214716D01*
X0152847Y0214735D01*
X0152810Y0214750D01*
X0152771Y0214761D01*
X0152732Y0214769D01*
X0152692Y0214773D01*
X0152652Y0214773D01*
X0152612Y0214769D01*
X0152573Y0214761D01*
X0152534Y0214750D01*
X0152497Y0214735D01*
X0152461Y0214716D01*
X0152427Y0214695D01*
X0152396Y0214670D01*
X0152367Y0214642D01*
X0152340Y0214612D01*
X0152317Y0214579D01*
X0152297Y0214544D01*
X0152280Y0214508D01*
X0152267Y0214470D01*
X0152258Y0214431D01*
X0152252Y0214391D01*
X0152250Y0214351D01*
X0152250Y0213718D01*
X0152250Y0212557D02*
X0153728Y0212557D01*
X0153767Y0212555D01*
X0153806Y0212550D01*
X0153843Y0212541D01*
X0153880Y0212529D01*
X0153916Y0212513D01*
X0153950Y0212494D01*
X0153982Y0212472D01*
X0154012Y0212447D01*
X0154040Y0212419D01*
X0154065Y0212389D01*
X0154087Y0212357D01*
X0154106Y0212323D01*
X0154122Y0212287D01*
X0154134Y0212250D01*
X0154143Y0212213D01*
X0154148Y0212174D01*
X0154150Y0212135D01*
X0154150Y0211924D01*
X0154150Y0213718D02*
X0154150Y0214246D01*
X0154148Y0214291D01*
X0154142Y0214335D01*
X0154133Y0214379D01*
X0154120Y0214422D01*
X0154103Y0214463D01*
X0154083Y0214504D01*
X0154059Y0214542D01*
X0154033Y0214578D01*
X0154003Y0214611D01*
X0153971Y0214642D01*
X0153936Y0214671D01*
X0153899Y0214696D01*
X0153860Y0214717D01*
X0153819Y0214736D01*
X0153777Y0214751D01*
X0153733Y0214762D01*
X0153689Y0214770D01*
X0153644Y0214774D01*
X0153600Y0214774D01*
X0153555Y0214770D01*
X0153511Y0214762D01*
X0153467Y0214751D01*
X0153425Y0214736D01*
X0153384Y0214717D01*
X0153345Y0214696D01*
X0153308Y0214671D01*
X0153273Y0214642D01*
X0153241Y0214611D01*
X0153211Y0214578D01*
X0153185Y0214542D01*
X0153161Y0214504D01*
X0153141Y0214463D01*
X0153124Y0214422D01*
X0153111Y0214379D01*
X0153102Y0214335D01*
X0153096Y0214291D01*
X0153094Y0214246D01*
D13*
X0134000Y0208449D02*
X0129000Y0208449D01*
X0129000Y0158449D02*
X0134000Y0158449D01*
X0134000Y0108449D02*
X0129000Y0108449D01*
X0129000Y0258449D02*
X0134000Y0258449D01*
X0134000Y0308449D02*
X0129000Y0308449D01*
X0162000Y0347524D02*
X0167000Y0347524D01*
X0164500Y0350024D02*
X0164500Y0345024D01*
X0164500Y0340024D02*
X0164500Y0335024D01*
X0158705Y0342524D02*
X0158709Y0342838D01*
X0158720Y0343152D01*
X0158740Y0343465D01*
X0158767Y0343778D01*
X0158801Y0344090D01*
X0158843Y0344401D01*
X0158893Y0344711D01*
X0158951Y0345020D01*
X0159016Y0345327D01*
X0159088Y0345633D01*
X0159168Y0345937D01*
X0159256Y0346238D01*
X0159351Y0346538D01*
X0159453Y0346835D01*
X0159562Y0347129D01*
X0159679Y0347420D01*
X0159803Y0347709D01*
X0159933Y0347995D01*
X0160071Y0348277D01*
X0160216Y0348556D01*
X0160367Y0348831D01*
X0160525Y0349102D01*
X0160690Y0349369D01*
X0160861Y0349633D01*
X0161039Y0349891D01*
X0161223Y0350146D01*
X0161413Y0350396D01*
X0161609Y0350641D01*
X0161812Y0350881D01*
X0162020Y0351117D01*
X0162233Y0351347D01*
X0162453Y0351571D01*
X0162677Y0351791D01*
X0162907Y0352004D01*
X0163143Y0352212D01*
X0163383Y0352415D01*
X0163628Y0352611D01*
X0163878Y0352801D01*
X0164133Y0352985D01*
X0164391Y0353163D01*
X0164655Y0353334D01*
X0164922Y0353499D01*
X0165193Y0353657D01*
X0165468Y0353808D01*
X0165747Y0353953D01*
X0166029Y0354091D01*
X0166315Y0354221D01*
X0166604Y0354345D01*
X0166895Y0354462D01*
X0167189Y0354571D01*
X0167486Y0354673D01*
X0167786Y0354768D01*
X0168087Y0354856D01*
X0168391Y0354936D01*
X0168697Y0355008D01*
X0169004Y0355073D01*
X0169313Y0355131D01*
X0169623Y0355181D01*
X0169934Y0355223D01*
X0170246Y0355257D01*
X0170559Y0355284D01*
X0170872Y0355304D01*
X0171186Y0355315D01*
X0171500Y0355319D01*
X0171814Y0355315D01*
X0172128Y0355304D01*
X0172441Y0355284D01*
X0172754Y0355257D01*
X0173066Y0355223D01*
X0173377Y0355181D01*
X0173687Y0355131D01*
X0173996Y0355073D01*
X0174303Y0355008D01*
X0174609Y0354936D01*
X0174913Y0354856D01*
X0175214Y0354768D01*
X0175514Y0354673D01*
X0175811Y0354571D01*
X0176105Y0354462D01*
X0176396Y0354345D01*
X0176685Y0354221D01*
X0176971Y0354091D01*
X0177253Y0353953D01*
X0177532Y0353808D01*
X0177807Y0353657D01*
X0178078Y0353499D01*
X0178345Y0353334D01*
X0178609Y0353163D01*
X0178867Y0352985D01*
X0179122Y0352801D01*
X0179372Y0352611D01*
X0179617Y0352415D01*
X0179857Y0352212D01*
X0180093Y0352004D01*
X0180323Y0351791D01*
X0180547Y0351571D01*
X0180767Y0351347D01*
X0180980Y0351117D01*
X0181188Y0350881D01*
X0181391Y0350641D01*
X0181587Y0350396D01*
X0181777Y0350146D01*
X0181961Y0349891D01*
X0182139Y0349633D01*
X0182310Y0349369D01*
X0182475Y0349102D01*
X0182633Y0348831D01*
X0182784Y0348556D01*
X0182929Y0348277D01*
X0183067Y0347995D01*
X0183197Y0347709D01*
X0183321Y0347420D01*
X0183438Y0347129D01*
X0183547Y0346835D01*
X0183649Y0346538D01*
X0183744Y0346238D01*
X0183832Y0345937D01*
X0183912Y0345633D01*
X0183984Y0345327D01*
X0184049Y0345020D01*
X0184107Y0344711D01*
X0184157Y0344401D01*
X0184199Y0344090D01*
X0184233Y0343778D01*
X0184260Y0343465D01*
X0184280Y0343152D01*
X0184291Y0342838D01*
X0184295Y0342524D01*
X0184291Y0342210D01*
X0184280Y0341896D01*
X0184260Y0341583D01*
X0184233Y0341270D01*
X0184199Y0340958D01*
X0184157Y0340647D01*
X0184107Y0340337D01*
X0184049Y0340028D01*
X0183984Y0339721D01*
X0183912Y0339415D01*
X0183832Y0339111D01*
X0183744Y0338810D01*
X0183649Y0338510D01*
X0183547Y0338213D01*
X0183438Y0337919D01*
X0183321Y0337628D01*
X0183197Y0337339D01*
X0183067Y0337053D01*
X0182929Y0336771D01*
X0182784Y0336492D01*
X0182633Y0336217D01*
X0182475Y0335946D01*
X0182310Y0335679D01*
X0182139Y0335415D01*
X0181961Y0335157D01*
X0181777Y0334902D01*
X0181587Y0334652D01*
X0181391Y0334407D01*
X0181188Y0334167D01*
X0180980Y0333931D01*
X0180767Y0333701D01*
X0180547Y0333477D01*
X0180323Y0333257D01*
X0180093Y0333044D01*
X0179857Y0332836D01*
X0179617Y0332633D01*
X0179372Y0332437D01*
X0179122Y0332247D01*
X0178867Y0332063D01*
X0178609Y0331885D01*
X0178345Y0331714D01*
X0178078Y0331549D01*
X0177807Y0331391D01*
X0177532Y0331240D01*
X0177253Y0331095D01*
X0176971Y0330957D01*
X0176685Y0330827D01*
X0176396Y0330703D01*
X0176105Y0330586D01*
X0175811Y0330477D01*
X0175514Y0330375D01*
X0175214Y0330280D01*
X0174913Y0330192D01*
X0174609Y0330112D01*
X0174303Y0330040D01*
X0173996Y0329975D01*
X0173687Y0329917D01*
X0173377Y0329867D01*
X0173066Y0329825D01*
X0172754Y0329791D01*
X0172441Y0329764D01*
X0172128Y0329744D01*
X0171814Y0329733D01*
X0171500Y0329729D01*
X0171186Y0329733D01*
X0170872Y0329744D01*
X0170559Y0329764D01*
X0170246Y0329791D01*
X0169934Y0329825D01*
X0169623Y0329867D01*
X0169313Y0329917D01*
X0169004Y0329975D01*
X0168697Y0330040D01*
X0168391Y0330112D01*
X0168087Y0330192D01*
X0167786Y0330280D01*
X0167486Y0330375D01*
X0167189Y0330477D01*
X0166895Y0330586D01*
X0166604Y0330703D01*
X0166315Y0330827D01*
X0166029Y0330957D01*
X0165747Y0331095D01*
X0165468Y0331240D01*
X0165193Y0331391D01*
X0164922Y0331549D01*
X0164655Y0331714D01*
X0164391Y0331885D01*
X0164133Y0332063D01*
X0163878Y0332247D01*
X0163628Y0332437D01*
X0163383Y0332633D01*
X0163143Y0332836D01*
X0162907Y0333044D01*
X0162677Y0333257D01*
X0162453Y0333477D01*
X0162233Y0333701D01*
X0162020Y0333931D01*
X0161812Y0334167D01*
X0161609Y0334407D01*
X0161413Y0334652D01*
X0161223Y0334902D01*
X0161039Y0335157D01*
X0160861Y0335415D01*
X0160690Y0335679D01*
X0160525Y0335946D01*
X0160367Y0336217D01*
X0160216Y0336492D01*
X0160071Y0336771D01*
X0159933Y0337053D01*
X0159803Y0337339D01*
X0159679Y0337628D01*
X0159562Y0337919D01*
X0159453Y0338213D01*
X0159351Y0338510D01*
X0159256Y0338810D01*
X0159168Y0339111D01*
X0159088Y0339415D01*
X0159016Y0339721D01*
X0158951Y0340028D01*
X0158893Y0340337D01*
X0158843Y0340647D01*
X0158801Y0340958D01*
X0158767Y0341270D01*
X0158740Y0341583D01*
X0158720Y0341896D01*
X0158709Y0342210D01*
X0158705Y0342524D01*
X0188705Y0331776D02*
X0188705Y0353429D01*
X0211343Y0353429D01*
X0211343Y0331776D01*
X0188705Y0331776D01*
X0211343Y0331776D02*
X0214295Y0331776D01*
X0214295Y0353429D01*
X0211343Y0353429D01*
M02*
