G75*
%MOIN*%
%OFA0B0*%
%FSLAX25Y25*%
%IPPOS*%
%LPD*%
%AMOC8*
5,1,8,0,0,1.08239X$1,22.5*
%
%ADD10C,0.08200*%
%ADD11OC8,0.08200*%
%ADD12R,0.06800X0.06800*%
%ADD13C,0.07300*%
%ADD14R,0.07300X0.07300*%
D10*
X0016500Y0102524D03*
X0016500Y0112524D03*
X0016500Y0122524D03*
X0016500Y0132524D03*
X0016500Y0142524D03*
X0016500Y0152524D03*
X0016500Y0162524D03*
X0016500Y0172524D03*
X0016500Y0182524D03*
X0016500Y0192524D03*
X0016500Y0207524D03*
X0016500Y0217524D03*
X0016500Y0227524D03*
X0016500Y0237524D03*
X0016500Y0247524D03*
X0016500Y0257524D03*
X0016500Y0267524D03*
X0016500Y0277524D03*
X0206500Y0277524D03*
X0206500Y0267524D03*
X0206500Y0257524D03*
X0206500Y0247524D03*
X0206500Y0237524D03*
X0206500Y0227524D03*
X0206500Y0207524D03*
X0206500Y0197524D03*
X0206500Y0187524D03*
X0206500Y0177524D03*
X0206500Y0167524D03*
X0206500Y0157524D03*
X0206500Y0147524D03*
X0206500Y0137524D03*
D11*
X0131500Y0142524D03*
X0131500Y0152524D03*
X0121500Y0152524D03*
X0121500Y0142524D03*
X0111500Y0142524D03*
X0111500Y0152524D03*
X0101500Y0152524D03*
X0101500Y0142524D03*
X0091500Y0142524D03*
X0091500Y0152524D03*
X0091500Y0192524D03*
X0091500Y0202524D03*
X0101500Y0202524D03*
X0101500Y0192524D03*
X0111500Y0192524D03*
X0111500Y0202524D03*
X0121500Y0202524D03*
X0121500Y0192524D03*
X0131500Y0192524D03*
X0131500Y0202524D03*
X0131500Y0242524D03*
X0131500Y0252524D03*
X0121500Y0252524D03*
X0121500Y0242524D03*
X0111500Y0242524D03*
X0111500Y0252524D03*
X0101500Y0252524D03*
X0101500Y0242524D03*
X0091500Y0242524D03*
X0091500Y0252524D03*
X0091500Y0292524D03*
X0091500Y0302524D03*
X0101500Y0302524D03*
X0101500Y0292524D03*
X0111500Y0292524D03*
X0111500Y0302524D03*
X0121500Y0302524D03*
X0121500Y0292524D03*
X0131500Y0292524D03*
X0131500Y0302524D03*
X0131500Y0102524D03*
X0131500Y0092524D03*
X0121500Y0092524D03*
X0121500Y0102524D03*
X0111500Y0102524D03*
X0111500Y0092524D03*
X0101500Y0092524D03*
X0101500Y0102524D03*
X0091500Y0102524D03*
X0091500Y0092524D03*
D12*
X0201500Y0337524D03*
X0201500Y0347524D03*
D13*
X0171500Y0337602D03*
D14*
X0171500Y0347445D03*
M02*
